<svg width="188" height="500" viewBox="0 0 188 500" fill="none" xmlns="http://www.w3.org/2000/svg">
<path d="M70.8404 31.6427C70.8404 31.6427 64.5459 33.3992 65.4001 40.2466C66.2543 47.0939 73.7462 48.8023 73.7462 48.8023C73.7462 48.8023 76.2 38.1919 70.8404 31.6427Z" fill="#E58A7F"/>
<path d="M119.281 31.6427C119.281 31.6427 125.034 33.3992 124.253 40.2466C123.473 47.0939 115.938 48.8023 115.938 48.8023C115.938 48.8023 114.383 38.1919 119.281 31.6427Z" fill="#E58A7F"/>
<path d="M138.437 452.277L142.37 470.475C142.37 470.475 147.289 472.196 153.683 472.196C160.077 472.196 162.29 469.186 162.29 469.186L158.847 450.801L138.437 452.277Z" fill="#FFA999"/>
<path d="M141.566 466.748C141.566 466.748 139.011 477.689 142.207 486.541C142.207 486.541 153.958 491.295 165.815 496.543C176.224 501.148 179.258 500.231 184.177 499.001C189.095 497.771 188.358 493.1 186.882 491.132C185.407 489.164 175.652 481.295 161.599 465.495C161.599 465.495 154.175 463.962 150.362 469.186C146.551 474.411 141.566 466.748 141.566 466.748Z" fill="#373A70"/>
<path d="M72.6125 450.801L70.4584 469.363C70.4584 469.363 65.7139 471.562 59.3262 472.187C52.9401 472.811 50.435 470.02 50.435 470.02L52.0797 451.32L72.6125 450.801Z" fill="#FFA999"/>
<path d="M70.9134 465.892C70.9134 465.892 73.0085 476.972 69.4241 485.712C69.4241 485.712 57.4377 489.978 45.3239 494.732C34.6903 498.905 31.6867 497.857 26.807 496.414C21.9273 494.971 22.8669 490.317 24.4309 488.408C25.9948 486.498 36.1113 479.025 50.8776 463.782C50.8776 463.782 58.3881 462.562 61.9865 467.962C65.5865 473.362 70.9134 465.892 70.9134 465.892Z" fill="#373A70"/>
<path d="M94.2432 69.161L42.1293 82.5063L47.3211 219.876H140.539L146.356 82.5063L95.9236 69.5912L94.2432 69.161Z" fill="#757CBC"/>
<path d="M95.2946 56.2599H93.1903H83.8953L84.5973 75.3747H93.1903H95.2946H103.888L104.59 56.2599H95.2946Z" fill="#E58A7F"/>
<path d="M118.443 35.5672C118.443 50.5789 107.575 65.8174 94.369 65.8174C81.165 65.8174 70.6261 50.5789 70.6261 35.5672C70.6261 20.5555 81.3297 8.38586 94.5352 8.38586C107.739 8.38431 118.443 20.554 118.443 35.5672Z" fill="#FFA999"/>
<path d="M84.2463 65.8174L94.4172 75.3748L81.954 87.6361L79.8481 72.101L84.2463 65.8174Z" fill="#424989"/>
<path d="M104.414 65.8174L94.2432 75.3748L106.706 87.6361L108.812 72.101L104.414 65.8174Z" fill="#424989"/>
<path d="M70.6649 37.1016C70.6649 37.1016 66.0089 24.6944 67.5884 17.8548C69.1663 11.0152 74.9545 11.7171 74.9545 11.7171C74.9545 11.7171 75.9919 3.47514 87.135 1.37077C98.278 -0.733605 112.95 -1.08459 118.444 5.22853C122.718 10.1392 120.549 15.5749 120.549 15.5749C120.549 15.5749 125.225 22.9984 118.188 39.5911C118.188 39.5911 115.815 36.4447 114.762 30.481C113.709 24.5189 115.289 21.3615 115.289 21.3615C115.289 21.3615 90.0081 22.4145 79.8496 18.9062C79.8496 18.9062 77.4238 34.0763 70.6649 37.1016Z" fill="#242D50"/>
<path d="M25.6904 189.189L25.6935 189.191L46.2527 161.159C51.7862 103.319 42.1293 82.5078 42.1293 82.5078L1.41477 179.31C1.41477 179.31 -2.56102 189.13 2.81716 201.524C8.19535 213.917 36.7216 230.05 36.7216 230.05L47.3211 218.826C47.3211 218.826 35.6081 200.398 25.6904 189.189Z" fill="#373A70"/>
<path d="M47.3212 219.876L45.751 230.676C43.3423 247.25 42.4508 264.011 43.0907 280.746L45.9949 458.007L77.6692 460.228L91.9385 255.588L97.9752 257.098L133.538 462.39L168.471 458.515L140.538 219.875H47.3212V219.876Z" fill="#373A70"/>
<path d="M141.606 228.996H45.9949L47.3212 219.876H140.539L141.606 228.996Z" fill="#544267"/>
<path d="M37.5494 228.996L44.198 243.47C44.198 243.47 50.8512 234.324 50.5127 228.996C50.1741 223.667 46.3195 219.6 46.3195 219.6L37.5494 228.996Z" fill="#FFA999"/>
<path d="M175.502 169.646L175.522 169.643C175.506 169.584 175.489 169.52 175.474 169.461C175.436 169.227 175.416 169.008 175.37 168.767C175.292 168.362 175.13 167.902 174.93 167.419C168.066 142.197 146.354 82.5078 146.354 82.5078C144.531 86.3718 143.728 112.053 143.377 132.67C135.335 125.195 128.941 119.629 128.941 119.629L116.742 133.524C119.114 147.079 150.951 181.926 161.228 182.44C170.639 182.909 176.999 179.461 175.502 169.646Z" fill="#373A70"/>
<path d="M25.6904 189.19C25.6904 189.19 18.3414 182.81 12.3513 180.812" stroke="#757CBC" stroke-width="0.5" stroke-miterlimit="10" stroke-linecap="round" stroke-linejoin="round"/>
<path d="M16.178 179.148C16.178 179.148 21.2254 182.32 22.3203 186.517" stroke="#757CBC" stroke-width="0.5" stroke-miterlimit="10" stroke-linecap="round" stroke-linejoin="round"/>
<path d="M26.9468 223.981C26.9468 223.981 33.0145 211.954 41.8187 210.527" stroke="#757CBC" stroke-width="0.5" stroke-miterlimit="10" stroke-linecap="round" stroke-linejoin="round"/>
<path d="M40.9149 138.658C40.9149 138.658 43.6032 155.259 46.2527 161.159" stroke="#757CBC" stroke-width="0.5" stroke-miterlimit="10" stroke-linecap="round" stroke-linejoin="round"/>
<path d="M143.378 132.668C143.378 132.668 163.385 152.192 166.935 157.295" stroke="#757CBC" stroke-width="0.5" stroke-miterlimit="10" stroke-linecap="round" stroke-linejoin="round"/>
<path d="M168.931 155.021C168.931 155.021 167.055 150.572 160.588 150.051" stroke="#757CBC" stroke-width="0.5" stroke-miterlimit="10" stroke-linecap="round" stroke-linejoin="round"/>
<path d="M137.289 127.077C137.289 127.077 135.242 140.912 120.721 142.808" stroke="#757CBC" stroke-width="0.5" stroke-miterlimit="10" stroke-linecap="round" stroke-linejoin="round"/>
<path d="M147.132 102.44C147.132 102.44 147.55 111.929 143.68 118.666" stroke="#757CBC" stroke-width="0.5" stroke-miterlimit="10" stroke-linecap="round" stroke-linejoin="round"/>
<path d="M52.9509 213.592C52.9509 213.592 55.2805 218.174 60.272 219.876" stroke="#373A70" stroke-width="0.5" stroke-miterlimit="10" stroke-linecap="round" stroke-linejoin="round"/>
<path d="M49.6243 218.085L51.9539 219.876" stroke="#373A70" stroke-width="0.5" stroke-miterlimit="10" stroke-linecap="round" stroke-linejoin="round"/>
<path d="M129.994 215.756C129.994 215.756 126.666 219.173 122.673 219.878" stroke="#373A70" stroke-width="0.5" stroke-miterlimit="10" stroke-linecap="round" stroke-linejoin="round"/>
<path d="M135.984 214.923C135.984 214.923 134.82 219.323 131.824 219.6" stroke="#373A70" stroke-width="0.5" stroke-miterlimit="10" stroke-linecap="round" stroke-linejoin="round"/>
<path d="M95.2946 75.3749V197.119C95.2946 197.119 96.2451 200.114 96.1457 202.443C96.0478 204.773 95.2946 206.438 95.2946 206.438C95.2946 206.438 96.3988 216.677 95.7248 219.878" stroke="#373A70" stroke-width="0.5" stroke-miterlimit="10" stroke-linecap="round" stroke-linejoin="round"/>
<path d="M95.4562 95.892L94.6035 129.056C94.5647 130.561 95.6907 131.843 97.1878 131.999L113.487 133.695C115.133 133.865 116.585 132.62 116.666 130.967L118.305 97.5429C118.381 95.9914 117.214 94.6574 115.666 94.5269L98.5793 93.0919C96.9284 92.9537 95.4981 94.2334 95.4562 95.892Z" fill="#C4D3E6"/>
<path d="M128.584 121.745C128.584 121.745 116.385 107.767 114.35 105.987L97.5761 103.319C97.5761 103.319 97.1956 105.352 98.7206 106.749C100.246 108.147 107.234 110.18 107.234 110.18C107.234 110.18 99.5251 109.29 97.5341 109.672C95.5431 110.054 95.6705 113.23 98.0855 114.502C98.0855 114.502 94.6548 116.238 97.4503 119.627C97.4503 119.627 96.5604 122.508 98.3401 124.033C100.12 125.558 104.591 126.575 104.591 126.575C104.591 126.575 112.319 132.041 117.53 133.819C122.738 135.597 128.457 124.541 128.584 121.745Z" fill="#FFA999"/>
<path d="M98.5995 231.535C98.5995 231.535 100.153 245.152 98.5995 248.48C97.0465 251.808 94.2417 253.139 94.2417 253.139L92.1653 228.996" stroke="#757CBC" stroke-width="0.5" stroke-miterlimit="10" stroke-linecap="round" stroke-linejoin="round"/>
<path d="M83.9574 241.067C83.9574 241.067 95.2543 240.312 97.2686 241.067C99.2829 241.822 101.928 240.862 102.814 240.9C103.701 240.937 108.36 241.044 108.36 241.044" stroke="#757CBC" stroke-width="0.5" stroke-miterlimit="10" stroke-linecap="round" stroke-linejoin="round"/>
<path d="M99.2906 255.581L116.742 245.818" stroke="#757CBC" stroke-width="0.5" stroke-miterlimit="10" stroke-linecap="round" stroke-linejoin="round"/>
<path d="M88.8387 254.692C88.8387 254.692 76.1922 244.93 74.8613 244.265" stroke="#757CBC" stroke-width="0.5" stroke-miterlimit="10" stroke-linecap="round" stroke-linejoin="round"/>
<path d="M67.9828 240.732L70.6447 241.358" stroke="#757CBC" stroke-width="0.5" stroke-miterlimit="10" stroke-linecap="round" stroke-linejoin="round"/>
<path d="M129.994 228.996C129.994 228.996 134.337 239.64 142.981 240.732" stroke="#757CBC" stroke-width="0.5" stroke-miterlimit="10" stroke-linecap="round" stroke-linejoin="round"/>
<path d="M50.7891 228.996C50.7891 228.996 51.2519 238.684 44.198 243.47" stroke="#757CBC" stroke-width="0.5" stroke-miterlimit="10" stroke-linecap="round" stroke-linejoin="round"/>
<path d="M63.3237 255.581C63.3237 255.581 62.8314 285.31 61.5237 297.735C60.2176 310.159 61.4989 312.821 61.5237 317.702C61.5486 322.583 62.5456 331.902 60.9382 335.008C59.3308 338.114 60.9382 345.657 60.9382 345.657" stroke="#757CBC" stroke-width="0.5" stroke-miterlimit="10" stroke-linecap="round" stroke-linejoin="round"/>
<path d="M53.5613 366.955C53.5613 366.955 57.1116 371.392 63.3237 371.392" stroke="#757CBC" stroke-width="0.5" stroke-miterlimit="10" stroke-linecap="round" stroke-linejoin="round"/>
<path d="M45.8349 448.167L78.3277 450.801" stroke="#757CBC" stroke-width="0.5" stroke-miterlimit="10" stroke-linecap="round" stroke-linejoin="round"/>
<path d="M131.863 452.713L167.261 448.167" stroke="#757CBC" stroke-width="0.5" stroke-miterlimit="10" stroke-linecap="round" stroke-linejoin="round"/>
<path d="M58.4425 381.599C58.4425 381.599 57.1115 394.023 58.4425 404.229C59.7734 414.434 58.4425 435.734 58.4425 435.734" stroke="#757CBC" stroke-width="0.5" stroke-miterlimit="10" stroke-linecap="round" stroke-linejoin="round"/>
<path d="M127.221 258.242C127.221 258.242 135.548 311.046 136.488 323.026C137.427 335.006 136.342 344.769 138.437 351.425C140.532 358.081 140.598 363.405 140.598 363.405" stroke="#757CBC" stroke-width="0.5" stroke-miterlimit="10" stroke-linecap="round" stroke-linejoin="round"/>
<path d="M147.632 375.387C147.632 375.387 147.764 382.486 140.598 384.705" stroke="#757CBC" stroke-width="0.5" stroke-miterlimit="10" stroke-linecap="round" stroke-linejoin="round"/>
<path d="M142.981 391.804C142.981 391.804 148.521 401.122 147.632 410.885C146.744 420.647 149.563 439.284 149.563 439.284" stroke="#757CBC" stroke-width="0.5" stroke-miterlimit="10" stroke-linecap="round" stroke-linejoin="round"/>
</svg>
