<svg width="173" height="500" viewBox="0 0 173 500" fill="none" xmlns="http://www.w3.org/2000/svg">
<path d="M150.702 255.506C150.702 255.506 149.113 262.384 147.02 263.721C144.928 265.06 147.417 279.601 147.597 281.349C147.746 282.815 149.367 284.049 150.014 283.738C150.66 283.427 150.58 275.663 151.5 273.149C152.272 271.037 152.988 270.236 153.462 270.902C153.937 271.567 155.153 280.246 154.376 283.987C153.597 287.728 158.338 299.476 160.627 298.177C162.915 296.88 164.331 278.038 163.589 272.217C162.848 266.397 159.996 259.149 159.996 259.149L150.702 255.506Z" fill="#8E4F3A"/>
<path d="M143.918 470.871C143.918 470.871 151.48 479.314 159.157 481.084C166.835 482.853 172.205 485.109 172.263 489.953C172.321 494.798 150.169 497.992 141.382 493.107C128.269 485.818 126.936 488.014 125.483 484.371C124.029 480.727 127.229 470.983 127.134 469.825C127.018 468.391 143.918 470.871 143.918 470.871Z" fill="#202338"/>
<path d="M143.068 466.831C143.068 466.831 144.066 470.787 143.919 470.871C143.77 470.954 126.617 472.998 127.136 469.824C127.557 467.249 128.157 464.451 128.157 464.451L143.068 466.831Z" fill="#81807E"/>
<path d="M66.761 473.072C66.761 473.072 72.3247 481.298 79.7649 483.195C87.1032 485.065 91.8583 488.624 92.2174 493.334C92.5765 498.044 74.9185 504.21 62.5108 495.938C54.359 490.502 51.3176 490.812 49.6754 487.358C48.0342 483.905 50.5365 474.227 50.3708 473.105C50.1688 471.72 66.761 473.072 66.761 473.072Z" fill="#202338"/>
<path d="M66.5334 469.006C66.5334 469.006 66.8991 472.981 66.761 473.072C66.6219 473.163 50.2737 476.238 50.3699 473.105C50.448 470.616 51.4062 467.521 51.4062 467.521L66.5334 469.006Z" fill="#81807E"/>
<path d="M127.471 230.039C127.471 230.039 133.711 290.62 136.955 311.36C140.748 335.608 142.034 355.643 143.091 368.194C144.422 383.979 144.679 461.63 145.611 466.246C146.542 470.862 124.948 467.522 124.948 467.522C124.948 467.522 114.325 366.06 110.361 349.248C106.671 333.595 92.9765 266.198 89.6093 270.473C86.2421 274.747 82.0672 349.122 79.5735 361.468C77.0807 373.813 69.4967 470.468 69.4967 470.468C69.4967 470.468 52.3101 473.891 47.7389 470.021C47.7389 470.021 45.6567 386.725 47.2465 363.578C47.8513 354.757 36.9096 257.811 50.9404 218.782C58.353 198.156 127.471 230.039 127.471 230.039Z" fill="#292C47"/>
<path d="M130.149 167.191C134.736 155.822 133.078 144.334 133.03 143.861L133.042 143.887C133.655 145.221 132.94 192.653 136.39 193.918C139.906 195.209 143.89 260.985 147.568 257.554C151.494 253.889 161.86 257.68 161.86 257.68L151.979 182.503L137.232 100.745C136.703 100.324 129.825 96.6242 125.271 94.4582C118.266 91.1234 108.509 86.6293 102.249 83.7574C98.5784 82.0743 94.9931 80.8436 94.9931 80.8436C94.9931 80.8436 69.9691 78.4461 67.9336 78.5738C67.2906 78.6119 64.1654 79.7016 60.0628 81.2618C51.1881 84.6309 34.0825 91.4863 31.3526 93.4447C27.3577 96.308 18.9135 164.283 18.5315 169.044C17.8428 177.617 20.5547 238.643 20.5547 238.643C20.5547 238.643 31.0706 241.836 35.4789 241.028C39.8834 240.214 37.6555 186.166 37.826 174.921C37.9641 165.8 42.9506 141.715 42.9506 141.715C42.9506 141.715 42.9544 141.728 42.9611 141.754C42.963 141.763 42.9687 141.772 42.9677 141.785C42.9706 141.793 42.9734 141.807 42.9763 141.82C43.4688 143.625 50.2013 168.617 50.4365 180.627C50.687 193.088 48.8163 240.767 48.8163 240.767L65.5551 248.652L123.44 250.312L131.874 250.44C131.874 250.44 130.542 222.183 130.05 212.499C129.743 206.341 128.543 195.326 128.85 184.59C128.85 184.59 128.62 170.98 130.149 167.191Z" fill="#3480B5"/>
<path d="M68.0612 78.5165C69.8996 95.383 89.3874 95.383 89.3874 95.383C89.3874 95.383 97.6916 93.0769 96.1085 83.2534C95.9599 82.3381 94.9426 81.1845 94.8397 79.3319C94.7445 77.5687 94.8578 75.6227 94.9597 74.3873C95.0226 73.6167 95.0817 73.1204 95.0817 73.1204C95.0817 73.1204 92.0659 69.938 88.2282 66.1469C81.5233 59.5173 72.3057 51.0236 72.2914 54.4032C72.2904 54.5823 72.3143 54.7956 72.3686 55.0433C73.9898 62.6454 68.0612 78.5165 68.0612 78.5165Z" fill="#8E4F3A"/>
<path d="M69.8129 217.818C69.8129 217.818 68.2964 227.379 68.165 229.872L64.9521 229.231C64.9521 229.231 65.8379 219.114 66.3571 217.418L69.8129 217.818Z" fill="#5D676C"/>
<path d="M76.1911 62.5417C76.1911 62.5417 76.1911 62.5417 76.192 62.5437C76.234 62.6065 77.1303 63.9467 78.6582 65.8689C81.8987 69.9448 87.991 76.6421 94.8397 79.3311C94.7445 77.5679 94.8578 75.6219 94.9598 74.3865C95.6599 74.3693 96.3619 74.2874 97.0563 74.134C95.1779 70.8545 92.466 67.4139 92.466 67.4139L88.2282 66.1461L76.1911 62.5417Z" fill="#633029"/>
<path d="M72.138 54.549C73.965 58.522 75.6986 61.4015 76.1901 62.5417C76.1901 62.5417 76.1901 62.5417 76.191 62.5436C76.512 63.2866 77.3836 64.4972 78.6571 65.8689C82.1358 69.6171 88.6025 74.5607 94.9597 74.3864C95.6598 74.3693 96.3618 74.2873 97.0562 74.134C99.6233 73.5739 102.654 72.3813 104.322 69.1151C117.492 43.3301 107.957 22.2458 107.957 22.2458C107.957 22.2458 71.9466 12.0623 66.3123 22.9031C62.3603 30.5071 67.8497 45.2152 72.138 54.549Z" fill="#8E4F3A"/>
<path d="M107.957 22.2458C107.957 22.2458 111.301 22.061 112.128 15.7209C112.944 9.45614 111.293 7.72064 111.293 7.72064C111.293 7.72064 96.4276 1.4968 91.0886 0.687148C85.7497 -0.122503 72.6229 -0.898816 69.5452 2.61983C69.5452 2.61983 62.0707 0.882414 60.0333 13.2939C56.8013 32.9818 71.0436 52.101 71.0436 52.101C71.0436 52.101 70.9216 39.2389 73.7592 37.5339C76.5968 35.8298 79.0439 39.8828 79.0439 39.8828L84.8476 40.9221C84.8476 40.9221 76.0329 21.8914 86.6051 21.1866C97.1772 20.4826 101.905 23.3498 107.957 22.2458Z" fill="#252E3B"/>
<path d="M78.8848 34.7553C78.3333 29.0877 68.085 26.9246 68.7708 32.8645C69.4567 38.8036 74.5041 44.5111 76.8359 44.3092C79.1668 44.1082 79.3039 39.0741 78.8848 34.7553Z" fill="#8E4F3A"/>
<path d="M38.5937 175.433C37.8165 185.87 42.2324 243.623 37.8269 244.435C33.4205 245.244 17.2275 241.685 17.2275 241.685C17.2275 241.685 15.1977 179.406 15.8492 172.877C16.3217 168.125 23.8876 96.8471 27.8806 93.9848C30.1877 92.3283 47.2827 86.2693 55.6707 82.964C57.2033 82.3582 58.6893 81.7819 60.0628 81.2609C61.8422 83.2402 80.7118 118.15 82.1863 146.52C82.633 155.155 80.6108 173.389 79.0725 188.285C77.4284 204.177 75.6091 216.581 74.2765 229.872C71.6504 256.056 69.812 276.891 69.812 276.891L43.7526 265.288C39.5367 263.178 33.6968 254.522 35.2818 250.081C41.3056 233.209 48.8915 204.378 48.8992 189.573C48.8992 189.573 45.993 153.317 43.6888 145.346C43.6888 145.346 39.5806 162.162 38.5937 175.433Z" fill="#E2D2CA"/>
<path d="M101.9 83.5983C101.9 83.5983 105.763 96.1402 110.236 127.422C111.951 139.439 114.356 159.889 116.669 180.534V180.541C118.494 196.813 122.657 213.511 123.981 225.973C125.35 238.876 129.482 276.892 129.482 276.892L139.497 270.574C140.932 269.249 142.93 267.538 142.353 265.675C138.895 254.52 131.479 211.054 129.329 183.297C128.922 178.038 129.687 172.965 130.683 168.057C131.323 173.976 132.222 180.041 133.046 185.049C133.046 185.052 133.046 185.052 133.046 185.055C134.014 190.953 134.873 195.387 135.069 196.389C136.496 203.616 145.036 260.089 146.761 260.216C152.454 260.638 163.787 261.877 163.787 261.877L155.898 192.682L138.198 100.093C134.48 98.4358 129.823 96.6232 125.271 94.4562C120.53 92.1996 114.53 89.4144 109.21 86.9579C106.669 85.7824 104.274 84.6832 102.25 83.7554L101.9 83.5983ZM133.043 143.888H133.035C133.035 143.88 133.033 143.87 133.031 143.862L133.043 143.888Z" fill="#E2D2CA"/>
<path d="M17.2275 273.501C17.2275 273.501 18.2105 260.095 21.7949 258.065C25.3783 256.036 23.2618 260.157 23.2618 260.157C23.2618 260.157 21.1186 269.863 20.6204 273.802C20.5956 273.992 17.2275 273.501 17.2275 273.501Z" fill="#434343"/>
<path d="M33.7377 243.754C33.7377 243.754 35.0255 249.574 36.761 255.401C38.4956 261.227 40.1473 263.101 39.3643 266.413C38.7756 268.912 35.9094 270.752 35.2065 269.937C34.5007 269.123 34.3006 259.365 30.2609 259.35C26.2213 259.334 31.2878 271.444 28.895 270.524C26.5042 269.604 17.3218 264.393 17.98 259.487C18.6353 254.58 22.3921 251.085 22.2654 243.74C22.1482 237.075 24.2657 234.324 24.2657 234.324L33.7377 243.754Z" fill="#8E4F3A"/>
<path d="M30.6668 258.946C30.6668 258.946 36.0247 260.401 35.4323 278.597L29.3542 277.488C29.3542 277.488 29.618 267.43 27.8806 261.922C27.8806 261.922 28.2454 258.366 30.6668 258.946Z" fill="#5A5C5A"/>
<path d="M52.6473 282.964L5.40561 268.789L4.66644 327.224L51.4548 356.232L52.6473 282.964Z" fill="#5A5C5A"/>
<path d="M51.4548 356.232L45.4948 357.238L0 327.987L1.45832 269L5.40562 268.789L51.4548 356.232Z" fill="#5A5C5A"/>
<path d="M39.0966 204.438L39.0118 250.526C39.0118 250.526 29.8514 250.118 17.2265 245.457L16.3511 180.735L39.0966 204.438Z" fill="#E2D2CA"/>
<path d="M131.159 145.409C130.545 142.386 129.917 139.93 129.395 138.103C129.931 140.645 130.277 143.865 130.494 147.249C131.107 156.813 130.698 167.655 130.682 168.048C130.682 168.054 130.682 168.057 130.682 168.057C131.322 173.976 132.221 180.041 133.045 185.049C134.031 174.293 133.737 164.87 132.94 157.16C132.469 152.625 131.823 148.682 131.159 145.409Z" fill="#BAADA6"/>
<path d="M128.174 134.296C128.222 134.424 128.716 135.73 129.391 138.086C129.063 136.528 128.662 135.224 128.174 134.296Z" fill="#E2D2CA"/>
</svg>
