<svg width="177" height="500" viewBox="0 0 177 500" fill="none" xmlns="http://www.w3.org/2000/svg">
<path d="M58.8502 472.467C58.8502 472.467 45.7075 469.681 45.2526 469.271C44.7986 468.861 42.0589 463.604 40.0048 464.477C37.9496 465.35 37.8119 471.69 35.7982 472.727C33.7858 473.765 17.8579 484.123 15.8894 486.024C13.9222 487.926 2.01932 486.576 0.592769 489.916C-0.833787 493.257 -1.08878 501.203 16.7287 499.647C34.5462 498.09 54.8033 501.342 58.6693 499.307C62.5347 497.273 59.9832 477.607 58.8502 472.467Z" fill="#565E96"/>
<path d="M165.134 465.135C165.134 465.135 151.714 464.489 151.2 464.157C150.687 463.825 147.141 459.074 145.252 460.264C143.364 461.455 144.243 467.736 142.422 469.082C140.602 470.428 126.536 483.201 124.897 485.393C123.259 487.585 111.294 488.157 110.42 491.683C109.547 495.209 110.566 503.093 127.905 498.705C145.245 494.318 165.761 494.287 169.25 491.659C172.742 489.033 167.075 470.028 165.134 465.135Z" fill="#565E96"/>
<path d="M165.134 465.135L161.57 453.314L145.565 455.615L147.765 466.254L165.134 465.135Z" fill="#EEA886"/>
<path d="M59.8605 466.026L58.8503 472.467L41.429 469.246L42.5285 459.617L59.8605 466.026Z" fill="#EEA886"/>
<path d="M100.899 259.439C100.899 259.439 103.601 282.529 106.572 306.195C107.246 311.578 107.937 316.995 108.608 322.172C110.824 339.18 112.878 353.647 113.753 356.182C116.114 363.014 139.384 467.443 139.384 467.443C139.384 467.443 168.439 468.838 169.298 466.042C169.298 466.042 147.693 350.669 148.012 346.796C148.334 342.924 144.533 233.698 144.533 233.698C144.533 233.698 102.195 253.161 100.899 259.439Z" fill="#323657"/>
<path d="M74.5016 229.35C74.5016 229.35 54.669 333.101 52.7325 341.276C50.796 349.452 34.5772 469.628 34.5772 469.628C34.5772 469.628 46.2039 477.399 63.2207 476.536C63.2207 476.536 88.6785 347.996 90.7455 344.077C98.7663 328.872 125.759 257.236 129.632 246.694C133.504 236.152 145 221.731 145 221.731C145 221.731 114.026 208.423 74.5016 229.35Z" fill="#323657"/>
<path d="M86.1708 81.3337C86.1708 81.3337 75.1062 102.659 73.1217 115.482C71.1371 128.306 80.2318 170.006 79.9932 177.259C79.3514 196.806 72.7759 238.369 72.7759 238.369L132.729 242.111C132.729 242.111 137.815 222.089 141.15 197.629C144.485 173.169 140.429 152.073 140.788 137.852C142.013 89.3285 104.609 72.8102 104.609 72.8102L86.1708 81.3337Z" fill="#CFBEB6"/>
<path d="M73.8397 231.393L72.0579 242.111C72.0579 242.111 116.538 245.173 144.92 244.914L144.335 235.34C144.336 235.339 101.828 234.684 73.8397 231.393Z" fill="#40498C"/>
<path d="M62.0449 20.8579C62.0449 20.8579 53.872 31.7332 56.7603 34.052C59.1452 35.9677 51.7129 46.7286 50.6839 48.5152C49.6536 50.3014 54.9264 52.5075 55.9059 53.9048C56.8855 55.3022 58.0679 70.8555 62.5131 71.9899C66.9573 73.1235 88.3609 69.12 94.7666 64.1975C101.174 59.2757 109.64 33.955 107.6 22.4277C105.558 10.9002 76.4353 1.87679 62.0449 20.8579Z" fill="#EEA886"/>
<path d="M76.5153 70.6597C76.5153 70.6597 76.9237 72.0911 77.4469 74.0829C77.6657 74.9178 77.9127 75.8785 78.1729 76.9162C78.3732 77.7093 78.5813 78.549 78.7893 79.4138C80.1024 84.8602 81.481 91.4496 81.3543 94.598C81.1209 100.482 104.609 72.8098 104.609 72.8098C104.609 72.8098 96.9021 54.1971 94.6226 33.0457C92.3459 11.8957 76.5153 70.6597 76.5153 70.6597Z" fill="#EEA886"/>
<path d="M60.3835 23.231C60.3835 23.231 55.7929 9.46182 69.065 1.76343C82.3357 -5.93496 101.657 14.0052 104.022 15.0115C106.387 16.0179 119.825 18.9131 109.455 42.5331C100.089 63.8678 100.694 61.5894 100.694 61.5894C100.694 61.5894 96.5699 50.5519 94.2894 48.3072C90.7301 44.8015 81.8581 44.1757 81.8581 44.1757C81.8581 44.1757 87.7086 33.7171 81.4173 31.1617C75.1274 28.6064 67.3566 21.7756 60.3835 23.231Z" fill="#323657"/>
<path d="M89.7701 38.8744C90.5747 37.4405 93.4229 31.184 98.4529 35.8696C103.484 40.5545 92.5195 51.5022 91.5184 51.5137C90.5162 51.5252 82.9949 50.9432 89.7701 38.8744Z" fill="#EEA886"/>
<path d="M76.5153 70.6597C76.5153 70.6597 76.9237 72.0911 77.4469 74.0829C77.6657 74.9178 77.9127 75.8786 78.1729 76.9162C90.241 70.4882 93.6977 65.0345 93.8003 64.8655C88.1782 67.7701 76.5153 70.6597 76.5153 70.6597Z" fill="#A77860"/>
<path d="M76.8745 125.532C77.7858 130.033 78.5908 134.572 79.2938 139.115L79.2924 139.119C80.8445 149.116 81.9243 159.145 82.6503 168.873C82.9104 172.341 83.1212 175.774 83.2973 179.154C85.3753 219.424 99.9939 261.98 99.9939 261.98C99.9939 261.98 134.4 261.264 142.475 257.175C142.475 257.175 146.55 204.087 143.057 159.247C142.787 155.784 142.469 152.323 142.095 148.889C142.093 148.884 142.093 148.884 142.093 148.884C138.138 112.559 131.669 76.9166 104.61 72.8115C104.07 73.293 72.0834 101.891 76.8745 125.532Z" fill="#FFC05C"/>
<path d="M143.293 162.451C143.293 162.451 142.609 206.152 163.984 249.605C166.594 254.91 122.306 260.787 122.306 260.787L143.293 162.451Z" fill="#FFC05C"/>
<path d="M94.1301 302.666L167.536 291.024C173.795 290.032 177.758 283.767 175.974 277.686L161.135 227.109C159.627 221.972 154.499 218.789 149.226 219.718L82.6547 231.452C77.0083 232.447 73.2007 237.784 74.0992 243.447L82.1051 293.932C83.0147 299.665 88.3981 303.574 94.1301 302.666Z" fill="#E8734D"/>
<path d="M77.3645 259.77C75.8896 184.419 82.2407 139.328 87.8273 114.771C93.9461 87.873 100.447 78.9808 100.72 78.6159L102.248 76.576L103.832 78.5724C127.874 108.885 143.48 153.721 152.338 185.996C161.916 220.896 165.893 249.054 165.932 249.334L166.208 251.318L77.4073 261.94L77.3645 259.77ZM148.548 187.036C140.005 155.907 125.145 113.002 102.499 83.2625C100.3 87.3335 95.797 97.238 91.5173 116.272C86.1019 140.351 79.9574 184.343 81.2545 257.522L161.742 247.894C160.668 240.928 156.608 216.407 148.548 187.036Z" fill="#E8734D"/>
<path d="M105.764 73.0081L103.32 69.4349C103.32 69.4349 84.7993 83.7113 78.4655 109.16C78.4655 109.16 92.0858 83.0264 105.764 73.0081Z" fill="#FFC05C"/>
<path d="M109.607 116.501C109.607 116.501 116.676 156.079 114.274 159.791C111.873 163.503 95.7877 186.959 95.7877 186.959C95.7877 186.959 168.041 168.848 109.607 116.501Z" fill="#D69D40"/>
<path d="M68.8393 242.819C68.8393 242.819 71.2802 241.999 72.1703 241.119C72.1703 241.119 73.672 239.395 74.8116 238.233C75.1748 237.866 75.499 237.554 75.7296 237.375C76.6932 236.624 79.0328 235.264 80.8396 232.81C82.6463 230.361 88.1501 221.059 88.1501 221.059L81.0542 214.963L76.6156 208.17C76.6156 208.17 59.4667 215.088 57.5183 217.177C57.3301 217.382 57.1499 217.591 56.9965 217.801C55.5195 219.73 55.2308 221.786 54.5702 222.885C54.3313 223.291 52.2163 227.483 52.7795 228.768C53.5573 230.554 54.8214 231.475 56.1356 231.702C56.1356 231.702 57.8143 235.13 60.1512 236.198C60.1512 236.198 61.598 239.41 64.8835 239.911C64.8835 239.911 66.7174 243.005 68.8393 242.819Z" fill="#EFAA88"/>
<path d="M101.1 97.7803C101.1 97.7803 119.55 134.63 122.306 157.46C123.17 164.621 71.6454 207.464 72.058 210.23C72.4716 212.995 87.1866 225.498 87.1866 225.498C87.1866 225.498 150.029 171.278 150.441 166.759C150.854 162.239 137.635 104.084 129.777 91.9579C123.882 82.8597 112.316 70.9634 104.303 74.8538C93.5176 80.0905 101.1 97.7803 101.1 97.7803Z" fill="#FFC05C"/>
</svg>
