<svg width="192" height="500" viewBox="0 0 192 500" fill="none" xmlns="http://www.w3.org/2000/svg">
<path d="M146.007 470.49C146.007 470.49 148.649 476.858 150.876 479.383C153.103 481.906 161.631 486.418 161.678 493.914C161.728 502.043 147.302 499.787 141.66 499.49C136.018 499.193 135.591 494.851 133.215 490.248C130.84 485.645 128.446 486.425 128 482.713C127.555 479.001 129.819 470.691 129.819 470.691L146.007 470.49Z" fill="#163342"/>
<path d="M103.161 8.48421C103.161 8.48421 129.154 -1.13442 127.529 33.4094C125.905 67.9528 119.813 71.4632 102.714 66.6389C85.614 61.8146 84.1813 40.0127 81.9544 29.5255C79.7283 19.0373 94.661 9.99205 103.161 8.48421Z" fill="#EEA886"/>
<path d="M85.5682 46.6576C85.5682 46.6576 85.4938 37.43 89.3318 36.5802C93.1684 35.7311 95.1452 41.0656 95.1452 41.0656L98.2353 40.8992C98.2353 40.8992 95.4739 31.5482 99.132 29.4046C102.79 27.2602 124.675 29.1443 127.422 25.9957C130.168 22.8475 126.185 4.149 120.215 2.31393C114.243 0.478851 97.9334 -3.24349 87.576 5.9802C87.576 5.9802 78.566 6.15192 78.205 13.4891C77.8435 20.8255 82.446 41.6542 85.5682 46.6576Z" fill="#E8734D"/>
<path d="M93.6747 32.6625C92.5276 29.6186 86.0446 30.0019 86.7075 34.8283C87.3719 39.654 92.7304 47.086 94.8814 45.6924C97.0325 44.2985 95.2587 36.8605 93.6747 32.6625Z" fill="#EEA886"/>
<path d="M42.963 470.49C42.963 470.49 40.3221 476.858 38.0942 479.383C35.867 481.906 27.3387 486.418 27.2929 493.914C27.2428 502.043 41.6695 499.787 47.3112 499.49C52.9529 499.193 53.3803 494.851 55.7556 490.248C58.1313 485.645 60.5245 486.425 60.971 482.713C61.416 479.001 59.1514 470.691 59.1514 470.691L42.963 470.49Z" fill="#163342"/>
<path d="M42.7179 468.139L42.1956 472.235C42.1956 472.235 51.1961 475.263 59.5852 472.405L59.0996 467.059L42.7179 468.139Z" fill="#2F6B8C"/>
<path d="M146.127 468.139L146.631 471.92C146.631 471.92 137.792 475.185 129.403 472.327L129.744 467.059L146.127 468.139Z" fill="#2F6B8C"/>
<path d="M142.563 365.541C142.563 375.563 150.101 468.952 150.101 468.952C149.098 472.293 128.63 472.16 125.29 470.49C121.948 468.82 112.481 375.981 111.864 365.876C111.247 355.77 93.1606 278.737 90.2331 279.072C87.3042 279.406 77.5621 362.733 75.2245 370.417C72.8856 378.1 63.1259 470.49 63.1259 470.49C53.4586 472.441 39.3806 470.049 39.3806 470.049C39.3806 470.049 41.1201 374.576 41.5394 371.752C42.159 367.573 41.5112 356.309 43.2102 331.312C44.731 308.952 50.2246 260.268 53.7086 233.904C53.8331 232.967 53.9505 232.065 54.0669 231.203C54.7488 226.071 55.2602 222.301 55.5049 220.493C55.6117 219.711 55.6699 219.294 55.6699 219.294C56.6076 218.863 57.5896 218.464 58.6126 218.097C83.079 209.307 130.268 218.611 130.268 218.611C130.268 218.611 130.295 218.843 130.348 219.28C130.411 219.809 130.509 220.64 130.636 221.715C130.908 224.041 131.313 227.502 131.778 231.519C131.78 231.548 131.784 231.577 131.787 231.606C131.801 231.727 131.816 231.851 131.829 231.974C133.476 246.271 135.803 267.206 135.585 269.384C135.251 272.724 142.563 355.519 142.563 365.541Z" fill="#1D3B54"/>
<path d="M36.9563 208.362C36.9563 208.362 0.083031 162.709 0.000163392 152.799C-0.0375678 148.219 6.46666 132.946 12.0879 125.768C13.9385 123.403 15.9125 121.042 17.8837 118.772C17.8865 118.767 17.8918 118.765 17.8918 118.765C25.7628 109.71 33.6024 102.188 33.6024 102.188C33.6024 102.188 53.8059 78.1593 68.0271 91.2559C68.0271 91.2559 67.6102 100.059 63.3353 106.72C59.0615 113.387 53.6338 118.451 50.9919 120.586C48.3525 122.719 24.6859 147.58 24.3153 148.734C23.9443 149.889 29.4397 163.841 32.93 169.878C37.9073 178.489 48.1794 198.476 48.1794 198.476L36.9563 208.362Z" fill="#EAD8CF"/>
<path d="M149.47 208.473C149.47 208.473 190.378 166.395 191.368 156.535C191.825 151.976 186.75 136.172 181.811 128.508C180.184 125.983 178.435 123.451 176.682 121.011C176.679 121.004 176.674 121.002 176.674 121.002C169.668 111.264 162.55 103.055 162.55 103.055C162.55 103.055 144.636 77.2741 129.273 89.011C129.273 89.011 128.88 97.8154 132.526 104.841C136.171 111.871 141.112 117.411 143.547 119.78C145.978 122.146 167.265 149.073 167.529 150.257C167.791 151.441 161.04 164.83 157.012 170.521C151.265 178.64 139.64 198.063 139.64 198.063L149.47 208.473Z" fill="#EAD8CF"/>
<path d="M113.948 75.4944C113.948 75.4944 118.183 76.4462 100.232 93.2785C100.232 93.2785 87.7802 79.4604 88.2132 77.1303C88.6473 74.8004 113.948 75.4944 113.948 75.4944Z" fill="#EEA987"/>
<path d="M150.445 93.5417L137.755 139.07C133.683 152.854 131.382 166.71 130.694 178.841C130.164 188.21 130.647 218.015 130.647 218.015C130.647 218.015 113.042 224.477 84.3093 222.663C84.3093 222.663 53.0583 230.503 55.5786 211.556C62.2468 161.399 55.7246 140.719 54.8518 135.685C54.8518 135.685 50.6566 111.324 47.6533 90.9132C56.3508 87.675 93.5027 75.1842 93.5027 75.1842L113.655 75.4043C113.655 75.4043 141.996 83.8247 150.445 93.5417Z" fill="#EAD8CF"/>
<path d="M135.248 148.564C135.248 148.564 123.273 142.967 119.13 124.053L76.8678 123.593C76.8678 123.593 64.2229 148.728 57.3989 150.069C57.3989 150.069 58.7286 177.666 57.8763 188.326C57.0254 198.985 54.4657 219.146 54.4657 219.146C54.4657 219.146 56.8777 237.55 131.382 225.028C131.382 225.028 130.576 180.736 130.696 178.843C130.817 176.95 134.938 149.675 135.248 148.564Z" fill="#385369"/>
<path d="M119.047 124.052C119.047 124.052 124.014 98.3867 134.882 83.4357C134.882 83.4357 133.838 82.1898 131.028 81.7236C131.028 81.7236 119.233 98.5443 114.527 124.003C109.821 149.462 119.047 124.052 119.047 124.052Z" fill="#385369"/>
<path d="M77.2941 123.597C77.2941 123.597 74.4209 100.418 63.8805 85.2333C63.8805 85.2333 65.6634 84.0629 68.4844 83.6592C68.4844 83.6592 77.6648 98.0915 81.8141 123.647C85.9635 149.202 77.2941 123.597 77.2941 123.597Z" fill="#385369"/>
<path d="M88.7799 76.9691C88.7799 76.9691 93.2255 72.5789 89.0476 55.2349C87.9467 50.6528 113.452 60.7577 113.452 60.7577C113.452 60.7577 113.248 64.5513 113.271 68.3534C113.279 70.058 113.336 71.7583 113.475 73.1276C113.579 74.1555 113.732 74.9926 113.947 75.4923C115.092 78.13 98.1256 83.6592 88.7799 76.9691Z" fill="#EEA987"/>
<path d="M150.475 90.7499C139.868 93.8248 139.405 133.952 139.405 133.952C139.405 133.952 136.455 143.907 135.2 152.849C134.036 161.168 132.764 216.365 132.577 224.838C132.577 224.838 122.327 231.425 94.3441 230.921C94.3441 230.921 65.1225 228.903 52.699 224.071C53.6286 215.991 55.0031 203.557 55.8822 195.073C56.5452 188.67 57.1146 182.792 57.3446 179.427C58.0519 169.044 54.2531 132.172 54.2531 132.172C58.6606 94.8784 50.9641 88.9165 50.9641 88.9165C56.0642 85.5648 86.674 77.4865 86.674 77.4865C92.8404 104.284 100.745 109.602 100.745 109.602C112.175 98.2425 117.791 76.7294 117.791 76.7294C137.13 80.5222 150.475 90.7499 150.475 90.7499Z" fill="#385369"/>
<path d="M142.418 198.128C142.418 198.128 141.084 199.58 139.507 199.729C136.781 199.985 133.314 197.221 130.801 200.314C128.289 203.407 135.695 214.7 138.02 215.874C140.344 217.046 144.95 214.034 149.412 206.886C153.875 199.738 142.418 198.128 142.418 198.128Z" fill="#EEA886"/>
<path d="M131.795 199.405C131.795 199.405 126.523 201.943 121.009 205.53C116.171 208.677 111.027 213.122 111.886 214.437C113.06 216.236 116.696 212.216 121.703 209.439C126.314 206.883 125.839 208.21 125.839 208.21C125.839 208.21 125.954 207.824 121.48 211.65C116.67 215.764 111.558 220.806 112.598 221.997C113.25 222.745 113.26 222.901 115.249 221.714C114.254 222.658 114.369 223.085 114.721 223.569C116.541 226.075 124.548 221.213 127.727 219.281C125.294 220.782 123.67 222.16 125.721 222.97C128.066 223.897 139.072 216.477 143.272 214.224C147.851 211.766 131.795 199.405 131.795 199.405Z" fill="#EEA886"/>
<path d="M44.6824 198.727C44.6824 198.727 46.0192 200.184 47.6018 200.333C50.3361 200.59 53.8126 197.818 56.3332 200.92C58.8534 204.022 51.4236 215.349 49.0927 216.526C46.7618 217.703 42.1417 214.681 37.6665 207.511C33.1913 200.342 44.6824 198.727 44.6824 198.727Z" fill="#EEA886"/>
<path d="M55.3363 200.008C55.3363 200.008 60.6243 202.553 66.155 206.15C71.0078 209.307 76.1661 213.765 75.3057 215.085C74.1286 216.889 70.48 212.856 65.4582 210.071C60.8342 207.507 61.3106 208.838 61.3106 208.838C61.3106 208.838 61.1956 208.451 65.6832 212.289C70.5075 216.415 75.6333 221.472 74.5916 222.667C73.9354 223.417 73.9272 223.573 71.9321 222.382C72.9304 223.329 72.814 223.758 72.4624 224.244C70.6362 226.757 62.6054 221.88 59.417 219.942C61.8575 221.447 63.4849 222.83 61.4298 223.643C59.0774 224.572 48.0376 217.13 43.8266 214.871C39.2318 212.406 55.3363 200.008 55.3363 200.008Z" fill="#EEA886"/>
<path d="M48.1794 198.477C48.1794 198.477 45.4589 203.439 36.9563 208.362C36.9563 208.362 19.7152 187.237 11.8633 174.93H35.7563C35.7563 174.93 46.3126 194.185 48.1794 198.477Z" fill="#EAD8CF"/>
<path d="M139.639 198.062C139.639 198.062 141.108 203.942 149.47 208.473C149.47 208.473 172.429 183.544 175.047 180.429L154.941 173.544C154.941 173.544 144.323 189.777 139.639 198.062Z" fill="#EAD8CF"/>
<path d="M113.475 73.1277C98.3002 72.9316 93.4216 61.3936 93.2742 61.0339C101.27 69.1334 113.271 68.3534 113.271 68.3534C113.279 70.058 113.336 71.7588 113.475 73.1277Z" fill="#A77860"/>
<path d="M113.475 73.1276C113.475 73.1276 110.583 76.779 102.678 80.0807L106.229 87.8346L116.374 76.261L113.475 73.1276Z" fill="#D1C1B9"/>
<path d="M90.3495 73.2563C90.3495 73.2563 93.2742 77.8966 102.678 80.0807L98.51 88.9021L87.7344 77.0587L90.3495 73.2563Z" fill="#D1C1B9"/>
</svg>
