<svg width="155" height="500" viewBox="0 0 155 500" fill="none" xmlns="http://www.w3.org/2000/svg">
<path d="M112.404 443.596L117.576 465.642H136.627L134.177 443.596H112.404Z" fill="#FFA999"/>
<path d="M49.8067 445.557L46.8118 464.78L26.6719 467.603L28.8493 446.646L49.8067 445.557Z" fill="#FFA999"/>
<path d="M123.2 217.788C123.2 217.788 128.281 250.223 128.281 279.254L141.477 452.752L108.049 454.619L80.198 273.993L77.6577 271.453L53.526 455.89L23.7846 456.582L38.6474 222.001L123.2 217.788Z" fill="#544267"/>
<path d="M51.1665 75.5021C51.1665 75.5021 37.5587 95.6333 30.6637 114.867C23.7688 134.1 21.2285 154.226 21.2285 154.226L45.9053 159.503C45.9053 159.503 53.1631 77.143 51.1665 75.5021Z" fill="#373A70"/>
<path d="M51.1665 75.5022C51.1665 75.5022 76.3539 65.7442 87.1661 62.7263L99.612 61.7036L138.532 77.7613L124.652 183.25L123.563 221.999H38.6474C38.6474 221.999 38.022 155.75 41.8317 125.2C45.6428 94.6494 51.1665 75.5022 51.1665 75.5022Z" fill="#373A70"/>
<path d="M78.111 56.2601V68.7792C78.111 68.7792 79.1996 72.8614 84.9156 72.5903C90.6315 72.3178 99.612 64.4317 99.612 64.4317V46.1909L78.111 56.2601Z" fill="#E58A7F"/>
<path d="M105.364 31.5791C105.364 45.4437 94.2532 59.5176 82.0583 59.5176C69.8634 59.5176 62.4621 45.4939 62.4621 31.6294C62.4621 17.7648 62.0533 6.47498 83.2833 6.47498C95.4782 6.47498 105.364 17.7146 105.364 31.5791Z" fill="#FFA999"/>
<path d="M64.2981 43.483C64.2981 43.483 63.6211 50.6978 65.4556 57.2127C68.1766 66.8745 80.5608 64.6971 88.8615 61.0223C97.1621 57.3475 98.1145 38.8414 98.1145 35.8479L95.2573 32.4456C95.2573 32.4456 95.0034 44.6132 90.1036 46.7562C90.1036 46.7562 85.1867 41.5638 77.4296 40.0663C69.674 38.5703 64.2981 43.483 64.2981 43.483Z" fill="#8F4D50"/>
<path d="M104.741 63.8192C104.741 63.8192 100.616 76.2494 95.0393 90.8669C83.6046 120.842 78.9171 152.972 81.2336 184.97L83.9144 221.999H129.371L127.556 180.912L138.533 77.7612L104.741 63.8192Z" fill="#757CBC"/>
<path d="M68.168 69.1279L62.4621 138.455L54.2518 221.999H38.6474C38.6474 221.999 36.7569 147.163 38.6087 128.294C40.4619 109.423 51.1665 75.5022 51.1665 75.5022L68.168 69.1279Z" fill="#757CBC"/>
<path d="M138.44 77.9564C138.44 77.9564 130.819 84.0209 123.199 95.6335C115.578 107.246 105.748 161.679 105.748 161.679L133.723 168.936C133.723 168.936 153.319 117.044 150.053 99.9882C146.787 82.9322 138.44 77.9564 138.44 77.9564Z" fill="#373A70"/>
<path d="M104.239 12.5782C104.239 12.5782 103.287 6.99851 95.121 2.64379C86.9567 -1.71092 80.8319 0.0576418 72.2588 2.64379C63.6856 5.22995 55.3849 3.73247 55.3849 3.73247C55.3849 3.73247 54.8399 8.22345 57.9711 10.2645C57.9711 10.2645 54.1615 12.1694 53.4801 15.2992L59.7397 17.6128C59.7397 17.6128 58.9536 25.9062 62.5453 29.3128C62.5453 29.3128 62.4607 23.9512 63.1391 20.3653C63.1391 20.3653 84.5068 21.695 93.2162 17.3402C93.2162 17.3402 92.2638 21.1513 92.6712 24.6885C93.0799 28.227 98.1145 32.9963 98.1145 32.9963C98.1145 32.9963 99.2032 28.3633 101.517 28.4996C103.83 28.6358 104.647 34.6229 102.878 38.9776C101.109 43.3323 98.9321 43.8759 98.9321 43.8759L99.612 50.408C99.612 50.408 110.226 37.9663 110.771 25.2034C111.315 12.4419 104.239 12.5782 104.239 12.5782Z" fill="#8F4D50"/>
<path d="M23.3428 154.224C23.3428 154.224 19.8573 170.071 23.3428 182.128C26.8283 194.186 75.882 188.952 75.882 188.952L36.6866 157.528L23.3428 154.224Z" fill="#E58A7F"/>
<path d="M132.68 168.667C132.68 168.667 124.137 190.949 119.184 195.473C114.231 199.996 96.4277 198.372 79.7504 192.441C63.0731 186.51 37.1614 169.764 37.1614 169.764L26.4783 168.02C26.4783 168.02 28.9181 159.297 39.7217 156.508C50.5253 153.718 101.108 172.154 101.108 172.154L107.157 161.709L132.68 168.667Z" fill="#FFA999"/>
<path d="M89.7164 168.159C89.7164 168.159 101.062 161.653 104.895 160.258C108.729 158.863 119.184 168.159 119.184 168.159C119.184 168.159 117.965 169.328 116.047 169.067C114.131 168.806 111.516 167.235 111.516 167.235C111.516 167.235 114.043 169.242 114.565 171.16C114.565 171.16 110.266 174.553 107.274 174.165C104.285 173.776 89.7164 168.159 89.7164 168.159Z" fill="#E58A7F"/>
<path d="M27.1582 462.923C27.1582 462.923 20.4124 469.134 12.6554 472.945C4.89834 476.754 0 478.524 0 481.79C0 485.056 9.11822 484.92 17.4189 484.92C25.7195 484.92 39.4636 481.79 39.4636 481.79C39.4636 481.79 45.9956 480.157 47.0843 479.613C48.173 479.069 47.0843 462.923 47.0843 462.923C47.0843 462.923 42.3222 465.733 37.5587 465.733C32.7952 465.733 31.8629 462.972 27.1582 462.923Z" fill="#373A70"/>
<path d="M22.9526 451.716L55.2501 451.171L54.4325 458.066H22.9526V451.716Z" fill="#7C6896"/>
<path d="M106.326 451.171L142.251 449.992V456.58L107.415 458.066L106.326 451.171Z" fill="#7C6896"/>
<path d="M116.602 461.493C116.602 461.493 117.031 475.395 117.757 482.29C117.757 482.29 120.66 485.011 122.837 487.551C125.015 490.091 124.832 492.631 129.006 496.26C133.179 499.889 141.163 500.252 145.699 499.889C150.235 499.526 153.501 497.167 154.046 494.083C154.59 490.999 138.064 469.363 136.167 461.493C136.167 461.493 133.361 461.381 130.458 461.493C127.555 461.605 121.568 465.416 121.568 465.416L116.602 461.493Z" fill="#373A70"/>
<path d="M75.5363 67.8527C75.5363 67.8527 75.3312 73.6919 82.6062 74.6142C89.8799 75.5365 96.2327 71.2335 96.2327 71.2335" stroke="#757CBC" stroke-width="0.5" stroke-miterlimit="10" stroke-linecap="round" stroke-linejoin="round"/>
<path d="M100.741 67.8527L98.5893 69.6973" stroke="#757CBC" stroke-width="0.5" stroke-miterlimit="10" stroke-linecap="round" stroke-linejoin="round"/>
<path d="M97.6455 98.6053C97.4217 99.7728 96.7232 100.619 96.0849 100.497C95.4452 100.375 95.1081 99.3296 95.3319 98.1635C95.5556 96.9959 96.2542 96.1496 96.8925 96.2716C97.5308 96.3935 97.8693 97.4377 97.6455 98.6053Z" fill="#373A70"/>
<path d="M92.1003 118.43C91.8779 119.597 91.178 120.444 90.5397 120.322C89.9014 120.2 89.5629 119.154 89.7867 117.986C90.0104 116.819 90.7089 115.973 91.3472 116.095C91.9855 116.216 92.3226 117.264 92.1003 118.43Z" fill="#373A70"/>
<path d="M87.0685 138.559C86.8448 139.727 86.1462 140.573 85.508 140.451C84.8682 140.329 84.5312 139.284 84.7549 138.116C84.9787 136.949 85.6772 136.102 86.3155 136.224C86.9538 136.346 87.2909 137.392 87.0685 138.559Z" fill="#373A70"/>
<path d="M85.5725 159.566C85.5065 160.752 84.927 161.686 84.2773 161.65C83.6275 161.614 83.1542 160.623 83.2187 159.437C83.2847 158.25 83.8642 157.317 84.514 157.353C85.1637 157.39 85.637 158.38 85.5725 159.566Z" fill="#373A70"/>
<path d="M87.8976 203.256C87.9822 204.441 87.5246 205.439 86.8763 205.487C86.228 205.533 85.6327 204.61 85.5481 203.424C85.4635 202.239 85.921 201.241 86.5708 201.194C87.2177 201.148 87.813 202.07 87.8976 203.256Z" fill="#373A70"/>
<path d="M123.28 199.712C123.28 199.712 116.519 204.629 114.879 204.834" stroke="#373A70" stroke-width="0.5" stroke-miterlimit="10" stroke-linecap="round" stroke-linejoin="round"/>
<path d="M65.087 72.6033C65.087 72.6033 61.1941 122.051 60.3737 128.403" stroke="#373A70" stroke-width="0.5" stroke-miterlimit="10" stroke-linecap="round" stroke-linejoin="round"/>
<path d="M60.3737 132.706V140.288" stroke="#373A70" stroke-width="0.5" stroke-miterlimit="10" stroke-linecap="round" stroke-linejoin="round"/>
<path d="M134.345 77.9564C134.345 77.9564 122.87 90.4942 116.928 101.969" stroke="#373A70" stroke-width="0.5" stroke-miterlimit="10" stroke-linecap="round" stroke-linejoin="round"/>
<path d="M40.1391 219.485H51.2038" stroke="#373A70" stroke-width="0.5" stroke-miterlimit="10" stroke-linecap="round" stroke-linejoin="round"/>
<path d="M65.906 250.734L72.4624 256.471L80.198 273.992" stroke="#7A629B" stroke-width="0.5" stroke-miterlimit="10"/>
<path d="M104.45 221.999C104.45 221.999 110.17 232.087 119.184 233.316" stroke="#7A629B" stroke-width="0.5" stroke-miterlimit="10"/>
<path d="M63.6526 224.71C63.6526 224.71 63.2424 236.39 65.906 240.693C68.5696 244.996 70.1072 245.919 70.1072 245.919V221.999" stroke="#7A629B" stroke-width="0.5" stroke-miterlimit="10"/>
<path d="M51.515 230.551C51.515 230.551 62.0935 229.321 66.8684 230.551C71.6434 231.78 88.5703 233.316 88.5703 233.316" stroke="#7A629B" stroke-width="0.5" stroke-miterlimit="10"/>
<path d="M119.079 221.999C119.079 221.999 119.796 232.497 123.28 267.741C126.764 302.986 135.33 408.924 135.33 408.924L138.648 450.111" stroke="#7A629B" stroke-width="0.5" stroke-miterlimit="10"/>
<path d="M47.5691 451.171C47.5691 451.171 57.0961 373.063 57.9152 371.834C58.7342 370.605 57.5049 367.921 57.9152 366.598C58.3254 365.276 59.9649 361.997 59.9649 360.768C59.9649 359.538 59.9649 355.03 59.9649 355.03L72.4624 256.471" stroke="#7A629B" stroke-width="0.5" stroke-miterlimit="10"/>
<path d="M99.9204 360.155C99.9204 360.155 105.248 362.614 110.78 363.434C116.312 364.255 119.079 362.615 119.079 362.615" stroke="#7A629B" stroke-width="0.5" stroke-miterlimit="10" stroke-linecap="round" stroke-linejoin="round"/>
<path d="M32.5055 367.532C32.5055 367.532 37.6276 369.785 43.9804 368.966" stroke="#7A629B" stroke-width="0.5" stroke-miterlimit="10" stroke-linecap="round" stroke-linejoin="round"/>
<path d="M110.986 157.705L131.068 163.853" stroke="#757CBC" stroke-width="0.5" stroke-miterlimit="10" stroke-linecap="round" stroke-linejoin="round"/>
</svg>
