<svg width="965" height="294" viewBox="0 0 965 294" fill="none" xmlns="http://www.w3.org/2000/svg">
<path d="M864.772 252.28L638.052 256.37C638.052 256.37 603.932 81.51 743.932 104.51C883.932 127.51 864.772 252.28 864.772 252.28Z" fill="#070707"/>
<path d="M225.433 248L52.4326 231C52.4326 231 2.43256 94 142.433 117C282.433 140 225.433 248 225.433 248Z" fill="#070707"/>
<path d="M838.172 256.12L910.772 248.86L957.352 241C957.352 241 960.982 233.74 959.772 224.06C958.562 214.38 954.932 205.91 954.932 205.91L960.982 187.76L959.772 180.5C959.772 180.5 963.402 174.45 963.402 161.14C963.402 147.83 960.982 149.04 954.932 144.2C948.882 139.36 952.512 140.57 922.262 129.68C892.012 118.79 877.492 113.95 838.772 104.27C800.052 94.5899 739.552 86.1199 720.192 84.9099C700.832 83.6999 687.522 83.6999 687.522 83.6999L519.332 11.0999C519.332 11.0999 451.572 -4.63012 357.192 5.04988C262.812 14.7299 180.532 40.1399 158.752 46.1899C136.972 52.2399 111.562 60.7099 95.8324 63.1299C80.1024 65.5499 48.6424 66.7599 38.9624 70.3899C29.2824 74.0199 25.6523 80.0699 25.6523 80.0699L66.7924 78.8599C66.7924 78.8599 54.6924 88.5399 40.1724 94.5899C25.6524 100.64 14.7624 107.9 13.5524 116.37C12.3424 124.84 12.3423 133.31 12.3423 133.31L9.92236 130.89L3.87238 141.78L1.45239 178.08C1.45239 178.08 7.5024 199.86 22.0224 213.17C36.5424 226.48 57.1124 234.95 57.1124 234.95C57.1124 234.95 47.4324 201.07 64.3724 164.77C81.3124 128.47 104.302 122.42 138.182 121.21C172.062 120 203.522 149.04 213.202 181.71C222.882 214.38 213.202 248.26 213.202 248.26H262.812C262.812 248.26 308.792 216.8 337.832 211.96C366.872 207.12 516.912 221.64 545.952 227.69C574.992 233.74 625.812 256.73 625.812 256.73H668.162C668.162 256.73 657.272 225.27 662.112 191.39C666.952 157.51 703.252 118.79 761.332 124.84C819.412 130.89 838.772 190.18 838.772 190.18C838.772 190.18 846.032 224.06 838.172 256.12Z" fill="#E8E8E8"/>
<path d="M76.4326 77.9998L84.4326 66.9998C84.4326 66.9998 132.313 65.3498 152.433 61.9998C176.433 57.9998 237.433 37.9998 237.433 37.9998C237.433 37.9998 302.433 15.9998 378.433 13.9998C454.433 11.9998 482.433 23.9998 482.433 23.9998C482.433 23.9998 491.143 26.6798 499.433 29.9998C506.553 32.8498 513.433 36.4598 513.433 35.9998C513.433 34.9998 609.433 83.9998 609.433 83.9998L601.433 89.9998L307.433 84.9998L184.433 81.9998C184.433 81.9998 152.433 74.9998 144.433 74.9998C136.433 74.9998 76.4326 77.9998 76.4326 77.9998Z" fill="#070707"/>
<path d="M603.433 86.7198C603.433 86.7198 511.473 35.8998 463.073 26.2198C414.673 16.5398 338.443 21.3798 294.883 31.0598C251.323 40.7398 233.173 50.4198 234.383 55.2598C235.593 60.0998 251.323 75.8298 261.003 78.2498C270.683 80.6698 509.053 83.0898 509.053 83.0898" fill="#2D2C2C"/>
<path d="M295.493 74.02L287.023 37.72C287.023 37.72 241.043 48.61 243.463 54.66C245.883 60.71 257.983 72.81 264.033 74.02C270.083 75.23 295.493 74.02 295.493 74.02Z" fill="#6F6F70"/>
<path d="M521.753 60.7098C521.753 60.7098 462.463 34.0898 450.363 31.6698C438.263 29.2498 326.943 28.0398 324.523 38.9298C322.103 49.8198 328.153 67.9698 334.203 72.8098C340.253 77.6498 391.073 81.2798 391.073 81.2798L520.433 83.9998L569.433 82.9998C569.433 82.9998 522.083 60.4098 521.753 60.7098Z" fill="#6F6F70"/>
<path d="M963.492 159.34C963.932 158.5 944.932 150.5 944.932 150.5L870.932 140.5L844.932 137.5L820.932 136.5H812.932C812.932 136.5 780.932 113.5 748.932 114.5C716.932 115.5 703.932 124.5 703.932 124.5H301.932L276.932 131.5H188.932C188.932 131.5 164.932 111.5 135.932 112.5C106.932 113.5 94.9325 121.5 94.9325 121.5C94.9325 121.5 76.9325 131.5 67.9325 143.5C58.9325 155.5 60.9325 152.5 60.9325 152.5C60.9325 152.5 56.9325 153.5 49.9325 151.5C42.9325 149.5 29.9325 141.5 29.9325 141.5L12.9325 132.5L9.9325 130.5L3.9325 141.5L0.932495 179.5C0.932495 179.5 7.40248 196.31 15.6625 206.4C23.9325 216.5 57.9325 235.5 57.9325 235.5C57.9325 235.5 52.9325 223.5 53.9325 210.5C54.9325 197.5 62.3825 130.18 115.152 123.34C167.932 116.5 183.932 136.5 191.932 144.5C199.932 152.5 212.932 176.5 214.932 187.5C216.932 198.5 217.412 207.98 217.412 207.98C217.412 207.98 216.573 229.08 215.753 234.79C214.933 240.5 212.932 247.5 212.932 247.5L622.732 255.59L668.932 256.5C668.932 256.5 654.362 212.29 666.642 173.89C678.922 135.49 741.932 115.5 774.932 126.5C807.932 137.5 828.932 169.5 832.932 176.5C836.932 183.5 840.272 197.44 840.602 205.47C840.932 213.5 841.932 226.5 840.932 234.5C839.932 242.5 837.932 256.5 837.932 256.5L957.932 241.5C957.932 241.5 960.192 223.95 958.562 217.72C956.932 211.49 954.932 205.5 954.932 205.5L960.932 187.5L959.932 180.5L963.492 159.34Z" fill="#D6D6D6"/>
<path d="M304.433 128C304.433 128 294.433 114 294.433 108C294.433 102 298.433 97 298.433 97L301.433 92L307.433 85L184.433 82L254.433 118L291.433 138L304.433 128Z" fill="#D6D6D6"/>
<path d="M617.432 82C617.432 82 550.432 45 534.432 38C518.432 31 479.432 17 479.432 17L396.342 2.73996C396.342 2.73996 495.432 1.99997 516.432 9.99997C537.432 18 684.002 82.06 684.002 82.06L617.432 82Z" fill="#2D2C2C"/>
<path d="M959.753 147.6L952.433 148L946.433 149L945.433 151L855.433 139C855.433 139 882.433 164 890.433 167C898.433 170 935.433 178 936.433 191C937.433 204 923.433 227 923.433 227C923.433 227 916.433 239 911.433 243C906.433 247 905.433 249 905.433 249L956.883 241.11C956.883 241.11 961.433 236 959.433 226C957.433 216 954.433 205 954.433 205L961.433 187L959.433 181C959.433 181 963.433 172 963.433 164C963.433 156 962.433 150 962.433 150L959.753 147.6Z" fill="#2D2C2C"/>
<path d="M84.4326 66.9999C84.4326 66.9999 52.2426 66.9098 43.8326 68.9598C35.4326 70.9998 28.6026 76.7899 28.6026 76.7899L25.4326 79.9999L77.4326 77.9999L84.4326 66.9999Z" fill="#363838"/>
<path d="M14.3926 112.62L6.64258 111.51L5.43256 121L6.39258 137.21L9.43256 131L12.4326 134L14.3926 112.62Z" fill="#363838"/>
<path d="M609.033 84.1899L632.933 95.4999H607.933L573.933 94.4999L568.933 88.4999H599.933L609.033 84.1899Z" fill="#070707"/>
<path d="M660.523 215.49C660.523 215.49 439.433 200 415.433 194C391.433 188 356.433 174 356.433 174C356.433 174 361.403 179.51 336.433 178C303.433 176 208.433 169 208.433 169C208.433 169 218.133 189.62 217.283 214.81C216.433 240 213.433 249 213.433 249L669.433 258C669.433 258 660.603 233.98 660.523 215.49Z" fill="#BCBCC1"/>
<path d="M622.433 256L262.823 248.26C262.823 248.26 320.943 211.6 344.693 211.3C368.433 211 528.433 223 551.433 229C574.433 235 622.433 256 622.433 256Z" fill="#262628"/>
<path d="M334.432 212C334.432 212 474.432 226 503.432 229C532.432 232 548.432 238 557.432 242C566.432 246 582.432 256 582.432 256L624.002 255.91C624.002 255.91 569.432 232 547.432 228C525.432 224 454.432 216 454.432 216L378.262 211.55C378.262 211.55 351.732 211.34 351.582 211.17C351.432 211 334.432 212 334.432 212Z" fill="#00668E"/>
<path d="M958.932 181.5L923.932 177.5C923.932 177.5 940.932 181.5 947.932 193.5C954.932 205.5 954.932 205.5 954.932 205.5L960.522 188.7L958.932 181.5Z" fill="#6A6A6D"/>
<path d="M941.112 150.53C941.432 151 946.432 174 933.432 173C920.432 172 890.432 166 885.432 161C880.432 156 873.432 142 873.432 142L940.862 150.02" fill="#6A6A6D"/>
<path d="M935.362 150.82C935.642 151.24 940.082 171.64 928.552 170.75C917.022 169.86 890.412 164.54 885.972 160.1C881.532 155.66 875.322 143.25 875.322 143.25L935.132 150.37" fill="#535354"/>
<path d="M67.4326 79L26.4326 80L13.4326 99C13.4326 99 6.43262 107 6.43262 110C6.43262 113 9.5426 117.38 14.9826 112.19C20.4326 107 19.3226 106.91 19.3226 106.91C19.3226 106.91 21.4326 103 31.4326 98C41.4326 93 48.3426 90.49 48.3426 90.49L57.6226 85.21L67.4326 79Z" fill="#EA1F1F"/>
<path d="M502.433 93C486.433 92.03 470.423 91.25 454.413 90.66C446.403 90.33 438.403 90.1 430.393 89.82L406.373 89.15L382.343 88.64C374.333 88.53 366.323 88.3599 358.313 88.2999C342.293 88.0999 326.263 88.1 310.233 88.29C326.233 89.26 342.243 90.05 358.253 90.64C366.263 90.98 374.263 91.2 382.273 91.48L406.293 92.15L430.323 92.65C438.333 92.76 446.343 92.9299 454.353 92.9899C470.373 93.1799 486.403 93.19 502.433 93Z" fill="white"/>
<path d="M328.433 81L310.433 26L295.433 28L309.433 84L328.433 81Z" fill="#070707"/>
<path opacity="0.3" d="M466.433 10C466.433 10 503.433 12 518.433 18C533.433 24 598.433 55 598.433 55" fill="#E2E2E2"/>
<path d="M323.322 8.34L313.642 3.5H293.072L291.862 8.34L287.022 14.39" fill="#272728"/>
<path d="M323.322 8.34L313.642 3.5H293.072L291.862 8.34L287.022 14.39" stroke="black" stroke-miterlimit="10" stroke-linecap="round"/>
<path d="M609.482 84.3L599.802 90.35L184.772 81.88C184.772 81.88 156.942 74.62 144.842 74.62C132.742 74.62 25.0524 80.67 25.0524 80.67C25.0524 80.67 29.8924 68.57 55.3024 67.36C80.7124 66.15 118.222 68.57 161.782 60.1C205.342 51.63 268.262 21.38 355.382 15.33C442.502 9.27997 465.492 18.96 492.112 27.43C518.732 35.9 609.482 84.3 609.482 84.3Z" stroke="#707070" stroke-miterlimit="10"/>
<path d="M610.082 84.9099L631.862 95.7999L573.782 94.5899" stroke="black" stroke-miterlimit="10"/>
<path d="M207.972 168.67L226.852 170.16L245.732 171.55L283.512 174.17L321.302 176.56L340.202 177.67C346.552 178.02 352.972 176.44 358.402 173.23C352.882 176.3 346.472 177.69 340.232 177.18L321.352 175.79L283.572 173.17L245.782 170.78L226.882 169.67L207.972 168.67Z" fill="#848487"/>
<path d="M338.443 213.77L400.893 219.09C421.703 220.91 442.503 222.81 463.283 224.92L478.873 226.47C484.063 227.01 489.263 227.54 494.443 228.15L502.223 229.04L509.993 230.04L513.873 230.54L517.743 231.12L521.613 231.71C522.903 231.9 524.193 232.1 525.463 232.38C535.713 234.27 545.633 237.7 555.263 241.66C564.883 245.68 574.273 250.34 583.123 255.89C574.363 250.2 565.033 245.39 555.453 241.21C545.813 237.17 535.893 233.68 525.583 231.73C524.303 231.44 523.013 231.24 521.723 231.04L517.853 230.43L513.983 229.82L510.103 229.3L502.333 228.26L494.553 227.33C489.363 226.69 484.173 226.13 478.983 225.57C473.793 224.99 468.593 224.47 463.393 223.94C442.593 221.94 421.783 220.15 400.953 218.44L369.713 215.96L338.443 213.77Z" fill="black"/>
<path d="M565.312 248.26L534.932 246.36L504.542 244.63L443.763 241.33L413.372 239.73C403.252 239.14 393.102 238.62 383.052 237.7C378.032 237.17 373.032 236.38 368.032 235.53C363.042 234.69 358.063 233.74 353.083 232.75C343.123 230.84 333.212 228.66 323.312 226.46C333.113 229.1 342.983 231.47 352.883 233.71C357.843 234.8 362.812 235.83 367.802 236.77C372.792 237.71 377.802 238.59 382.862 239.22C385.392 239.52 387.933 239.76 390.463 239.98L398.062 240.55L413.253 241.53L443.643 243.3C463.913 244.29 484.182 245.31 504.452 246.13L534.872 247.3C545.032 247.64 555.172 248.02 565.312 248.26Z" fill="#B5B5BC"/>
<path d="M904.513 249.61C904.513 249.61 921.053 234.95 928.313 219.22C935.573 203.49 942.833 187.76 928.313 180.5C913.793 173.24 895.643 170.82 887.173 164.77C878.703 158.72 854.503 139.36 855.713 139.36C856.923 139.36 945.253 151.46 945.253 150.25C945.253 149.04 956.453 145.92 960.533 148.69" stroke="black" stroke-miterlimit="10"/>
<path d="M954.562 206.77C954.022 203.8 952.992 200.92 951.712 198.17C950.432 195.42 948.792 192.83 946.882 190.45C944.982 188.06 942.693 185.98 940.173 184.28C937.693 182.49 934.812 181.37 931.952 180.49C932.632 180.82 933.312 181.14 934.002 181.45L935.022 181.92C935.352 182.09 935.673 182.3 935.993 182.49L937.932 183.61L939.743 184.92C942.093 186.72 944.292 188.75 946.122 191.09C948.002 193.39 949.622 195.89 951.042 198.52C951.742 199.84 952.402 201.18 952.972 202.56C953.582 203.92 954.093 205.34 954.562 206.77Z" fill="#E5E5E5"/>
<path d="M883.543 159.93C888.123 158.05 892.843 156.81 897.613 156.07C900.003 155.74 902.383 155.45 904.783 155.39C907.153 155.32 909.613 155.35 912.063 155.41L919.433 155.5C921.893 155.49 924.353 155.55 926.813 155.52C931.733 155.5 936.663 155.42 941.623 155.1C936.743 154.18 931.833 153.61 926.913 153.18C924.453 152.94 921.983 152.82 919.523 152.66C917.053 152.55 914.583 152.47 912.113 152.42C909.643 152.41 907.173 152.39 904.623 152.57C902.103 152.79 899.593 153.17 897.153 153.79C892.273 154.99 887.543 156.94 883.543 159.93Z" fill="#E4E4EA"/>
<g opacity="0.7">
<path d="M897.432 166.93C900.492 165.21 903.672 163.96 906.902 163.18C908.522 162.81 910.152 162.53 911.792 162.44C912.612 162.35 913.422 162.39 914.242 162.36L916.822 162.41C920.262 162.47 923.712 162.54 927.182 162.51C930.652 162.49 934.122 162.42 937.632 162.1C934.232 161.18 930.782 160.6 927.322 160.18C923.862 159.74 920.382 159.49 916.882 159.42L914.252 159.41C913.342 159.47 912.412 159.46 911.512 159.62C909.692 159.84 907.912 160.3 906.222 160.96C902.832 162.23 899.722 164.22 897.432 166.93Z" fill="#E4E4EA"/>
</g>
<path d="M952.593 177.5C948.539 177.5 945.253 171.129 945.253 163.27C945.253 155.411 948.539 149.04 952.593 149.04C956.646 149.04 959.933 155.411 959.933 163.27C959.933 171.129 956.646 177.5 952.593 177.5Z" fill="#CACACC" stroke="#A9A9AA" stroke-miterlimit="10"/>
<path d="M847.242 254.31C848.652 246.75 849.432 239.09 849.852 231.41C850.232 223.73 850.162 216.02 849.572 208.34C848.892 200.68 847.752 193.03 845.742 185.58L844.982 182.79L844.112 180.03C843.572 178.18 842.832 176.39 842.192 174.58C840.742 171.01 839.192 167.47 837.262 164.12C835.432 160.72 833.222 157.54 830.882 154.47L829.022 152.25L828.092 151.14L827.092 150.1L823.092 145.92C817.582 140.55 811.782 135.41 805.292 131.21C798.872 126.95 792.002 123.32 784.762 120.61C777.532 117.88 769.962 116.07 762.302 115.15C754.632 114.27 746.872 114.18 739.192 114.83C731.482 115.5 723.932 117.35 716.612 119.75C709.292 122.18 702.192 125.26 695.472 129.05C688.752 132.83 682.392 137.28 676.692 142.47C670.982 147.65 665.972 153.64 662.132 160.34C658.272 167.02 655.452 174.29 653.692 181.79C650.192 196.84 650.352 212.48 652.462 227.68C650.512 212.46 650.532 196.84 654.172 181.91C655.972 174.46 658.782 167.25 662.642 160.64C666.482 154.01 671.462 148.1 677.152 142.97C682.832 137.83 689.162 133.44 695.852 129.71C702.542 125.97 709.612 122.93 716.892 120.55C724.172 118.2 731.672 116.38 739.282 115.75C746.912 115.13 754.602 115.25 762.202 116.14C769.802 117.02 777.302 118.79 784.462 121.46C791.632 124.13 798.462 127.69 804.842 131.9C811.292 136.04 817.082 141.12 822.582 146.44L826.572 150.58L827.572 151.61L828.502 152.7L830.352 154.89C832.682 157.92 834.882 161.06 836.712 164.43C838.632 167.74 840.182 171.25 841.642 174.79C842.282 176.59 843.022 178.36 843.572 180.2L844.452 182.94L845.212 185.71C847.242 193.11 848.392 200.72 849.112 208.36C849.792 216.01 849.942 223.7 849.632 231.37C849.272 239.06 848.572 246.73 847.242 254.31Z" fill="white"/>
<path d="M855.712 139.36C855.712 139.36 826.672 135.73 798.842 136.94" stroke="#6A6A6D" stroke-miterlimit="10"/>
<path d="M610.072 83.35C616.432 83.6 622.792 83.78 629.152 83.85C635.512 83.95 641.862 83.97 648.212 84.02L686.342 84.05C680.022 83.24 673.662 82.77 667.302 82.48C660.942 82.16 654.582 82.07 648.222 82.02C641.862 82.01 635.502 82.08 629.142 82.3C622.772 82.48 616.412 82.83 610.072 83.35Z" fill="#A5A5AA"/>
<path d="M603.433 86.7198C603.433 86.7198 511.473 35.8998 463.073 26.2198C414.673 16.5398 338.443 21.3798 294.883 31.0598C251.323 40.7398 233.173 50.4198 234.383 55.2598C235.593 60.0998 251.323 75.8298 261.003 78.2498C270.683 80.6698 509.053 83.0898 509.053 83.0898" stroke="black" stroke-miterlimit="10" stroke-linecap="round"/>
<path d="M321.862 155.48L305.072 145.57L288.182 135.83C276.892 129.38 265.542 123.04 254.162 116.77C242.732 110.57 231.302 104.37 219.712 98.49C216.822 97 213.912 95.56 210.992 94.13C208.082 92.68 205.162 91.25 202.212 89.89L197.782 87.85C196.302 87.17 194.792 86.57 193.302 85.93L191.052 84.98C190.302 84.66 189.562 84.34 188.782 84.09L184.182 82.48L188.742 84.21C189.512 84.48 190.252 84.81 190.982 85.15L193.202 86.15C194.682 86.83 196.172 87.47 197.632 88.18L202.002 90.33C204.932 91.73 207.822 93.2 210.712 94.69C213.602 96.16 216.502 97.64 219.362 99.17C230.872 105.19 242.302 111.38 253.682 117.64C265.102 123.83 276.442 130.19 287.812 136.49L321.862 155.48Z" fill="white"/>
<path d="M224.103 190.18C222.893 185.48 221.303 180.88 219.523 176.36C217.743 171.84 215.733 167.41 213.493 163.1C211.243 158.79 208.753 154.61 206.033 150.57C203.303 146.54 200.283 142.71 197.043 139.07C190.553 131.81 182.863 125.57 174.253 120.96L170.983 119.32C169.893 118.76 168.743 118.36 167.623 117.87C165.393 116.86 163.043 116.2 160.733 115.4C156.033 114.1 151.243 113.03 146.363 112.65C145.143 112.55 143.933 112.39 142.713 112.35L139.053 112.29L137.223 112.26C136.613 112.26 136.003 112.31 135.393 112.33L131.743 112.49C130.523 112.51 129.313 112.69 128.103 112.79C126.893 112.92 125.673 113 124.463 113.16L120.843 113.7C120.243 113.79 119.633 113.87 119.033 113.98L117.243 114.35C107.683 116.22 98.3525 119.5 89.9125 124.39C72.9825 134.07 59.7025 150.01 53.4825 168.4C55.0125 163.79 57.1826 159.42 59.6326 155.25C62.1126 151.09 64.9026 147.11 68.0626 143.44C74.3326 136.07 81.8526 129.75 90.3026 125.06C91.3326 124.43 92.4226 123.9 93.5026 123.36C94.5826 122.81 95.6426 122.25 96.7626 121.79C97.8726 121.31 98.9626 120.79 100.083 120.34L103.473 119.05C104.593 118.59 105.763 118.29 106.913 117.91C108.063 117.54 109.213 117.16 110.383 116.88L113.893 115.97L117.443 115.24L119.223 114.88C119.813 114.78 120.413 114.7 121.013 114.61L124.603 114.08C125.803 113.93 127.003 113.85 128.213 113.73C129.413 113.64 130.613 113.46 131.823 113.44L135.443 113.29C136.043 113.27 136.653 113.23 137.253 113.23L139.063 113.27L142.683 113.34C143.883 113.38 145.083 113.55 146.283 113.64C151.093 114 155.823 115.04 160.473 116.31C162.753 117.09 165.083 117.73 167.283 118.73C168.393 119.21 169.533 119.61 170.603 120.15L173.843 121.76C182.383 126.27 189.973 132.46 196.493 139.58C199.743 143.16 202.773 146.94 205.523 150.92C208.263 154.91 210.783 159.05 213.073 163.32C215.373 167.58 217.453 171.97 219.313 176.45C221.143 180.93 222.813 185.49 224.103 190.18Z" fill="white"/>
<path d="M84.9126 66.9199L76.7726 77.8399" stroke="black" stroke-miterlimit="10" stroke-linecap="round"/>
<path d="M328.163 80.07L310.123 28" stroke="black" stroke-miterlimit="10" stroke-linecap="round"/>
<path d="M308.803 80.0699L297.153 31.0898" stroke="black" stroke-miterlimit="10" stroke-linecap="round"/>
<path d="M295.493 74.02L287.023 37.72C287.023 37.72 241.043 48.61 243.463 54.66C245.883 60.71 257.983 72.81 264.033 74.02C270.083 75.23 295.493 74.02 295.493 74.02Z" stroke="#5A5A5B" stroke-miterlimit="10" stroke-linecap="round"/>
<path d="M521.752 60.71C510.422 55.56 499.042 50.5 487.612 45.57C481.892 43.12 476.142 40.73 470.362 38.4C464.572 36.1 458.802 33.76 452.812 31.96L450.532 31.36C449.752 31.19 448.972 31.1 448.192 31.01C446.632 30.83 445.082 30.71 443.522 30.61C440.412 30.4 437.302 30.25 434.192 30.13C427.972 29.89 421.742 29.75 415.512 29.67C403.062 29.52 390.602 29.6 378.152 29.98C365.712 30.46 353.252 31.08 340.882 32.8C337.792 33.25 334.712 33.77 331.672 34.56C330.152 34.96 328.642 35.42 327.192 36.08C326.462 36.41 325.752 36.81 325.122 37.37C324.802 37.64 324.512 37.99 324.322 38.4C324.112 38.86 324.092 39.23 324.022 39.62C323.472 42.74 323.552 45.92 323.912 49.03C324.282 52.14 324.952 55.21 325.852 58.21C326.772 61.2 327.912 64.13 329.382 66.9C329.742 67.59 330.172 68.26 330.562 68.94C331.012 69.59 331.432 70.26 331.932 70.87C332.432 71.48 332.932 72.1 333.552 72.62C334.082 73.21 334.872 73.6 335.582 73.92C338.532 75.1 341.602 75.68 344.662 76.28C347.732 76.85 350.812 77.32 353.892 77.74C366.242 79.36 378.652 80.42 391.072 81.29C378.672 80.26 366.272 79.03 353.962 77.25C350.882 76.8 347.812 76.33 344.762 75.74C341.722 75.14 338.652 74.52 335.812 73.38C335.122 73.05 334.462 72.75 333.942 72.18C333.362 71.69 332.882 71.09 332.402 70.5C331.922 69.91 331.522 69.25 331.082 68.62C330.702 67.95 330.292 67.3 329.942 66.61C328.512 63.88 327.392 60.98 326.492 58.02C325.612 55.05 324.972 52.02 324.622 48.95C324.282 45.89 324.222 42.77 324.772 39.76C324.832 39.39 324.882 38.97 325.022 38.72C325.162 38.44 325.382 38.17 325.652 37.94C326.192 37.47 326.852 37.1 327.542 36.79C328.922 36.16 330.402 35.72 331.892 35.34C334.882 34.58 337.952 34.08 341.022 33.64C353.332 31.99 365.782 31.42 378.202 30.99C390.632 30.56 403.082 30.42 415.522 30.51C421.742 30.56 427.962 30.67 434.182 30.89C437.292 31 440.392 31.13 443.492 31.33C445.042 31.43 446.592 31.54 448.132 31.71C448.902 31.8 449.662 31.89 450.412 32.04L452.652 32.61C458.592 34.37 464.382 36.68 470.172 38.95C475.952 41.24 481.702 43.62 487.442 46.03C498.922 50.79 510.362 55.71 521.752 60.71Z" fill="#5A5A5B"/>
<path d="M13.5626 133.31C17.5526 135.67 21.6026 137.91 25.6826 140.11C29.7626 142.31 33.8925 144.4 38.0325 146.49C40.1225 147.5 42.2126 148.49 44.3226 149.46C46.4426 150.41 48.5426 151.39 50.7426 152.17C55.1526 153.97 60.2426 153.47 64.3926 151.46C62.2326 152.3 59.9425 152.73 57.6525 152.75C56.5125 152.77 55.3726 152.67 54.2526 152.48C53.1226 152.3 52.0926 151.89 51.0226 151.45C46.7726 149.7 42.6225 147.64 38.4825 145.59C34.3125 143.58 30.1926 141.48 26.0526 139.43L19.8326 136.35L13.5626 133.31Z" fill="white"/>
<path d="M69.2227 147.83C69.2227 147.83 59.5427 157.51 51.0727 185.34" stroke="#E00E0E" stroke-width="3" stroke-miterlimit="10" stroke-linecap="round"/>
<path d="M830.303 159.93C830.303 159.93 841.193 170.82 846.033 204.7" stroke="#E00E0E" stroke-width="3" stroke-miterlimit="10" stroke-linecap="round"/>
<path d="M698.933 124.5L649.323 124.26L599.713 124.17L500.493 124L401.273 124.17L351.663 124.26L302.053 124.5L351.663 124.74L401.273 124.83L500.493 125L599.713 124.83L649.323 124.74L698.933 124.5Z" fill="white"/>
<path opacity="0.1" d="M497.933 87.5L401.933 13.5L380.943 14.06L470.933 87.5H497.933Z" fill="white"/>
<path opacity="0.2" d="M349.543 15.8499L418.933 86.4998L367.413 86.0598L309.203 20.6999C309.203 20.6999 333.143 17.1999 349.543 15.8499Z" fill="white"/>
<path opacity="0.7" d="M51.9326 80.5C51.9326 80.5 28.0426 99.84 10.9826 103.17" stroke="#E5E5E5" stroke-width="3" stroke-miterlimit="10" stroke-linecap="round"/>
<path opacity="0.7" d="M43.6626 80.0198C43.6626 80.0198 25.8826 95.8998 15.4026 96.6998" stroke="#E5E5E5" stroke-width="3" stroke-miterlimit="10" stroke-linecap="round"/>
<path d="M294.133 110.32C290.723 109.55 287.253 108.95 283.753 108.67C282.003 108.56 280.233 108.5 278.473 108.71C277.593 108.8 276.713 108.98 275.863 109.31C275.033 109.63 274.163 110.16 273.733 111.07C273.303 111.97 273.463 112.99 273.753 113.85C273.923 114.27 274.093 114.7 274.333 115.08L274.663 115.67L275.053 116.21C275.593 116.91 276.063 117.67 276.653 118.33L278.393 120.32C280.803 122.88 283.323 125.33 285.933 127.68C291.163 132.35 296.573 136.82 302.083 141.14C304.843 143.3 307.623 145.43 310.423 147.54C313.233 149.63 316.063 151.69 318.913 153.73C316.133 151.6 313.383 149.43 310.643 147.25C307.893 145.08 305.153 142.9 302.443 140.69C297.013 136.27 291.613 131.82 286.443 127.12C283.833 124.8 281.313 122.38 278.903 119.86L277.173 117.91C276.583 117.26 276.123 116.54 275.593 115.85L275.203 115.33L274.883 114.78C274.653 114.42 274.503 114.03 274.333 113.64C274.053 112.87 273.923 112.02 274.243 111.32C274.553 110.61 275.273 110.12 276.043 109.81C276.823 109.49 277.663 109.3 278.523 109.2C280.233 108.96 281.983 108.98 283.723 109.05C287.223 109.19 290.693 109.67 294.133 110.32Z" fill="white"/>
<path d="M279.243 131.77C271.813 131.56 264.373 131.47 256.943 131.39L234.643 131.27L212.343 131.38L201.193 131.52L190.043 131.77L201.193 132.02L212.343 132.16L234.643 132.27L256.943 132.15C264.373 132.07 271.813 131.97 279.243 131.77Z" fill="white"/>
<path d="M750.862 293C708.093 293 673.422 257.245 673.422 213.14C673.422 169.034 708.093 133.28 750.862 133.28C793.631 133.28 828.302 169.034 828.302 213.14C828.302 257.245 793.631 293 750.862 293Z" fill="#303030" stroke="black" stroke-miterlimit="10" stroke-linecap="round"/>
<path d="M749.052 274.85C714.639 274.85 686.742 246.953 686.742 212.54C686.742 178.127 714.639 150.23 749.052 150.23C783.465 150.23 811.362 178.127 811.362 212.54C811.362 246.953 783.465 274.85 749.052 274.85Z" fill="#111111" stroke="#494C4C" stroke-width="2" stroke-miterlimit="10" stroke-linecap="round"/>
<path d="M747.232 265.17C718.166 265.17 694.602 241.606 694.602 212.54C694.602 183.473 718.166 159.91 747.232 159.91C776.299 159.91 799.862 183.473 799.862 212.54C799.862 241.606 776.299 265.17 747.232 265.17Z" fill="#515151" stroke="black" stroke-miterlimit="10" stroke-linecap="round"/>
<path d="M750.862 251.26C728.81 251.26 710.932 233.383 710.932 211.33C710.932 189.277 728.81 171.4 750.862 171.4C772.915 171.4 790.792 189.277 790.792 211.33C790.792 233.383 772.915 251.26 750.862 251.26Z" fill="#3C3F3F" stroke="black" stroke-miterlimit="10" stroke-linecap="round"/>
<path d="M749.652 229.48C738.96 229.48 730.292 220.812 730.292 210.12C730.292 199.428 738.96 190.76 749.652 190.76C760.344 190.76 769.012 199.428 769.012 210.12C769.012 220.812 760.344 229.48 749.652 229.48Z" fill="#1B1E1E"/>
<path d="M749.652 229.48C754.732 229.52 759.782 227.45 763.382 223.85C767.022 220.29 769.172 215.25 769.202 210.12C769.262 205 767.212 199.87 763.572 196.2C759.952 192.53 754.832 190.38 749.652 190.38C744.482 190.38 739.362 192.52 735.732 196.2C732.092 199.86 730.042 204.99 730.102 210.12C730.132 215.25 732.282 220.29 735.922 223.85C739.532 227.44 744.582 229.51 749.652 229.48ZM749.652 229.48C744.572 229.48 739.552 227.38 736.002 223.77C732.432 220.18 730.422 215.14 730.482 210.12C730.512 205.09 732.622 200.15 736.192 196.66C739.722 193.13 744.672 191.11 749.652 191.14C754.632 191.11 759.582 193.13 763.112 196.66C766.682 200.15 768.792 205.09 768.822 210.12C768.882 215.15 766.872 220.18 763.302 223.77C759.752 227.37 754.732 229.47 749.652 229.48Z" fill="#8E8E8E"/>
<path d="M749.442 218.8C746.101 218.8 743.392 216.091 743.392 212.75C743.392 209.408 746.101 206.7 749.442 206.7C752.784 206.7 755.492 209.408 755.492 212.75C755.492 216.091 752.784 218.8 749.442 218.8Z" fill="#00668E" stroke="#505151" stroke-miterlimit="10"/>
<path d="M781.922 160.03C781.732 159.91 757.252 197.1 752.322 204.58C752.172 204.8 751.832 204.64 751.912 204.38L766.942 153.39" stroke="#9CA0A0" stroke-width="2" stroke-miterlimit="10"/>
<path d="M807.252 231.1C807.322 230.89 765.142 216.62 756.662 213.75C756.412 213.66 756.482 213.29 756.752 213.3L809.882 214.93" stroke="#9CA0A0" stroke-width="2" stroke-miterlimit="10"/>
<path d="M748.392 274.48C748.612 274.48 749.922 229.98 750.182 221.02C750.192 220.75 750.572 220.71 750.642 220.97L764.632 272.26" stroke="#9CA0A0" stroke-width="2" stroke-miterlimit="10"/>
<path d="M708.923 166C708.753 166.14 736.173 201.22 741.693 208.27C741.863 208.48 741.593 208.75 741.373 208.6L697.853 178.08" stroke="#9CA0A0" stroke-width="2" stroke-miterlimit="10"/>
<path d="M692.212 238.37C692.312 238.56 732.492 219.39 740.572 215.53C740.812 215.41 741.022 215.73 740.822 215.92L701.602 251.8" stroke="#9CA0A0" stroke-width="2" stroke-miterlimit="10"/>
<path d="M803.502 182.89L768.412 202.25" stroke="#9CA0A0" stroke-width="2" stroke-miterlimit="10"/>
<path d="M733.832 152.51L744.212 191.36" stroke="#9CA0A0" stroke-width="2" stroke-miterlimit="10"/>
<path d="M729.922 211.83L687.292 207.5" stroke="#9CA0A0" stroke-width="2" stroke-miterlimit="10"/>
<path d="M741.792 228.87L723.642 268.8" stroke="#9CA0A0" stroke-width="2" stroke-miterlimit="10"/>
<path d="M762.362 226.45L794.182 254.87" stroke="#9CA0A0" stroke-width="2" stroke-miterlimit="10"/>
<path d="M749.052 274.85C714.639 274.85 686.742 246.953 686.742 212.54C686.742 178.127 714.639 150.23 749.052 150.23C783.465 150.23 811.362 178.127 811.362 212.54C811.362 246.953 783.465 274.85 749.052 274.85Z" stroke="#494C4C" stroke-width="2" stroke-miterlimit="10" stroke-linecap="round"/>
<path d="M817.932 173.5C816.172 174.54 814.612 175.81 813.102 177.13C811.612 178.47 810.172 179.87 808.932 181.5C810.692 180.46 812.252 179.2 813.762 177.87C815.252 176.53 816.692 175.13 817.932 173.5Z" fill="#1B1E1E"/>
<path d="M717.932 272.5C716.172 273.54 714.612 274.81 713.102 276.13C711.612 277.47 710.172 278.87 708.932 280.5C710.692 279.46 712.252 278.2 713.762 276.87C715.252 275.53 716.692 274.13 717.932 272.5Z" fill="#1B1E1E"/>
<path d="M709.932 266.5C708.172 267.54 706.612 268.81 705.102 270.13C703.612 271.47 702.172 272.87 700.932 274.5C702.692 273.46 704.252 272.2 705.762 270.87C707.252 269.53 708.692 268.13 709.932 266.5Z" fill="#1B1E1E"/>
<path d="M702.932 258.5C701.172 259.54 699.612 260.81 698.102 262.13C696.612 263.47 695.172 264.87 693.932 266.5C695.692 265.46 697.252 264.2 698.762 262.87C700.252 261.53 701.692 260.13 702.932 258.5Z" fill="#1B1E1E"/>
<path d="M695.932 250.5C694.172 251.54 692.612 252.81 691.102 254.13C689.612 255.47 688.172 256.87 686.932 258.5C688.692 257.46 690.252 256.2 691.762 254.87C693.252 253.53 694.692 252.13 695.932 250.5Z" fill="#1B1E1E"/>
<path d="M690.932 242.5C689.172 243.54 687.612 244.81 686.102 246.13C684.612 247.47 683.172 248.87 681.932 250.5C683.692 249.46 685.252 248.2 686.762 246.87C688.252 245.53 689.692 244.13 690.932 242.5Z" fill="#1B1E1E"/>
<path d="M810.772 163.15C809.192 164.09 807.832 165.25 806.512 166.46C805.212 167.7 803.972 168.99 802.932 170.5C804.512 169.56 805.882 168.4 807.192 167.19C808.492 165.95 809.732 164.66 810.772 163.15Z" fill="#1B1E1E"/>
<path d="M802.772 155.15C801.192 156.09 799.832 157.25 798.512 158.46C797.212 159.7 795.972 160.99 794.932 162.5C796.512 161.56 797.882 160.4 799.192 159.19C800.492 157.95 801.732 156.66 802.772 155.15Z" fill="#1B1E1E"/>
<path d="M822.772 184.15C821.192 185.09 819.832 186.25 818.512 187.46C817.212 188.7 815.972 189.99 814.932 191.5C816.512 190.56 817.882 189.4 819.192 188.19C820.492 186.95 821.732 185.66 822.772 184.15Z" fill="#1B1E1E"/>
<path d="M750.862 293C708.093 293 673.422 257.245 673.422 213.14C673.422 169.034 708.093 133.28 750.862 133.28C793.631 133.28 828.302 169.034 828.302 213.14C828.302 257.245 793.631 293 750.862 293Z" stroke="black" stroke-miterlimit="10" stroke-linecap="round"/>
<path d="M698.452 163.12C691.852 169.7 686.472 177.5 682.742 186.05C679.002 194.59 676.912 203.85 676.652 213.18C676.392 222.51 677.962 231.9 681.362 240.6C684.752 249.31 689.972 257.3 696.572 263.92C703.172 270.55 711.142 275.81 719.852 279.24C728.562 282.69 737.972 284.3 747.322 284.08C756.682 283.86 766.002 281.81 774.602 278.09C783.212 274.38 791.082 269 797.732 262.39C804.342 255.74 809.722 247.86 813.432 239.26C817.152 230.66 819.212 221.34 819.422 211.98C819.642 202.62 818.022 193.21 814.582 184.5C811.152 175.79 805.892 167.82 799.262 161.22C792.632 154.62 784.642 149.4 775.942 146.01C767.232 142.61 757.842 141.04 748.522 141.3C739.192 141.56 729.932 143.65 721.392 147.39C712.832 151.14 705.032 156.52 698.452 163.12ZM698.452 163.12C705.062 156.55 712.882 151.21 721.432 147.53C729.972 143.84 739.222 141.79 748.522 141.58C757.812 141.36 767.162 142.97 775.802 146.39C784.452 149.8 792.362 155.02 798.912 161.6C805.462 168.18 810.642 176.11 814.002 184.75C817.382 193.39 818.942 202.72 818.672 211.98C818.412 221.24 816.342 230.45 812.622 238.93C808.922 247.42 803.572 255.17 797.022 261.71C790.482 268.26 782.732 273.61 774.242 277.31C765.762 281.02 756.562 283.1 747.292 283.36C738.032 283.62 728.702 282.06 720.062 278.69C711.422 275.33 703.492 270.15 696.912 263.6C690.332 257.05 685.112 249.14 681.702 240.49C678.282 231.85 676.672 222.5 676.892 213.21C677.102 203.91 679.152 194.66 682.842 186.12C686.542 177.55 691.882 169.73 698.452 163.12Z" fill="#757777"/>
<path d="M816.932 243.5C815.282 248.34 812.852 252.86 810.022 257.08C807.172 261.28 803.962 265.25 800.272 268.74C799.392 269.65 798.402 270.45 797.472 271.31L796.052 272.58C795.562 272.98 795.052 273.36 794.552 273.75L791.532 276.08C790.462 276.77 789.412 277.48 788.362 278.19L786.782 279.26C786.242 279.6 785.682 279.89 785.132 280.21L781.812 282.09C779.582 283.32 777.222 284.32 774.952 285.49L778.512 284.05L780.292 283.32C780.892 283.08 781.482 282.84 782.042 282.53L785.452 280.76C786.022 280.46 786.602 280.18 787.152 279.86L788.782 278.84C789.872 278.16 790.962 277.48 792.042 276.78L795.122 274.46C795.632 274.07 796.152 273.69 796.662 273.29L798.112 272.02C799.062 271.16 800.082 270.36 800.982 269.44L803.662 266.66C804.532 265.72 805.332 264.7 806.172 263.73C807.032 262.77 807.742 261.69 808.522 260.67C809.312 259.66 809.992 258.56 810.672 257.47C812.062 255.31 813.252 253.02 814.362 250.71C815.372 248.38 816.342 245.99 816.932 243.5Z" fill="#FDFFFF"/>
<path d="M696.932 172.5C693.512 175.76 690.902 179.8 688.742 184C686.592 188.22 685.062 192.74 683.882 197.32C683.432 199.65 682.892 201.96 682.672 204.32C682.542 205.5 682.332 206.66 682.272 207.85C682.202 209.03 682.142 210.21 682.102 211.39C682.082 211.98 682.032 212.57 682.042 213.16L682.092 214.93L682.192 218.47C682.382 220.82 682.662 223.17 682.942 225.5C682.892 223.14 682.712 220.8 682.682 218.45L682.722 214.93L682.742 213.17C682.752 212.58 682.832 212 682.862 211.42C682.962 210.25 683.052 209.09 683.132 207.92C683.202 206.75 683.432 205.6 683.572 204.44C683.822 202.11 684.392 199.84 684.862 197.55C685.942 193 687.462 188.57 689.442 184.33L690.182 182.74C690.442 182.22 690.732 181.71 691.012 181.19C691.542 180.15 692.162 179.15 692.782 178.16C694.002 176.18 695.362 174.26 696.932 172.5Z" fill="#FDFFFF"/>
<path d="M134.863 286C93.9659 286 60.8126 251.812 60.8126 209.64C60.8126 167.467 93.9659 133.28 134.863 133.28C175.759 133.28 208.913 167.467 208.913 209.64C208.913 251.812 175.759 286 134.863 286Z" fill="#303030" stroke="black" stroke-miterlimit="10" stroke-linecap="round"/>
<path d="M133.133 268.64C100.228 268.64 73.5529 241.965 73.5529 209.06C73.5529 176.155 100.228 149.48 133.133 149.48C166.038 149.48 192.713 176.155 192.713 209.06C192.713 241.965 166.038 268.64 133.133 268.64Z" fill="#111111" stroke="#494C4C" stroke-width="2" stroke-miterlimit="10" stroke-linecap="round"/>
<path d="M131.393 259.39C103.596 259.39 81.0627 236.856 81.0627 209.06C81.0627 181.263 103.596 158.73 131.393 158.73C159.189 158.73 181.723 181.263 181.723 209.06C181.723 236.856 159.189 259.39 131.393 259.39Z" fill="#515151" stroke="black" stroke-miterlimit="10" stroke-linecap="round"/>
<path d="M134.862 246.08C113.776 246.08 96.6825 228.986 96.6825 207.9C96.6825 186.813 113.776 169.72 134.862 169.72C155.949 169.72 173.042 186.813 173.042 207.9C173.042 228.986 155.949 246.08 134.862 246.08Z" fill="#3C3F3F" stroke="black" stroke-miterlimit="10" stroke-linecap="round"/>
<path d="M133.713 225.26C123.49 225.26 115.203 216.973 115.203 206.75C115.203 196.527 123.49 188.24 133.713 188.24C143.935 188.24 152.223 196.527 152.223 206.75C152.223 216.973 143.935 225.26 133.713 225.26Z" fill="#1B1E1E"/>
<path d="M133.713 225.26C138.563 225.29 143.393 223.32 146.843 219.88C150.323 216.48 152.383 211.66 152.413 206.75C152.473 201.85 150.513 196.94 147.033 193.43C143.573 189.91 138.673 187.86 133.713 187.86C128.763 187.86 123.863 189.91 120.393 193.43C116.913 196.93 114.953 201.85 115.013 206.75C115.043 211.66 117.103 216.47 120.583 219.88C124.023 223.32 128.853 225.29 133.713 225.26ZM133.713 225.26C128.863 225.26 124.063 223.25 120.663 219.8C117.253 216.36 115.333 211.55 115.393 206.75C115.423 201.94 117.443 197.22 120.853 193.89C124.233 190.52 128.963 188.58 133.713 188.62C138.473 188.59 143.203 190.52 146.573 193.89C149.983 197.23 152.003 201.94 152.033 206.75C152.093 211.55 150.173 216.37 146.763 219.8C143.363 223.25 138.563 225.26 133.713 225.26Z" fill="#8E8E8E"/>
<path d="M133.513 215.04C130.32 215.04 127.732 212.452 127.732 209.26C127.732 206.068 130.32 203.48 133.513 203.48C136.705 203.48 139.292 206.068 139.292 209.26C139.292 212.452 136.705 215.04 133.513 215.04Z" fill="#00668E" stroke="#505151" stroke-miterlimit="10"/>
<path d="M164.562 158.86C164.382 158.75 140.973 194.3 136.263 201.46C136.123 201.67 135.792 201.51 135.862 201.27L150.232 152.51" stroke="#9CA0A0" stroke-width="2" stroke-miterlimit="10"/>
<path d="M188.782 226.81C188.842 226.61 148.522 212.96 140.412 210.22C140.172 210.14 140.243 209.78 140.503 209.79L191.312 211.35" stroke="#9CA0A0" stroke-width="2" stroke-miterlimit="10"/>
<path d="M132.502 268.29C132.712 268.29 133.962 225.74 134.212 217.18C134.222 216.92 134.582 216.89 134.652 217.14L148.032 266.18" stroke="#9CA0A0" stroke-width="2" stroke-miterlimit="10"/>
<path d="M94.7625 164.57C94.6025 164.7 120.812 198.24 126.092 204.99C126.252 205.19 125.992 205.45 125.782 205.3L84.1625 176.11" stroke="#9CA0A0" stroke-width="2" stroke-miterlimit="10"/>
<path d="M78.7823 233.76C78.8723 233.95 117.302 215.61 125.032 211.92C125.262 211.81 125.462 212.12 125.272 212.29L87.7724 246.6" stroke="#9CA0A0" stroke-width="2" stroke-miterlimit="10"/>
<path d="M185.192 180.72L151.642 199.23" stroke="#9CA0A0" stroke-width="2" stroke-miterlimit="10"/>
<path d="M118.582 151.67L128.502 188.82" stroke="#9CA0A0" stroke-width="2" stroke-miterlimit="10"/>
<path d="M114.842 208.38L74.0723 204.25" stroke="#9CA0A0" stroke-width="2" stroke-miterlimit="10"/>
<path d="M126.192 224.68L108.832 262.86" stroke="#9CA0A0" stroke-width="2" stroke-miterlimit="10"/>
<path d="M145.852 222.37L176.282 249.54" stroke="#9CA0A0" stroke-width="2" stroke-miterlimit="10"/>
<path d="M133.133 268.64C100.228 268.64 73.5529 241.965 73.5529 209.06C73.5529 176.155 100.228 149.48 133.133 149.48C166.038 149.48 192.713 176.155 192.713 209.06C192.713 241.965 166.038 268.64 133.133 268.64Z" stroke="#494C4C" stroke-width="2" stroke-miterlimit="10" stroke-linecap="round"/>
<path d="M198.993 171.74C197.293 172.72 195.803 173.93 194.363 175.19C192.943 176.48 191.563 177.82 190.393 179.39C192.093 178.41 193.583 177.2 195.023 175.94C196.443 174.65 197.823 173.31 198.993 171.74Z" fill="#1B1E1E"/>
<path d="M103.373 266.4C101.673 267.38 100.183 268.59 98.7426 269.85C97.3226 271.14 95.9426 272.48 94.7726 274.05C96.4726 273.07 97.9625 271.86 99.4025 270.6C100.833 269.31 102.203 267.97 103.373 266.4Z" fill="#1B1E1E"/>
<path d="M95.7227 260.66C94.0227 261.64 92.5327 262.85 91.0927 264.11C89.6727 265.4 88.2927 266.74 87.1227 268.31C88.8227 267.33 90.3127 266.12 91.7527 264.86C93.1827 263.57 94.5527 262.23 95.7227 260.66Z" fill="#1B1E1E"/>
<path d="M89.0327 253.01C87.3327 253.99 85.8427 255.2 84.4027 256.46C82.9827 257.75 81.6027 259.09 80.4327 260.66C82.1327 259.68 83.6227 258.47 85.0627 257.21C86.4827 255.92 87.8627 254.58 89.0327 253.01Z" fill="#1B1E1E"/>
<path d="M82.3428 245.36C80.6428 246.34 79.1528 247.55 77.7128 248.81C76.2928 250.1 74.9128 251.44 73.7428 253.01C75.4428 252.03 76.9328 250.82 78.3728 249.56C79.7928 248.27 81.1728 246.93 82.3428 245.36Z" fill="#1B1E1E"/>
<path d="M77.5625 237.71C75.8625 238.69 74.3725 239.9 72.9325 241.16C71.5125 242.45 70.1325 243.79 68.9625 245.36C70.6625 244.38 72.1525 243.17 73.5925 241.91C75.0125 240.62 76.3825 239.28 77.5625 237.71Z" fill="#1B1E1E"/>
<path d="M192.143 161.84C190.623 162.72 189.313 163.83 188.053 164.99C186.813 166.17 185.623 167.41 184.643 168.87C186.163 167.99 187.473 166.88 188.733 165.72C189.983 164.54 191.173 163.3 192.143 161.84Z" fill="#1B1E1E"/>
<path d="M184.502 154.19C182.982 155.07 181.672 156.18 180.412 157.34C179.172 158.52 177.982 159.76 177.002 161.22C178.522 160.34 179.832 159.23 181.092 158.07C182.332 156.89 183.522 155.65 184.502 154.19Z" fill="#1B1E1E"/>
<path d="M203.623 181.92C202.103 182.8 200.793 183.91 199.533 185.07C198.293 186.25 197.103 187.49 196.123 188.95C197.643 188.07 198.953 186.96 200.213 185.8C201.453 184.61 202.643 183.38 203.623 181.92Z" fill="#1B1E1E"/>
<path d="M134.863 286C93.9659 286 60.8126 251.812 60.8126 209.64C60.8126 167.467 93.9659 133.28 134.863 133.28C175.759 133.28 208.913 167.467 208.913 209.64C208.913 251.812 175.759 286 134.863 286Z" stroke="black" stroke-miterlimit="10" stroke-linecap="round"/>
<path d="M84.7529 161.81C78.4429 168.1 73.3028 175.56 69.7328 183.74C66.1528 191.91 64.1528 200.76 63.9128 209.69C63.6628 218.61 65.1628 227.59 68.4128 235.91C71.6528 244.24 76.6429 251.88 82.9529 258.22C89.2629 264.56 96.8829 269.59 105.213 272.87C113.543 276.17 122.543 277.72 131.493 277.5C140.443 277.29 149.353 275.33 157.583 271.77C165.813 268.22 173.353 263.08 179.713 256.76C186.043 250.4 191.183 242.86 194.723 234.63C198.283 226.4 200.243 217.5 200.453 208.54C200.663 199.59 199.113 190.59 195.823 182.26C192.543 173.93 187.503 166.31 181.163 160C174.823 153.69 167.183 148.7 158.853 145.46C150.523 142.21 141.543 140.71 132.633 140.96C123.713 141.21 114.853 143.21 106.683 146.78C98.5029 150.36 91.0429 155.51 84.7529 161.81ZM84.7529 161.81C91.0729 155.53 98.5528 150.43 106.723 146.9C114.893 143.37 123.733 141.42 132.623 141.21C141.513 141 150.443 142.54 158.703 145.81C166.973 149.07 174.533 154.06 180.793 160.35C187.053 166.64 192.003 174.22 195.223 182.48C198.453 190.74 199.943 199.66 199.683 208.51C199.433 217.37 197.453 226.16 193.903 234.27C190.363 242.38 185.253 249.79 178.993 256.04C172.743 262.3 165.333 267.41 157.223 270.96C149.113 274.51 140.323 276.5 131.463 276.74C122.613 276.99 113.693 275.5 105.433 272.27C97.1729 269.06 89.5828 264.11 83.2928 257.84C77.0028 251.58 72.0129 244.02 68.7529 235.75C65.4829 227.49 63.9428 218.55 64.1528 209.67C64.3528 200.78 66.3128 191.94 69.8428 183.77C73.3628 175.61 78.4729 168.13 84.7529 161.81Z" fill="#757777"/>
<path d="M198.033 238.67C196.443 243.3 194.113 247.61 191.413 251.65C188.683 255.67 185.613 259.46 182.093 262.8C181.253 263.67 180.303 264.44 179.413 265.26L178.063 266.48C177.593 266.86 177.103 267.22 176.623 267.6L173.733 269.82C172.713 270.48 171.703 271.16 170.703 271.84L169.193 272.86C168.683 273.19 168.143 273.47 167.613 273.77L164.433 275.57C162.303 276.75 160.053 277.7 157.873 278.83L161.273 277.46L162.973 276.76C163.543 276.53 164.113 276.3 164.653 276.01L167.923 274.32C168.463 274.03 169.023 273.77 169.553 273.46L171.113 272.49C172.163 271.84 173.203 271.19 174.233 270.53L177.183 268.31C177.673 267.94 178.173 267.58 178.653 267.19L180.043 265.97C180.953 265.15 181.923 264.38 182.793 263.51L185.363 260.85C186.193 259.95 186.963 258.98 187.763 258.05C188.583 257.13 189.263 256.1 190.013 255.12C190.773 254.15 191.423 253.1 192.073 252.06C193.403 249.99 194.543 247.8 195.593 245.59C196.553 243.34 197.473 241.05 198.033 238.67Z" fill="#FDFFFF"/>
<path d="M83.2925 170.78C80.0125 173.89 77.5125 177.75 75.4525 181.77C73.3925 185.81 71.9225 190.13 70.7925 194.51C70.3625 196.74 69.8525 198.95 69.6325 201.2C69.5125 202.32 69.3025 203.44 69.2525 204.57C69.1825 205.7 69.1325 206.83 69.0925 207.96C69.0725 208.52 69.0225 209.09 69.0425 209.65L69.0925 211.34L69.1925 214.72C69.3825 216.97 69.6525 219.21 69.9225 221.44C69.8825 219.18 69.7025 216.94 69.6825 214.7L69.7325 211.34L69.7525 209.66C69.7625 209.1 69.8325 208.54 69.8725 207.98C69.9725 206.86 70.0625 205.75 70.1325 204.63C70.2025 203.51 70.4225 202.41 70.5525 201.3C70.7925 199.07 71.3425 196.9 71.7825 194.72C72.8125 190.38 74.2725 186.13 76.1525 182.08L76.8625 180.56C77.1125 180.06 77.3925 179.57 77.6525 179.08C78.1625 178.08 78.7525 177.13 79.3325 176.18C80.5025 174.3 81.8025 172.46 83.2925 170.78Z" fill="#FDFFFF"/>
<path d="M633.072 95.7998C633.072 95.7998 651.222 100.64 650.012 112.74C648.802 124.84 612.502 210.75 612.502 210.75" stroke="#626263" stroke-miterlimit="10"/>
<path d="M660.042 214.39L574.012 208C545.342 205.81 516.673 203.53 488.033 200.96C480.873 200.3 473.713 199.68 466.562 198.95L455.833 197.9L445.112 196.74C430.842 195.11 416.492 193.68 402.742 189.48C388.942 185.51 375.523 180.3 362.323 174.65C349.143 168.94 336.153 162.76 323.463 156.03L323.562 156.11C319.332 150.38 315.192 144.56 311.172 138.68C307.162 132.78 303.223 126.84 299.633 120.68C297.873 117.59 296.122 114.46 294.932 111.12C294.332 109.45 294.192 107.66 294.552 105.92C294.872 104.18 295.482 102.49 296.232 100.89C297.742 97.67 299.722 94.6799 301.862 91.8299C304.012 88.9899 306.332 86.27 308.812 83.7C306.312 86.24 303.972 88.9499 301.792 91.7699C299.632 94.5999 297.612 97.5799 296.062 100.81C295.293 102.42 294.663 104.12 294.323 105.88C293.943 107.64 294.072 109.52 294.662 111.22C295.832 114.62 297.562 117.77 299.302 120.88C302.842 127.09 306.732 133.08 310.742 138.98C314.752 144.88 318.872 150.71 323.092 156.47L323.133 156.52L323.193 156.55C335.893 163.33 348.862 169.56 362.052 175.32C375.252 181.02 388.683 186.28 402.523 190.31C416.333 194.57 430.773 196.07 445.023 197.73L455.753 198.86L466.492 199.88C473.652 200.58 480.813 201.18 487.973 201.82C516.623 204.3 545.302 206.49 573.982 208.59C602.642 210.72 631.342 212.59 660.042 214.39Z" fill="#626263"/>
<path d="M579.833 100.64C579.833 100.64 570.153 89.75 566.523 87.33C565.163 86.43 563.133 84.85 561.123 83.22C557.743 80.5 554.423 77.65 554.423 77.65V71.6C554.423 71.6 544.743 60.71 529.013 60.71C513.283 60.71 504.813 69.18 504.813 69.18C504.813 69.18 506.023 86.12 512.073 87.33C518.123 88.54 535.023 89.38 535.023 89.38L538.693 100.64C538.693 100.64 567.733 110.32 579.833 100.64Z" stroke="#9F9FA0" stroke-miterlimit="10" stroke-linecap="round"/>
<path d="M540.683 107.5C519.558 107.5 502.433 104.814 502.433 101.5C502.433 98.1863 519.558 95.5 540.683 95.5C561.808 95.5 578.933 98.1863 578.933 101.5C578.933 104.814 561.808 107.5 540.683 107.5Z" fill="#BFBFC4"/>
<path d="M579.833 100.64C579.833 100.64 570.153 89.75 566.523 87.33C565.163 86.43 563.133 84.85 561.123 83.22C557.743 80.5 554.423 77.65 554.423 77.65V71.6C554.423 71.6 544.743 60.71 529.013 60.71C513.283 60.71 504.813 69.18 504.813 69.18C504.813 69.18 506.023 86.12 512.073 87.33C518.123 88.54 535.023 89.38 535.023 89.38L538.693 100.64C538.693 100.64 567.733 110.32 579.833 100.64Z" fill="#D1D1D3" stroke="#9F9FA0" stroke-miterlimit="10" stroke-linecap="round"/>
<path d="M561.433 82.9998L535.433 80.9998L524.433 78.9998L520.433 76.9998L514.433 72.9998H505.433L504.433 68.9998C504.433 68.9998 515.983 60.2298 529.713 60.6198C543.433 60.9998 554.433 71.9998 554.433 71.9998L554.393 76.7898L561.433 82.9998Z" fill="#2D2C2C"/>
<path d="M507.232 72.8098C509.652 72.9198 512.072 72.9698 514.492 73.0598L514.302 72.9698C515.642 74.5998 517.192 76.0198 518.912 77.2398C520.612 78.4698 522.522 79.4498 524.562 80.0498C526.622 80.6598 528.692 80.8398 530.742 81.1298C532.802 81.4098 534.862 81.6198 536.922 81.8198C541.042 82.2198 545.162 82.6398 549.292 82.9198C553.422 83.2398 557.552 83.5098 561.692 83.6998C557.582 83.1598 553.472 82.6798 549.362 82.2198C545.252 81.7298 541.132 81.3398 537.022 80.8598L530.862 80.1598C528.822 79.8898 526.732 79.7298 524.812 79.1798C520.952 78.0398 517.422 75.6598 514.692 72.6398L514.602 72.5398H514.492C512.072 72.6398 509.652 72.6898 507.232 72.8098Z" fill="#FAFAFF"/>
<path d="M579.833 100.64C579.833 100.64 570.153 89.75 566.523 87.33C565.163 86.43 563.133 84.85 561.123 83.22C557.743 80.5 554.423 77.65 554.423 77.65V71.6C554.423 71.6 544.743 60.71 529.013 60.71C513.283 60.71 504.813 69.18 504.813 69.18C504.813 69.18 506.023 86.12 512.073 87.33C518.123 88.54 535.023 89.38 535.023 89.38L538.693 100.64C538.693 100.64 567.733 110.32 579.833 100.64Z" stroke="#BFBFC4" stroke-miterlimit="10"/>
<path opacity="0.5" d="M955.933 166C952.895 166 950.433 162.418 950.433 158C950.433 153.582 952.895 150 955.933 150C958.97 150 961.433 153.582 961.433 158C961.433 162.418 958.97 166 955.933 166Z" fill="white"/>
<path opacity="0.5" d="M957.932 158C956.226 158 954.842 155.985 954.842 153.5C954.842 151.015 956.226 149 957.932 149C959.639 149 961.022 151.015 961.022 153.5C961.022 155.985 959.639 158 957.932 158Z" fill="white"/>
<path d="M21.4526 211.43C21.4526 211.43 15.9326 194.5 13.9326 181.5C11.9326 168.5 11.9326 159.5 11.9326 159.5L1.7926 172.11C1.7926 172.11 3.97264 200.35 21.4526 211.43Z" fill="#363838"/>
<path d="M26.8125 80.7C23.3325 84.66 20.0125 88.7499 16.8025 92.9399C13.6125 97.1399 10.5225 101.42 7.90247 106.06L7.02252 107.87C6.81252 108.52 6.4925 109.15 6.3725 109.81C6.2125 110.47 6.07249 111.13 5.99249 111.79C5.88249 112.45 5.81249 113.11 5.74249 113.77C5.48249 116.41 5.35248 119.05 5.35248 121.69C5.32248 126.97 5.5125 132.24 5.9325 137.49C5.9325 134.85 5.91251 132.22 5.95251 129.59C5.97251 126.96 6.00249 124.33 6.11249 121.7C6.24249 119.08 6.34252 116.45 6.64252 113.86C6.71252 113.21 6.79248 112.56 6.91248 111.93C7.00248 111.28 7.14249 110.66 7.30249 110.04C7.42249 109.41 7.72249 108.85 7.92249 108.25L8.78247 106.52C11.2725 101.94 14.3725 97.67 17.4225 93.39C18.9525 91.25 20.5125 89.1299 22.0925 87.0299L26.8125 80.7Z" fill="#989899"/>
<path d="M838.172 256.12L910.772 248.86L957.352 241C957.352 241 960.982 233.74 959.772 224.06C958.562 214.38 954.932 205.91 954.932 205.91L960.982 187.76L959.772 180.5C959.772 180.5 963.402 174.45 963.402 161.14C963.402 147.83 960.982 149.04 954.932 144.2C948.882 139.36 952.512 140.57 922.262 129.68C892.012 118.79 877.492 113.95 838.772 104.27C800.052 94.5899 739.552 86.1199 720.192 84.9099C700.832 83.6999 687.522 83.6999 687.522 83.6999L519.332 11.0999C519.332 11.0999 451.572 -4.63012 357.192 5.04988C262.812 14.7299 180.532 40.1399 158.752 46.1899C136.972 52.2399 111.562 60.7099 95.8324 63.1299C80.1024 65.5499 48.6424 66.7599 38.9624 70.3899C29.2824 74.0199 25.6523 80.0699 25.6523 80.0699L66.7924 78.8599C66.7924 78.8599 54.6924 88.5399 40.1724 94.5899C25.6524 100.64 14.7624 107.9 13.5524 116.37C12.3424 124.84 12.3423 133.31 12.3423 133.31L9.92236 130.89L3.87238 141.78L1.45239 178.08C1.45239 178.08 7.5024 199.86 22.0224 213.17C36.5424 226.48 57.1124 234.95 57.1124 234.95C57.1124 234.95 47.4324 201.07 64.3724 164.77C81.3124 128.47 104.302 122.42 138.182 121.21C172.062 120 203.522 149.04 213.202 181.71C222.882 214.38 213.202 248.26 213.202 248.26H262.812C262.812 248.26 308.792 216.8 337.832 211.96C366.872 207.12 516.912 221.64 545.952 227.69C574.992 233.74 625.812 256.73 625.812 256.73H668.162C668.162 256.73 657.272 225.27 662.112 191.39C666.952 157.51 703.252 118.79 761.332 124.84C819.412 130.89 838.772 190.18 838.772 190.18C838.772 190.18 846.032 224.06 838.172 256.12Z" stroke="#CACACC" stroke-width="2" stroke-miterlimit="10"/>
<path d="M251.933 123.5C237.953 115.83 223.683 108.7 209.163 102.08C194.613 95.5398 179.893 89.2698 164.433 84.7998C163.473 84.4898 162.483 84.2798 161.503 84.0498L158.553 83.3598C158.063 83.2498 157.573 83.1198 157.073 83.0298L155.573 82.7898L152.583 82.3098L151.083 82.0698L149.583 81.9098L146.583 81.5898C144.583 81.3398 142.583 81.2598 140.573 81.1398C132.563 80.7298 124.553 80.6898 116.573 81.0098C100.603 81.6098 84.7026 83.1598 68.9426 85.5098C76.8926 84.9398 84.8326 84.3898 92.7926 84.0698C100.743 83.6798 108.693 83.4398 116.633 83.3498C124.573 83.3098 132.513 83.4098 140.403 83.9798C144.353 84.2298 148.273 84.6298 152.163 85.2098L155.063 85.6998L156.513 85.9398C156.993 86.0298 157.463 86.1598 157.943 86.2698C159.843 86.7598 161.763 87.1298 163.653 87.6998C171.263 89.7498 178.713 92.5398 186.133 95.3198C193.573 98.0898 200.893 101.2 208.243 104.23C215.563 107.34 222.863 110.5 230.143 113.73C237.433 116.88 244.663 120.22 251.933 123.5Z" fill="white"/>
</svg>
