<svg width="936" height="310" viewBox="0 0 936 310" fill="none" xmlns="http://www.w3.org/2000/svg">
<path d="M868.584 259.24C868.584 259.24 865.354 252.77 848.714 252.65C832.084 252.53 696.494 249.24 696.494 249.24C696.494 249.24 129.284 239.01 113.254 252.96L104.214 242.76L41.7843 169.46C41.7843 169.46 -60.0157 132.14 440.644 132.14C941.304 132.14 891.524 125.9 868.584 259.24Z" fill="#020202"/>
<path d="M935.824 245.12C935.824 245.12 936.314 248.18 933.374 250.22C930.434 252.26 921.454 257.27 914.364 258.87C907.274 260.48 887.454 262.94 887.454 262.94C887.454 262.94 915.344 242.55 925.004 242.6C934.654 242.65 935.824 245.12 935.824 245.12Z" fill="url(#paint0_linear_87_331)"/>
<path d="M877.024 252.65C877.024 252.65 875.924 263.3 874.554 265.39L866.664 265.83C866.664 265.83 867.984 262.79 869.894 253.25L877.024 252.65Z" fill="#231F1F"/>
<path d="M927.574 243.55C927.574 243.55 920.874 252.13 914.244 255.87C907.614 259.61 874.554 265.38 874.554 265.38C874.554 265.38 876.224 257.66 877.024 252.64C877.824 247.62 905.244 236.44 908.974 236.87C912.714 237.29 928.854 242 927.574 243.55Z" fill="#3C3B3A"/>
<path d="M904.434 238.83C904.434 238.83 909.254 239.21 909.254 241.16C909.254 243.11 899.314 253.6 892.364 254.82C885.414 256.04 877.034 252.65 877.034 252.65C877.034 252.65 891.184 250.65 894.704 246.63C898.214 242.6 901.724 238.09 904.434 238.83Z" fill="url(#paint1_linear_87_331)"/>
<path d="M931.914 239.8C931.914 239.8 935.644 242.89 935.824 245.12C936.014 247.35 929.604 243.85 927.574 243.55C925.544 243.26 908.404 238.22 908.974 236.87C909.554 235.52 930.664 237.7 931.914 239.8Z" fill="#8F8B8B"/>
<path d="M220.454 31.3599C220.454 31.3599 169.084 48.4499 144.334 59.4099C119.584 70.3699 144.624 96.2199 169.184 95.0999C193.744 93.9799 196.604 96.5999 187.544 78.7199C178.474 60.8299 175.864 49.8299 220.454 31.3599Z" fill="url(#paint2_linear_87_331)"/>
<path d="M3.76416 197.76C3.81416 196.5 3.84417 195.31 3.83417 194.2C3.50417 190.73 2.55414 186.26 2.55414 186.26C-3.70586 175.62 4.18414 152.74 4.61414 151.88C5.04414 151.02 13.1841 141.88 15.1841 138.41C17.1741 134.95 15.5042 132.11 15.5042 132.11C15.5042 132.11 52.1442 123.08 59.5942 118.67C67.0442 114.26 66.6242 104.5 64.5242 103.03C62.4242 101.56 13.8641 96.0299 13.8641 96.0299C13.8641 96.0299 13.8641 94.37 13.8641 91.89C13.8641 89.41 15.3741 88.8199 15.3741 88.8199C15.3741 88.8199 10.4142 84.39 8.46417 81.2C6.51417 78.01 10.2342 77.6599 9.88416 78.5399C9.53416 79.4299 17.8542 84.3899 20.1542 85.0899C22.4542 85.7999 39.1841 83.3499 39.1841 83.3499C163.014 70.8999 170.624 21.0899 311.064 5.86994C459.454 -10.2101 506.844 16.9399 529.434 25.9699C552.024 34.9999 643.914 88.6599 643.914 88.6599C643.914 88.6599 647.654 82.3399 747.834 93.8199C882.234 109.23 893.254 125.09 905.064 131.07C916.884 137.05 915.984 139.59 915.984 139.59C915.984 139.59 921.364 139.14 922.264 151.85C923.164 164.56 925.194 168.53 928.624 175.49C932.054 182.45 931.714 187.16 931.394 192.93C931.074 198.71 933.644 211.54 933.804 223.25C933.964 234.96 931.904 239.75 931.904 239.75L908.974 236.82L891.894 251.7L869.894 253.2C880.444 199.51 848.884 134.53 774.654 146.69C700.424 158.85 704.534 257.01 704.534 257.01L261.594 253.2C264.514 165.15 209.654 138.97 157.114 151.09C99.0241 164.5 104.214 242.7 104.214 242.7L23.3541 226.39C23.3541 226.39 20.7541 226.24 16.6241 226.24C12.4941 226.24 10.3541 220.74 5.61414 212.79C4.31414 210.61 3.50418 208.63 3.03418 206.86C1.77418 202.2 2.85416 199.07 3.63416 197.96C3.69416 197.95 3.72416 197.86 3.76416 197.76Z" fill="#031094"/>
<path d="M928.064 238.8C928.064 238.8 911.674 236.61 910.124 235.26C908.574 233.91 909.314 229.5 910.644 221.68C911.974 213.85 914.784 200.34 914.784 200.34L929.884 203.77C929.874 203.77 935.634 239.93 928.064 238.8Z" fill="url(#paint3_linear_87_331)"/>
<path d="M104.224 242.76L23.3641 226.45C23.3641 226.45 20.7642 226.3 16.6342 226.3C12.5042 226.3 10.3641 220.8 5.62415 212.85C4.32415 210.67 3.51413 208.69 3.04413 206.92C1.78413 202.26 2.86417 199.13 3.64417 198.02C3.69417 197.95 3.72416 197.87 3.76416 197.77C3.81416 196.51 3.84417 195.32 3.83417 194.21C3.50417 190.74 2.55414 186.27 2.55414 186.27C-3.70586 175.63 4.18414 152.75 4.61414 151.89C5.04414 151.03 13.1841 141.89 15.1841 138.42C17.1741 134.96 15.5042 132.12 15.5042 132.12C15.5042 132.12 52.1442 123.09 59.5942 118.68C67.0442 114.27 66.6242 104.51 64.5242 103.04C62.4242 101.57 13.8641 96.04 13.8641 96.04C13.8641 96.04 13.8641 94.38 13.8641 91.9C13.8641 89.42 15.3741 88.83 15.3741 88.83C15.3741 88.83 10.4142 84.4 8.46417 81.21C6.51417 78.02 10.2342 77.67 9.88416 78.55C9.53416 79.44 17.8542 84.4 20.1542 85.1C22.4542 85.81 39.1841 83.36 39.1841 83.36C135.484 73.68 161.514 41.4 234.374 20.37C236.004 19.92 237.604 19.47 239.184 19.02C257.724 13.94 279.304 9.59997 305.664 6.49997C378.224 -1.18003 453.254 7.01999 487.764 13.45C533.104 21.89 624.204 84.65 632.084 89.49C639.964 94.33 686.904 94.71 720.944 96.68C754.984 98.65 749.064 102.85 745.864 104.08C742.654 105.31 770.744 109.82 770.744 109.82L763.654 149.34C700.884 168.92 704.554 257.06 704.554 257.06L261.614 253.25C264.534 165.2 209.674 139.02 157.134 151.14C99.0242 164.55 104.224 242.76 104.224 242.76Z" fill="url(#paint4_linear_87_331)"/>
<path d="M930.994 182.11C930.994 182.11 930.134 178.62 928.634 175.54C927.134 172.46 926.774 171.69 926.774 171.69C926.774 171.69 917.864 165.19 910.554 166.19C903.244 167.19 924.094 183.11 924.094 183.11L930.994 182.11Z" fill="url(#paint5_linear_87_331)"/>
<path d="M921.145 180.11C921.145 180.11 910.135 162.24 894.785 152.14C879.435 142.04 812.205 134.18 804.635 138.5C797.065 142.82 830.485 145.29 842.915 157.39C855.345 169.49 873.735 191.25 874.515 213.78C875.295 236.32 886.665 199.27 915.685 194.35C915.695 194.36 917.185 181.55 921.145 180.11Z" fill="url(#paint6_linear_87_331)"/>
<path d="M926.774 171.69C926.774 171.69 917.504 165.8 903.724 165.63C889.944 165.45 867.584 152.47 856.334 153.28C845.074 154.09 838.934 153.24 838.934 153.24C838.934 153.24 802.614 136.08 779.374 140.13C756.134 144.18 108.194 118.48 108.194 118.48C108.194 118.48 73.0644 84.9299 154.084 87.0399C154.084 87.0399 186.544 90.5399 188.464 87.9799C190.384 85.4199 180.364 84.9999 176.954 70.2899C173.544 55.5899 165.704 47.7499 232.864 27.4699C300.024 7.18991 446.404 -8.23009 529.984 34.8499C613.564 77.9299 636.924 99.7399 636.924 99.7399C636.924 99.7399 823.654 106.14 887.064 134.09L926.774 171.69Z" fill="url(#paint7_linear_87_331)"/>
<path d="M144.324 59.4099C144.324 59.4099 162.994 56.6199 168.384 65.1199C172.224 71.1499 172.654 84.4499 168.384 85.6599C162.964 87.1999 144.874 87.8499 144.874 87.8499L144.324 59.4099Z" fill="#7F8DE1"/>
<path d="M104.224 242.76L24.2941 228.02H3.78418C3.78418 228.02 2.46417 224.74 2.46417 219.82C2.46417 214.9 2.45416 211.27 4.76416 211.27C7.07416 211.27 97.9542 221.31 97.9542 221.31L104.224 242.76Z" fill="#000202"/>
<path d="M70.1243 108.26C70.1243 108.26 71.5743 102.28 64.1543 100.71C56.7343 99.15 13.8542 96.04 13.8542 96.04L13.1943 108.25C13.1943 108.25 18.1343 106.71 18.0043 108.25C17.8743 109.79 11.4243 117.64 11.4243 120.29C11.4243 122.95 11.8043 124.97 12.5643 125.35C13.3243 125.73 14.2143 124.34 14.2143 126.11C14.2143 127.88 14.1742 132.44 15.4842 132.11C16.8042 131.8 64.1443 126.59 70.1243 108.26Z" fill="#000202"/>
<path d="M21.2844 113.21C21.2844 113.21 27.3843 108.95 34.4243 108.26C41.4643 107.57 69.9644 106.4 69.9644 106.4C69.9644 106.4 66.2143 115.2 49.7943 117.43C33.3743 119.66 26.4544 118.95 24.3444 120.71C22.2344 122.47 17.3443 126.51 14.2243 126.13C11.0843 125.75 21.2844 113.21 21.2844 113.21Z" fill="#3F3F3F"/>
<path d="M58.0643 99.4099C58.0643 99.4099 68.3643 105.96 59.8843 120.68C51.4043 135.4 71.3443 126.98 68.7843 108.26C66.2243 89.5299 58.0643 99.4099 58.0643 99.4099Z" fill="url(#paint8_linear_87_331)"/>
<path d="M107.104 70.3799C107.104 70.3799 60.7445 79.2499 50.5645 79.2499C40.3845 79.2499 34.7145 79.6399 28.4445 79.2499C28.4445 79.2499 25.0045 77.7299 23.2845 77.0399C21.5645 76.3499 11.2945 75.9099 9.87451 78.5699C8.45451 81.2299 18.0145 87.6999 21.6745 87.6999C25.3545 87.6899 101.994 75.1599 107.104 70.3799Z" fill="url(#paint9_linear_87_331)"/>
<path d="M2.60431 204.6C2.17431 201.22 3.00435 198.92 3.64435 198.01C3.69435 197.94 3.72434 197.86 3.76434 197.76C3.81434 196.5 3.84435 195.31 3.83435 194.2C3.50435 190.73 2.55432 186.26 2.55432 186.26C-3.70568 175.62 4.18432 152.74 4.61432 151.88C5.04432 151.02 13.1843 141.88 15.1843 138.41C17.1743 134.95 15.5043 132.11 15.5043 132.11C15.5043 132.11 52.1444 123.08 59.5944 118.67C67.0444 114.26 66.6244 104.5 64.5244 103.03C62.4244 101.56 13.8643 96.03 13.8643 96.03C13.8643 96.03 13.8643 94.37 13.8643 91.89C13.8643 89.41 15.3743 88.82 15.3743 88.82C15.3743 88.82 10.4144 84.39 8.46436 81.2C6.51436 78.01 10.2343 77.66 9.88434 78.54C9.53434 79.43 17.8544 84.39 20.1544 85.09C22.4544 85.8 39.1843 83.35 39.1843 83.35C82.3143 79.01 111.344 70.14 136.794 59.78L146.734 59.25C172.974 60.79 169.114 68.95 170.224 77.78C171.704 89.53 159.694 86.11 130.224 89.21C100.744 92.31 118.344 93.35 144.824 103.04C171.304 112.73 346.564 108.85 397.874 108.85C449.184 108.85 718.964 115.18 736.784 129.27C754.604 143.36 766.194 139.56 766.194 139.56C735.084 148.61 714.144 183.49 707.754 205.42C701.364 227.35 682.694 245.9 682.694 245.9L411.904 234.8L264.354 217.58C264.354 217.58 256.194 147.63 188.614 145.36C121.034 143.09 111.624 185.42 104.374 198.56C97.1243 211.7 100.074 235.7 100.074 235.7L59.3143 229.13C59.3143 229.13 17.1943 223.92 14.2443 222.79C11.3043 221.66 6.54431 206.26 6.54431 206.26L2.60431 204.6Z" fill="url(#paint10_linear_87_331)"/>
<path d="M707.754 190.43C707.754 190.43 694.164 200.35 680.784 190.43C667.404 180.51 678.644 174.09 624.604 170.88C570.564 167.67 345.334 163.12 322.594 166.15C299.844 169.18 258.034 184 258.034 184L267.614 234.79H699.094L707.754 190.43Z" fill="url(#paint11_linear_87_331)"/>
<path d="M869.894 253.25L877.024 252.65C877.024 252.65 884.734 216.45 868.334 183.4C851.924 150.36 824.784 136.62 782.624 137.38C740.464 138.15 709.804 175.32 703.674 202.53C697.544 229.74 693.314 230.57 666.104 229.79C642.144 229.11 352.024 220.57 283.044 218.54C274.974 218.3 267.994 212.8 265.974 204.98C262.644 192.08 254.884 172.27 237.174 157.72C208.704 134.34 150.984 130.26 120.304 163.14C101.714 183.05 96.0043 203.13 94.3843 215.86C93.4543 223.15 86.8044 228.3 79.5344 227.27L30.6243 220.33C20.6243 218.91 12.3043 211.93 9.18433 202.33C7.07433 195.85 4.59431 189.16 2.54431 186.26C2.54431 186.26 4.71435 196.47 3.64435 198C2.57435 199.53 0.894339 204.88 5.63434 212.83C10.3743 220.78 12.5143 226.28 16.6443 226.28C20.7743 226.28 23.3743 226.43 23.3743 226.43L104.234 242.74C104.234 242.74 99.0343 164.53 157.134 151.13C209.674 139.01 264.534 165.18 261.614 253.24L704.554 257.05C704.554 257.05 700.444 158.89 774.674 146.73C848.894 134.59 880.454 199.56 869.894 253.25Z" fill="url(#paint12_linear_87_331)"/>
<path d="M670.054 218.42C664.644 215.58 658.624 214.1 652.514 213.91L339.634 204.5C339.634 204.5 310.214 203.69 308.644 211.47C307.074 219.25 388.464 221.65 388.464 221.65L658.144 229.57C661.734 229.68 665.334 229.36 668.824 228.51C674.774 227.07 680.814 224.07 670.054 218.42Z" fill="#0A1E70"/>
<path d="M885.004 132.78C893.374 132.94 915.984 139.63 915.984 139.63C915.984 139.63 921.364 139.18 922.264 151.89C922.984 162.1 924.444 166.67 926.764 171.69C926.764 171.69 917.694 164.33 904.064 164.18C890.424 164.02 870.924 154.19 862.044 149.87C853.164 145.55 851.104 143.25 854.324 137.36C857.544 131.46 876.634 132.62 885.004 132.78Z" fill="#000002"/>
<path d="M915.114 161.41C915.114 161.41 900.264 163.09 890.434 159.97C880.614 156.86 855.454 145.12 854.494 143.92C853.534 142.72 856.654 135.29 861.204 135.29C865.754 135.29 885.164 133.85 887.084 134.09C889.004 134.33 912.484 139.6 913.444 141.28C914.394 142.96 916.794 158.54 915.114 161.41Z" fill="#999897"/>
<path d="M914.244 156.72L909.004 144.94C909.004 144.94 895.464 141.16 886.544 142.74C877.624 144.32 891.444 156.8 900.994 157.27C910.544 157.74 914.244 156.72 914.244 156.72Z" fill="#444751"/>
<path d="M909.004 144.94C909.004 144.94 899.394 141.33 894.794 138.84C890.184 136.35 890.074 135.6 885.994 135.35C881.914 135.1 863.094 134.76 861.054 136.35C859.014 137.94 854.594 141.17 857.084 143.24C859.574 145.31 884.844 158.68 896.304 160.27C907.764 161.86 914.244 160.27 914.244 160.27V157.89C914.244 157.89 900.044 157.55 895.504 155.28C890.974 153.01 887.794 146.1 887.794 146.1C887.794 146.1 884.124 147.14 888.434 144.02C891.044 142.12 909.004 144.94 909.004 144.94Z" fill="url(#paint13_linear_87_331)"/>
<path d="M865.254 135.82C865.254 135.82 878.764 135.34 882.594 136.35C886.424 137.36 894.794 140.79 894.794 140.79L888.444 144.02C888.444 144.02 863.904 142.51 859.204 143.22C854.494 143.92 860.614 135.18 865.254 135.82Z" fill="#444751"/>
<path d="M892.554 140.64C892.554 140.64 884.504 138.1 876.564 137.35C868.624 136.61 861.374 134.85 860.024 135.46C858.674 136.08 853.274 140.29 854.504 143.91C855.734 147.53 861.034 140.28 865.744 140.28C870.464 140.28 885.194 140.51 888.414 142.12L892.554 140.64Z" fill="#F7F3FA"/>
<path d="M896.714 144.72L872.714 143.23L885.764 154.21C889.314 157.2 893.804 158.84 898.444 158.84H914.244V156.72L908.494 156.32L902.304 147.8C900.994 145.98 898.944 144.86 896.714 144.72Z" fill="url(#paint14_linear_87_331)"/>
<path d="M905.185 155.51L898.955 147.36L891.045 146.56L900.475 155.51H905.185Z" fill="#020202"/>
<path d="M898.114 155.51L888.554 147.36L880.654 146.56L891.044 155.51H898.114Z" fill="#020202"/>
<path d="M902.084 139.86C902.084 139.86 909.964 139.62 911.234 143.23C912.514 146.84 915.004 151.27 914.244 152.32C913.484 153.37 911.604 147.07 910.184 144.44C908.764 141.81 900.654 142.93 902.084 139.86Z" fill="#F7F3FA"/>
<path d="M15.4842 132.12C15.4842 132.12 52.1242 123.09 59.5742 118.68C59.6842 118.62 59.7742 118.54 59.8742 118.48C64.7842 118.76 69.6742 118.93 74.4742 118.93C116.274 118.93 164.414 130.33 116.914 128.99C69.4142 127.65 15.1642 138.43 15.1642 138.43C17.1642 134.96 15.4842 132.12 15.4842 132.12Z" fill="#040B35"/>
<path d="M632.084 101.17L200.434 85.8C200.434 85.8 191.704 70.05 189.424 63.69C185.894 53.84 190.814 37.38 270.454 20.56C350.094 3.73998 459.154 6.09998 521.984 33.81C573.424 56.5 632.084 101.17 632.084 101.17Z" fill="#242324"/>
<path d="M617.975 95.1L208.965 81.35C208.965 81.35 200.695 67.27 198.535 61.58C195.195 52.77 197.395 41.53 272.855 26.5C348.315 11.47 454.115 10.08 513.645 34.86C562.385 55.14 617.975 95.1 617.975 95.1Z" fill="#5B5B66"/>
<path d="M603.494 92.29C603.494 92.29 544.944 45.14 501.884 32.85C458.824 20.56 406.244 18.24 406.244 18.24L429.154 86.98L603.494 92.29Z" fill="#242324"/>
<path d="M589.125 92.29C589.125 92.29 534.845 45.14 494.915 32.85C454.985 20.56 406.245 18.24 406.245 18.24L427.484 86.98L589.125 92.29Z" fill="#78777D"/>
<path d="M542.054 70.37L532.094 89.5L449.754 87.6L433.474 45.4599C433.474 45.4599 432.814 40.15 443.104 39.81C453.394 39.49 507.524 44.8 542.054 70.37Z" fill="#949FA0"/>
<path d="M381.594 15.6599L387.804 87.3599L277.904 83.6699L275.274 26.0199C275.284 26.0199 328.044 15.5799 381.594 15.6599Z" fill="#78777D"/>
<path d="M371.014 39.81L375.504 87.3599L296.134 84.91L294.234 46.68C294.234 46.68 332.334 39.75 371.014 39.81Z" fill="#949FA0"/>
<path d="M267.104 29.6599L270.574 81.4299L221.774 80.1899C221.774 80.1899 208.894 63.5899 208.644 60.6199C208.394 57.6499 205.424 52.9399 219.794 46.0099C234.154 39.0799 267.104 29.6599 267.104 29.6599Z" fill="#242324"/>
<path d="M265.654 31.3599L268.944 80.4199L222.704 79.2499C222.704 79.2499 210.494 63.5199 210.264 60.7099C210.034 57.8899 207.214 53.4299 220.824 46.8599C234.434 40.2799 265.654 31.3599 265.654 31.3599Z" fill="#6E6E70"/>
<path d="M265.654 38.3599L268.944 80.4199L222.704 79.4099C222.704 79.4099 210.494 65.9299 210.264 63.5099C210.034 61.0999 207.214 57.2699 220.824 51.6399C234.434 46.0099 265.654 38.3599 265.654 38.3599Z" fill="#78777D"/>
<path d="M548.284 74.21C548.284 74.21 579.104 78.33 603.484 92.29L540.704 90.38L548.284 74.21Z" fill="#646870"/>
<path d="M542.054 70.37C542.054 70.37 543.004 65.95 547.814 68.06C552.624 70.17 540.714 90.37 540.714 90.37L532.094 89.5L542.054 70.37Z" fill="#242324"/>
<path d="M406.244 18.24C406.244 18.24 412.544 48.32 406.244 59.29C399.944 70.26 403.874 79.09 399.944 81.44C396.014 83.79 387.814 87.37 387.814 87.37L429.784 88.78L406.244 18.24Z" fill="#242324"/>
<path d="M665.464 245.36C665.464 245.36 313.554 231.83 299.294 229.59C285.034 227.35 279.034 242.36 279.034 242.36L598.404 249.15C620.824 249.62 643.244 248.35 665.464 245.36Z" fill="#0A1E70"/>
<path d="M570.584 241.64C570.584 241.64 485.234 244.1 417.134 241.64C349.034 239.18 320.924 231 320.924 231L570.584 241.64Z" fill="#8597E0"/>
<path opacity="0.5" d="M585.785 78.9299L408.795 87.3599L617.975 95.0999C617.975 95.0999 599.155 78.2999 585.785 78.9299Z" fill="#030309"/>
<path d="M59.8846 118.48C59.8846 118.48 239.945 117.24 308.615 118.48C377.285 119.72 648.935 138.42 648.935 138.42C648.935 138.42 445.725 118.93 379.175 113.42C316.765 108.25 70.1346 108.25 70.1346 108.25C70.1346 108.25 67.7946 115.13 59.8846 118.48Z" fill="#0018C0"/>
<path d="M247.964 119.66C247.964 119.66 241.934 118.15 220.304 117.65C198.674 117.16 134.234 111.56 129.624 114.05C125.024 116.54 156.024 131.46 185.404 131.15C214.774 130.85 255.704 123.91 247.964 119.66Z" fill="#0018C0"/>
<path d="M248.144 119.66C248.144 119.66 243.274 118.15 225.804 117.65C208.334 117.16 156.304 111.56 152.584 114.05C148.864 116.54 173.904 131.46 197.624 131.15C221.354 130.85 254.394 123.91 248.144 119.66Z" fill="#7F8DE1"/>
<path d="M929.875 191.56V203.77H914.245C914.245 203.77 915.795 191.6 916.645 188.97C917.485 186.35 929.875 187.09 929.875 191.56Z" fill="url(#paint15_linear_87_331)"/>
<path d="M931.404 192.98C931.404 192.98 931.914 185.3 930.994 182.1C930.074 178.9 921.124 178.04 919.414 181.59C917.714 185.14 916.634 188.97 916.634 188.97C916.634 188.97 925.244 186.34 931.404 192.98Z" fill="#8891DF"/>
<path d="M915.944 192.53C915.944 192.53 919.684 189.46 923.034 192.53V203.77H914.244C914.244 203.77 915.174 194.83 915.944 192.53Z" fill="#504E57"/>
<path d="M931.914 239.8C931.914 239.8 932.394 239.34 926.954 238.02C921.094 236.6 908.984 236.87 909.644 231.4C910.244 226.38 914.254 203.78 914.254 203.78L915.704 194.37C915.704 194.37 913.634 203.32 912.674 206.75C911.714 210.18 905.494 236.59 910.274 237.05C916.544 237.63 931.914 239.8 931.914 239.8Z" fill="#5872CA"/>
<path d="M11.4244 120.3C11.4244 117.64 17.8845 109.79 18.0045 108.26C18.1345 106.72 13.1945 108.26 13.1945 108.26L13.2045 108.01C13.2845 106.72 13.9444 100.5 18.7944 101.09C24.2044 101.75 30.9345 103.2 27.5045 111.65C24.0745 120.1 12.5644 125.36 12.5644 125.36C11.8044 124.98 11.4244 122.96 11.4244 120.3Z" fill="#A90401"/>
<path d="M36.2245 103.48C36.2245 103.48 61.4145 104.46 61.4145 105.92C61.4145 107.38 62.8745 110.91 55.8945 113.21C48.9045 115.51 33.1445 118.38 31.5245 118.49C29.9045 118.6 33.9645 110.8 36.5645 109.5C39.1545 108.19 33.6245 105.27 36.2245 103.48Z" fill="#A90401"/>
<path d="M25.9246 108.26C27.1146 103.25 23.2146 101.91 22.1346 101.64C26.5046 102.62 30.2546 104.91 27.5146 111.65C24.0846 120.1 12.5746 125.36 12.5746 125.36C12.5746 125.36 24.5546 114.04 25.9246 108.26Z" fill="#840303"/>
<path d="M36.5544 109.49C38.4244 108.56 36.1044 106.78 35.6144 105.19C35.6844 105.23 37.4844 106.39 39.1044 107.68C40.7444 108.99 35.4844 112.12 40.8444 111.95C46.1944 111.79 61.5144 108.25 61.5244 108.25C61.3444 109.84 60.2744 111.76 55.9044 113.2C48.9144 115.5 33.1544 118.37 31.5344 118.48C29.8944 118.59 33.9544 110.79 36.5544 109.49Z" fill="#840303"/>
<path d="M711.354 132.05C711.354 132.05 721.374 125.68 723.824 126.87C726.284 128.06 730.014 130.63 729.214 131.51C728.414 132.38 704.044 145.49 699.294 147.02C694.544 148.55 689.904 149.2 686.844 148.59C686.844 148.59 681.124 147.57 689.354 143.62C697.584 139.67 711.354 132.05 711.354 132.05Z" fill="#4D4C53"/>
<path d="M712.374 133.07C712.374 133.07 722.394 126.7 724.844 127.89C727.294 129.08 731.034 131.65 730.234 132.53C729.434 133.4 705.064 146.51 700.314 148.04C695.564 149.57 690.924 150.22 687.864 149.61C687.864 149.61 682.144 148.59 690.374 144.64C698.594 140.68 712.374 133.07 712.374 133.07Z" fill="url(#paint16_linear_87_331)"/>
<path d="M712.874 132.38C712.874 132.38 721.724 127.3 722.954 127.87C724.184 128.44 724.344 131.64 722.464 132.38C720.574 133.12 718.444 132.55 712.874 132.38Z" fill="#4D4C53"/>
<path d="M717.904 136.51C717.904 136.51 719.684 134.79 708.494 134.27C697.304 133.75 670.224 130.8 670.224 130.8C670.224 130.8 672.024 135.97 680.474 136.18C687.534 136.36 706.734 136.06 708.624 137.52C710.494 138.98 716.844 138.33 717.904 136.51Z" fill="#4D4C53"/>
<path d="M717.904 136.51C717.904 136.51 721.314 133.78 709.754 133.26C698.194 132.74 670.224 130.8 670.224 130.8C670.224 130.8 673.504 135.17 680.804 135.17C688.104 135.17 707.934 135.05 709.874 136.51C711.824 137.97 716.814 138.33 717.904 136.51Z" fill="url(#paint17_linear_87_331)"/>
<path d="M430.874 114.29C430.374 119.37 439.204 124.4 450.604 125.53C462.004 126.66 479.024 125.14 479.524 120.07C480.024 114.99 463.824 108.28 452.424 107.15C441.024 106.01 431.374 109.21 430.874 114.29Z" fill="#8891D6"/>
<path d="M432.665 114.46C432.195 119.17 440.565 123.86 451.355 124.93C462.145 126 478.245 124.62 478.715 119.91C479.185 115.2 463.835 108.93 453.045 107.86C442.255 106.8 433.125 109.75 432.665 114.46Z" fill="url(#paint18_linear_87_331)"/>
<path d="M436.434 114.84C436.044 118.78 443.044 122.7 452.064 123.6C461.084 124.49 474.554 123.34 474.944 119.4C475.334 115.46 462.504 110.22 453.474 109.33C444.454 108.43 436.824 110.9 436.434 114.84Z" fill="#00022D"/>
<path d="M477.665 118.27C477.665 118.27 472.325 115.75 469.885 115.75C467.445 115.75 437.675 113.65 436.495 114.21C435.315 114.76 433.235 115.99 433.785 116.7C434.325 117.41 437.945 119.5 445.545 119.28C453.145 119.06 469.155 120.94 472.055 120.82C474.955 120.72 477.665 118.27 477.665 118.27Z" fill="#8891D6"/>
<path d="M477.665 118.27C477.665 118.27 472.325 114.74 469.885 114.74C467.445 114.74 437.675 112.64 436.495 113.2C435.315 113.75 433.235 114.98 433.785 115.69C434.325 116.4 437.945 118.49 445.545 118.27C453.145 118.05 469.155 119.93 472.055 119.81C474.955 119.71 477.665 118.27 477.665 118.27Z" fill="url(#paint19_linear_87_331)"/>
<path d="M477.665 118.55C477.665 118.55 472.325 115.65 469.885 115.65C468.445 115.65 455.735 116.07 446.745 115.67C440.525 115.39 436.985 114.19 436.495 114.38C435.315 114.83 433.235 115.84 433.785 116.42C434.325 117 437.945 118.72 445.545 118.54C453.145 118.36 469.155 119.9 472.055 119.81C474.955 119.73 477.665 118.55 477.665 118.55Z" fill="url(#paint20_linear_87_331)"/>
<path d="M232.324 104.8C231.824 109.88 240.654 114.91 252.054 116.04C263.454 117.17 280.474 115.65 280.974 110.58C281.474 105.5 265.274 98.7901 253.874 97.6601C242.474 96.5301 232.824 99.7301 232.324 104.8Z" fill="#8891D6"/>
<path d="M234.104 104.98C233.634 109.69 242.004 114.38 252.794 115.45C263.584 116.52 279.684 115.14 280.154 110.43C280.624 105.72 265.274 99.45 254.484 98.38C243.694 97.32 234.574 100.27 234.104 104.98Z" fill="url(#paint21_linear_87_331)"/>
<path d="M237.884 105.36C237.494 109.3 244.494 113.22 253.514 114.12C262.534 115.01 276.004 113.86 276.394 109.92C276.784 105.98 263.954 100.74 254.924 99.85C245.904 98.94 238.274 101.41 237.884 105.36Z" fill="#00022D"/>
<path d="M279.104 108.79C279.104 108.79 273.764 106.27 271.324 106.27C268.884 106.27 239.114 104.17 237.934 104.73C236.754 105.28 234.674 106.51 235.224 107.22C235.764 107.93 239.384 110.02 246.984 109.8C254.584 109.58 270.594 111.46 273.494 111.34C276.394 111.24 279.104 108.79 279.104 108.79Z" fill="#8891D6"/>
<path d="M279.104 108.79C279.104 108.79 273.764 105.26 271.324 105.26C268.884 105.26 239.114 103.16 237.934 103.72C236.754 104.27 234.674 105.5 235.224 106.21C235.764 106.92 239.384 109.01 246.984 108.79C254.584 108.57 270.594 110.45 273.494 110.33C276.394 110.22 279.104 108.79 279.104 108.79Z" fill="url(#paint22_linear_87_331)"/>
<path d="M279.104 109.07C279.104 109.07 273.764 106.17 271.324 106.17C269.884 106.17 257.174 106.59 248.184 106.19C241.964 105.91 238.424 104.71 237.934 104.9C236.754 105.35 234.674 106.36 235.224 106.94C235.764 107.52 239.384 109.24 246.984 109.06C254.584 108.88 270.594 110.42 273.494 110.33C276.394 110.24 279.104 109.07 279.104 109.07Z" fill="url(#paint23_linear_87_331)"/>
<path d="M594.954 88.9999L593.334 88.8899C593.334 88.8899 593.564 93.6199 591.784 94.1599C590.004 94.6999 578.674 94.6299 578.674 94.6299V98.7399C578.674 98.7399 591.244 98.8999 592.794 98.7399C594.334 98.5799 597.024 94.5899 594.954 88.9999Z" fill="#030311"/>
<path d="M561.025 89.2999L559.985 71.3299C559.985 71.3299 560.815 66.4999 566.165 65.9299C571.515 65.3599 586.355 65.9999 589.995 69.4999C593.635 72.9999 596.125 76.9899 595.165 79.8099C594.205 82.6299 594.205 92.2599 586.565 92.7599C578.935 93.2499 564.525 92.9099 561.025 89.2999Z" fill="url(#paint24_linear_87_331)"/>
<path d="M579.595 84.1799C579.595 84.1799 580.225 88.2999 576.725 88.8799C573.225 89.4599 561.035 89.2999 561.035 89.2999C561.035 89.2999 580.025 92.8899 582.865 90.1799C585.715 87.4699 579.595 84.1799 579.595 84.1799Z" fill="#030311"/>
<path d="M593.324 88.8799C593.324 88.8799 582.144 88.2299 579.464 89.2999C576.794 90.3699 561.014 89.2999 561.014 89.2999C561.014 89.2999 564.034 96.0699 578.654 96.0699C593.284 96.0699 595.334 95.2699 593.324 88.8799Z" fill="#646368"/>
<path d="M581.574 79.23C581.574 79.23 580.334 82.08 579.594 84.18C578.854 86.28 569.694 82.57 567.834 79.23H581.574Z" fill="url(#paint25_linear_87_331)"/>
<path d="M581.574 79.2301L561.924 78.2501V76.3101L581.574 76.86V79.2301Z" fill="#B3B1B6"/>
<path d="M582.864 75.6599H578.674C578.674 75.6599 576.314 72.1499 569.864 71.3199C563.404 70.4899 559.994 71.3199 559.994 71.3199C559.994 71.3199 560.544 69.2 562.944 69.2C565.344 69.2 582.304 66.8099 582.864 75.6599Z" fill="#B3B1B6"/>
<path d="M595.164 79.7999L581.574 76.8599C581.574 76.8599 577.994 85.5299 580.534 89.0199C583.074 92.5099 593.774 90.5399 593.774 90.5399C593.774 90.5399 595.954 91.0099 595.164 79.7999Z" fill="#B3B1B6"/>
<path d="M594.664 82.0099C594.664 82.0099 590.994 83.1699 586.394 82.5499C581.794 81.9299 581.794 81.9299 581.794 81.9299C581.794 81.9299 580.384 88.8199 586.304 89.2699C592.224 89.7099 594.024 89.8299 594.194 88.6799C594.364 87.5299 594.804 85.7599 592.184 85.7599C589.564 85.7499 587.474 85.3099 587.474 85.3099C587.474 85.3099 593.254 85.6699 593.974 85.2099C594.694 84.7499 594.954 84.3999 594.664 82.0099Z" fill="url(#paint26_linear_87_331)"/>
<path d="M594.784 98.73C594.784 98.73 592.914 110.24 588.884 111.9C584.854 113.56 582.484 114.11 576.084 114.39C569.684 114.67 559.464 114.94 561.024 112.87C562.594 110.8 565.924 108.78 566.204 98.73H594.784Z" fill="#0219AA"/>
<path d="M592.524 98.73C592.524 98.73 590.484 105.53 586.704 108.25C583.634 110.46 581.864 112.06 576.324 112.3C570.774 112.54 565.564 111.03 566.914 109.23C568.274 107.43 567.524 107.44 567.764 98.73H592.524Z" fill="#0A1E70"/>
<path d="M927.574 243.55C927.574 243.55 927.104 242.42 925.054 241.6C923.004 240.78 914.004 254.33 910.584 256.16C907.164 257.99 905.494 258.87 905.494 258.87C905.494 258.87 919.544 254.85 927.574 243.55Z" fill="#231F1F"/>

<path d="M716.474 234.416C710.087 195.061 736.813 157.979 776.168 151.592C815.523 145.205 852.604 171.931 858.991 211.286C865.378 250.641 838.653 287.723 799.297 294.11C759.942 300.497 722.861 273.771 716.474 234.416Z" fill="#020202"/>
<path d="M787.744 286.85C752.393 286.85 723.734 258.192 723.734 222.84C723.734 187.488 752.393 158.83 787.744 158.83C823.096 158.83 851.754 187.488 851.754 222.84C851.754 258.192 823.096 286.85 787.744 286.85Z" fill="url(#paint27_linear_87_331)"/>
<path d="M742.983 229.353C739.394 207.236 754.413 186.397 776.53 182.807C798.648 179.218 819.487 194.238 823.076 216.355C826.666 238.472 811.646 259.311 789.529 262.901C767.412 266.49 746.573 251.47 742.983 229.353Z" fill="#4D4A48"/>
<path d="M787.745 161.86C821.425 161.86 848.725 189.16 848.725 222.84C848.725 256.52 821.425 283.82 787.745 283.82C754.065 283.82 726.765 256.52 726.765 222.84C726.765 189.16 754.065 161.86 787.745 161.86ZM787.745 273.67C815.815 273.67 838.575 250.91 838.575 222.84C838.575 194.77 815.815 172.02 787.745 172.02C759.675 172.02 736.925 194.77 736.925 222.84C736.915 250.91 759.675 273.67 787.745 273.67Z" fill="#918D8C"/>
<path d="M787.744 238.45C779.123 238.45 772.134 231.461 772.134 222.84C772.134 214.219 779.123 207.23 787.744 207.23C796.366 207.23 803.354 214.219 803.354 222.84C803.354 231.461 796.366 238.45 787.744 238.45Z" fill="url(#paint28_linear_87_331)"/>
<path d="M780.547 224.018C779.902 220.049 782.598 216.309 786.566 215.665C790.535 215.021 794.275 217.716 794.919 221.685C795.563 225.654 792.868 229.393 788.899 230.037C784.93 230.681 781.191 227.986 780.547 224.018Z" stroke="url(#paint29_linear_87_331)" stroke-width="1.0112" stroke-miterlimit="10"/>
<path d="M787.745 216.88C791.035 216.88 793.705 219.55 793.705 222.84C793.705 226.13 791.035 228.8 787.745 228.8C784.455 228.8 781.785 226.13 781.785 222.84C781.785 219.55 784.455 216.88 787.745 216.88ZM787.745 228.5C790.875 228.5 793.405 225.97 793.405 222.84C793.405 219.71 790.875 217.18 787.745 217.18C784.615 217.18 782.085 219.71 782.085 222.84C782.085 225.97 784.615 228.5 787.745 228.5Z" fill="url(#paint30_linear_87_331)"/>
<path d="M782.045 222.84C782.045 225.99 784.595 228.54 787.745 228.54C790.895 228.54 793.445 225.99 793.445 222.84C793.445 219.69 790.895 217.14 787.745 217.14C784.595 217.14 782.045 219.69 782.045 222.84Z" fill="#444B4C"/>
<path d="M782.085 222.84C782.085 225.97 784.615 228.5 787.745 228.5C790.875 228.5 793.405 225.97 793.405 222.84C793.405 219.71 790.875 217.18 787.745 217.18C784.615 217.18 782.085 219.72 782.085 222.84Z" fill="url(#paint31_radial_87_331)"/>
<path d="M783.944 222.84C783.944 224.94 785.644 226.63 787.734 226.63C789.824 226.63 791.524 224.93 791.524 222.84C791.524 220.74 789.824 219.05 787.734 219.05C785.644 219.05 783.944 220.75 783.944 222.84Z" fill="url(#paint32_linear_87_331)"/>
<path d="M787.595 218.94L787.195 217.9V218.94H786.895V217.45H787.345L787.755 218.52L788.165 217.45H788.615V218.94H788.315V217.9L787.915 218.94H787.595Z" fill="black"/>
<path d="M783.485 219.61L783.995 220.36L783.195 219.97L782.975 220.23L784.235 220.86L784.495 220.55L784.005 219.81L784.825 220.16L785.075 219.85L784.225 218.72L784.005 218.98L784.545 219.7L783.715 219.33L783.485 219.61Z" fill="black"/>
<path d="M790.395 219.33C790.515 219.21 790.705 219.18 790.875 219.29C790.845 219.2 790.855 219.12 790.875 219.07C790.955 218.93 790.975 218.92 791.035 218.86C791.235 218.69 791.445 218.84 791.595 219.02L792.325 219.89L791.175 220.85L790.405 219.93C790.235 219.72 790.205 219.51 790.395 219.33ZM791.875 219.75L791.435 219.23C791.385 219.17 791.265 219.17 791.195 219.23C791.115 219.3 791.115 219.39 791.165 219.46L791.595 219.98L791.875 219.75ZM790.665 219.84L791.125 220.38L791.415 220.14L790.955 219.59C790.905 219.53 790.785 219.51 790.705 219.58C790.615 219.65 790.605 219.76 790.665 219.84Z" fill="#333333"/>
<path d="M787.584 218.89L787.194 217.84V218.89H786.894V217.39H787.344L787.754 218.46H787.744L788.154 217.39H788.604V218.89H788.304V217.84L787.914 218.89H787.584Z" fill="url(#paint33_radial_87_331)"/>
<path d="M783.485 219.51L783.995 220.26L783.185 219.86L782.975 220.13L784.235 220.76L784.485 220.45L783.995 219.71H784.005L784.815 220.06L785.075 219.75L784.225 218.62L784.005 218.88L784.535 219.6L783.715 219.23L783.485 219.51Z" fill="url(#paint34_radial_87_331)"/>
<path d="M790.445 219.3C790.565 219.18 790.755 219.15 790.925 219.26C790.895 219.17 790.905 219.09 790.925 219.04C791.005 218.9 791.025 218.89 791.085 218.83C791.285 218.66 791.495 218.81 791.645 218.99L792.375 219.86L791.225 220.82L790.455 219.9C790.285 219.69 790.265 219.48 790.445 219.3ZM791.935 219.72L791.495 219.2C791.445 219.14 791.325 219.14 791.255 219.2C791.175 219.27 791.175 219.36 791.225 219.43L791.655 219.95L791.935 219.72ZM790.725 219.81L791.185 220.35L791.475 220.11L791.015 219.56C790.965 219.5 790.845 219.48 790.765 219.55C790.665 219.62 790.665 219.73 790.725 219.81Z" fill="url(#paint35_radial_87_331)"/>
<path d="M787.745 226.51C785.718 226.51 784.075 224.867 784.075 222.84C784.075 220.813 785.718 219.17 787.745 219.17C789.771 219.17 791.415 220.813 791.415 222.84C791.415 224.867 789.771 226.51 787.745 226.51Z" fill="url(#paint36_radial_87_331)"/>
<path d="M791.305 222.84C791.305 220.87 789.705 219.28 787.745 219.28C785.775 219.28 784.185 220.88 784.185 222.84C784.185 224.81 785.785 226.4 787.745 226.4C789.715 226.4 791.305 224.81 791.305 222.84Z" fill="url(#paint37_radial_87_331)"/>
<path d="M791.314 222.84H787.744V219.27C789.714 219.27 791.314 220.87 791.314 222.84Z" fill="url(#paint38_radial_87_331)"/>
<path d="M787.745 222.84V226.41C785.775 226.41 784.175 224.81 784.175 222.84H787.745Z" fill="url(#paint39_radial_87_331)"/>
<path d="M784.145 222.78H787.685V219.24H787.805V222.78H791.345V222.9H787.805V226.44H787.685V222.9H784.145V222.78Z" fill="url(#paint40_radial_87_331)"/>
<path d="M787.684 219.34C785.804 219.37 784.284 220.89 784.254 222.77H784.194C784.224 220.85 785.774 219.31 787.694 219.27V219.34H787.684Z" fill="url(#paint41_linear_87_331)"/>
<path d="M791.245 222.78C791.215 220.9 789.695 219.37 787.805 219.34V219.28C789.725 219.31 791.275 220.86 791.305 222.78H791.245Z" fill="#BDD5E5"/>
<path d="M787.804 226.34C789.684 226.31 791.204 224.79 791.234 222.91H791.294C791.264 224.83 789.714 226.37 787.794 226.41V226.34H787.804Z" fill="url(#paint42_linear_87_331)"/>
<path d="M784.244 222.9C784.274 224.78 785.794 226.3 787.674 226.33V226.39C785.754 226.36 784.214 224.81 784.174 222.89H784.244V222.9Z" fill="#005D6C"/>
<path d="M787.875 219.27V222.71H791.305V222.78H787.875H787.805V222.71V219.27H787.875Z" fill="url(#paint43_linear_87_331)"/>
<path d="M787.884 226.37V222.98H791.274V222.91H787.884H787.814V222.98V226.37H787.884Z" fill="url(#paint44_linear_87_331)"/>
<path d="M787.604 226.37V222.98H784.214V222.91H787.604H787.674V222.98V226.37H787.604Z" fill="url(#paint45_linear_87_331)"/>
<path d="M787.604 219.3V222.7H784.214V222.76H787.604H787.674V222.7V219.3H787.604Z" fill="url(#paint46_linear_87_331)"/>
<g id="m5FrontWheel">
<path d="M738.484 202.27C740.264 198.01 742.594 194.04 745.364 190.43C750.134 184.2 756.254 179.06 763.274 175.42C767.294 173.34 771.604 171.75 776.134 170.74C779.874 169.91 783.754 169.45 787.744 169.45C791.784 169.45 795.704 169.91 799.484 170.77C804.004 171.79 808.314 173.38 812.324 175.47C819.324 179.12 825.414 184.26 830.174 190.49C832.934 194.1 835.244 198.07 837.024 202.32C839.664 208.64 841.134 215.57 841.134 222.84C841.134 223.66 841.104 224.48 841.074 225.29C840.864 229.96 840.054 234.47 838.714 238.75C836.334 246.35 832.304 253.21 827.034 258.94C823.944 262.3 820.424 265.26 816.574 267.74C810.094 271.92 802.654 274.72 794.664 275.76C792.404 276.05 790.094 276.22 787.754 276.22C785.464 276.22 783.204 276.06 780.984 275.78C772.984 274.76 765.534 271.97 759.034 267.8C755.174 265.32 751.644 262.37 748.544 259.01C743.254 253.28 739.204 246.4 736.814 238.79C735.464 234.5 734.654 229.97 734.444 225.3C734.404 224.48 734.384 223.67 734.384 222.84C734.354 215.55 735.834 208.61 738.484 202.27ZM744.514 200L759.414 206.44L746.404 196.77C745.724 197.82 745.094 198.9 744.514 200ZM772.844 176.26C771.654 176.64 770.484 177.07 769.334 177.54L776.594 192.02L772.844 176.26ZM802.764 176.3L799.024 192.02L806.254 177.59C805.124 177.11 803.954 176.69 802.764 176.3ZM829.134 196.84L816.214 206.44L830.994 200.05C830.414 198.95 829.794 197.88 829.134 196.84ZM836.184 229.49L820.114 228.54L835.554 233.15C835.814 231.94 836.024 230.72 836.184 229.49ZM817.754 261.42C818.734 260.66 819.684 259.87 820.604 259.04L808.894 247.97L817.754 261.42ZM787.744 271.75C788.394 271.75 789.034 271.73 789.674 271.7L787.814 255.64L785.954 271.7C786.544 271.73 787.144 271.75 787.744 271.75ZM757.824 261.49L766.734 247.97L754.954 259.1C755.874 259.93 756.834 260.72 757.824 261.49ZM739.944 233.18L755.514 228.53L739.304 229.49C739.464 230.74 739.684 231.97 739.944 233.18ZM738.884 225.04L774.484 222.94C775.614 222.88 776.624 223.67 776.824 224.78C777.024 225.9 776.344 226.99 775.264 227.31L741.094 237.51C743.284 244.44 746.974 250.71 751.784 255.94L777.674 231.48C778.504 230.7 779.774 230.66 780.644 231.39C781.514 232.12 781.694 233.39 781.074 234.33L761.484 264.06C767.414 267.85 774.204 270.39 781.494 271.33L785.594 235.97C785.724 234.84 786.684 233.99 787.814 233.99C788.954 233.99 789.904 234.84 790.034 235.97L794.134 271.31C801.414 270.35 808.194 267.8 814.104 264L794.554 234.33C793.934 233.38 794.114 232.12 794.984 231.39C795.854 230.66 797.134 230.7 797.954 231.48L823.774 255.87C828.564 250.65 832.234 244.39 834.414 237.47L800.364 227.31C799.274 226.99 798.604 225.9 798.804 224.78C799.004 223.66 800.004 222.87 801.144 222.94L836.604 225.03C836.634 224.3 836.664 223.58 836.664 222.84C836.664 216.2 835.334 209.87 832.924 204.1L800.314 218.2C800.024 218.32 799.724 218.38 799.424 218.38C798.644 218.38 797.894 217.97 797.484 217.26C796.914 216.28 797.174 215.02 798.084 214.35L826.584 193.17C822.244 187.5 816.694 182.81 810.324 179.48L794.394 211.26C794.004 212.04 793.224 212.49 792.394 212.49C792.144 212.49 791.884 212.45 791.634 212.35C790.564 211.96 789.964 210.84 790.224 209.73L798.454 175.12C795.004 174.35 791.424 173.93 787.744 173.93C784.114 173.93 780.574 174.34 777.174 175.09L785.414 209.73C785.674 210.83 785.074 211.96 784.004 212.35C783.754 212.44 783.494 212.49 783.244 212.49C782.424 212.49 781.634 212.03 781.244 211.26L765.284 179.43C758.894 182.75 753.324 187.44 748.964 193.11L777.554 214.36C778.464 215.04 778.724 216.29 778.154 217.27C777.744 217.98 776.994 218.39 776.214 218.39C775.914 218.39 775.614 218.33 775.324 218.21L742.594 204.06C740.174 209.85 738.834 216.2 738.834 222.85C738.834 223.58 738.854 224.31 738.884 225.04Z" fill="url(#paint47_linear_87_331)"/>
</g>
<path d="M114.315 239.495C105.153 200.694 129.18 161.812 167.981 152.65C206.782 143.488 245.664 167.516 254.826 206.316C263.988 245.117 239.961 283.999 201.16 293.161C162.359 302.323 123.477 278.296 114.315 239.495Z" fill="#020202"/>
<path d="M184.574 286.85C149.223 286.85 120.564 258.192 120.564 222.84C120.564 187.488 149.223 158.83 184.574 158.83C219.926 158.83 248.584 187.488 248.584 222.84C248.584 258.192 219.926 286.85 184.574 286.85Z" fill="url(#paint48_linear_87_331)"/>
<path d="M139.807 229.341C136.217 207.224 151.237 186.384 173.354 182.795C195.471 179.205 216.311 194.225 219.9 216.342C223.49 238.459 208.47 259.299 186.353 262.888C164.236 266.478 143.396 251.458 139.807 229.341Z" fill="#4D4A48"/>
<path d="M184.574 161.86C218.254 161.86 245.554 189.16 245.554 222.84C245.554 256.52 218.254 283.82 184.574 283.82C150.894 283.82 123.594 256.52 123.594 222.84C123.604 189.16 150.904 161.86 184.574 161.86ZM184.574 273.67C212.644 273.67 235.404 250.91 235.404 222.84C235.404 194.77 212.644 172.02 184.574 172.02C156.504 172.02 133.754 194.77 133.754 222.84C133.754 250.91 156.504 273.67 184.574 273.67Z" fill="#918D8C"/>
<path d="M184.575 238.45C175.953 238.45 168.965 231.461 168.965 222.84C168.965 214.219 175.953 207.23 184.575 207.23C193.196 207.23 200.185 214.219 200.185 222.84C200.185 231.461 193.196 238.45 184.575 238.45Z" fill="url(#paint49_linear_87_331)"/>
<path d="M181.762 229.563C178.047 228.025 176.283 223.766 177.822 220.051C179.361 216.337 183.619 214.573 187.334 216.111C191.049 217.65 192.813 221.909 191.274 225.623C189.735 229.338 185.477 231.102 181.762 229.563Z" stroke="url(#paint50_linear_87_331)" stroke-width="1.0112" stroke-miterlimit="10"/>
<path d="M184.574 216.88C187.864 216.88 190.534 219.55 190.534 222.84C190.534 226.13 187.864 228.8 184.574 228.8C181.284 228.8 178.614 226.13 178.614 222.84C178.614 219.55 181.284 216.88 184.574 216.88ZM184.574 228.5C187.704 228.5 190.234 225.97 190.234 222.84C190.234 219.71 187.704 217.18 184.574 217.18C181.444 217.18 178.914 219.71 178.914 222.84C178.914 225.97 181.454 228.5 184.574 228.5Z" fill="url(#paint51_linear_87_331)"/>
<path d="M178.874 222.84C178.874 225.99 181.424 228.54 184.574 228.54C187.724 228.54 190.274 225.99 190.274 222.84C190.274 219.69 187.724 217.14 184.574 217.14C181.424 217.14 178.874 219.69 178.874 222.84Z" fill="#444B4C"/>
<path d="M178.914 222.84C178.914 225.97 181.444 228.5 184.574 228.5C187.704 228.5 190.234 225.97 190.234 222.84C190.234 219.71 187.704 217.18 184.574 217.18C181.454 217.18 178.914 219.72 178.914 222.84Z" fill="url(#paint52_radial_87_331)"/>
<path d="M180.784 222.84C180.784 224.94 182.484 226.63 184.574 226.63C186.674 226.63 188.364 224.93 188.364 222.84C188.364 220.74 186.664 219.05 184.574 219.05C182.484 219.05 180.784 220.75 180.784 222.84Z" fill="url(#paint53_linear_87_331)"/>
<path d="M184.424 218.94L184.034 217.9V218.94H183.734V217.45H184.184L184.594 218.52H184.584L184.994 217.45H185.444V218.94H185.144V217.9L184.754 218.94H184.424Z" fill="black"/>
<path d="M180.314 219.61L180.824 220.36L180.024 219.97L179.804 220.23L181.074 220.86L181.324 220.55L180.834 219.81H180.844L181.654 220.16L181.914 219.85L181.064 218.72L180.844 218.98L181.374 219.7L180.554 219.33L180.314 219.61Z" fill="black"/>
<path d="M187.224 219.33C187.344 219.21 187.534 219.18 187.704 219.29C187.674 219.2 187.684 219.12 187.704 219.07C187.784 218.93 187.804 218.92 187.864 218.86C188.064 218.69 188.274 218.84 188.424 219.02L189.154 219.89L188.004 220.85L187.234 219.93C187.074 219.72 187.044 219.51 187.224 219.33ZM188.714 219.75L188.274 219.23C188.224 219.17 188.104 219.17 188.034 219.23C187.954 219.3 187.954 219.39 188.004 219.46L188.434 219.98L188.714 219.75ZM187.504 219.84L187.964 220.38L188.254 220.14L187.794 219.59C187.744 219.53 187.624 219.51 187.544 219.58C187.454 219.65 187.444 219.76 187.504 219.84Z" fill="#333333"/>
<path d="M184.424 218.89L184.024 217.84V218.89H183.724V217.39H184.174L184.584 218.46L184.994 217.39H185.444V218.89H185.144V217.84L184.754 218.89H184.424Z" fill="url(#paint54_radial_87_331)"/>
<path d="M180.314 219.51L180.824 220.26L180.024 219.86L179.804 220.13L181.064 220.76L181.324 220.45L180.834 219.71L181.654 220.06L181.914 219.75L181.054 218.62L180.844 218.88L181.374 219.6L180.544 219.23L180.314 219.51Z" fill="url(#paint55_radial_87_331)"/>
<path d="M187.284 219.3C187.404 219.18 187.594 219.15 187.764 219.26C187.734 219.17 187.744 219.09 187.764 219.04C187.844 218.9 187.864 218.89 187.924 218.83C188.124 218.66 188.334 218.81 188.484 218.99L189.214 219.86L188.064 220.82L187.294 219.9C187.124 219.69 187.094 219.48 187.284 219.3ZM188.764 219.72L188.324 219.2C188.274 219.14 188.154 219.14 188.084 219.2C188.004 219.27 188.004 219.36 188.054 219.43L188.484 219.95L188.764 219.72ZM187.554 219.81L188.014 220.35L188.304 220.11L187.844 219.56C187.794 219.5 187.674 219.48 187.594 219.55C187.504 219.62 187.494 219.73 187.554 219.81Z" fill="url(#paint56_radial_87_331)"/>
<path d="M188.244 222.84C188.244 220.81 186.604 219.17 184.574 219.17C182.544 219.17 180.904 220.81 180.904 222.84C180.904 224.87 182.544 226.51 184.574 226.51C186.604 226.51 188.244 224.87 188.244 222.84Z" fill="url(#paint57_radial_87_331)"/>
<path d="M188.144 222.84C188.144 220.87 186.544 219.28 184.584 219.28C182.614 219.28 181.024 220.88 181.024 222.84C181.024 224.81 182.624 226.4 184.584 226.4C186.544 226.4 188.144 224.81 188.144 222.84Z" fill="url(#paint58_radial_87_331)"/>
<path d="M188.144 222.84H184.574V219.27C186.544 219.27 188.144 220.87 188.144 222.84Z" fill="url(#paint59_radial_87_331)"/>
<path d="M184.574 222.84V226.41C182.604 226.41 181.004 224.81 181.004 222.84H184.574Z" fill="url(#paint60_radial_87_331)"/>
<path d="M180.984 222.78H184.514V219.24H184.644V222.78H188.174V222.9H184.644V226.44H184.514V222.9H180.984V222.78Z" fill="url(#paint61_radial_87_331)"/>
<path d="M184.514 219.34C182.634 219.37 181.114 220.89 181.084 222.77H181.024C181.054 220.85 182.604 219.31 184.524 219.27V219.34H184.514Z" fill="url(#paint62_linear_87_331)"/>
<path d="M188.084 222.78C188.054 220.9 186.534 219.37 184.644 219.34V219.28C186.564 219.31 188.114 220.86 188.144 222.78H188.084Z" fill="#BDD5E5"/>
<path d="M184.644 226.34C186.524 226.31 188.044 224.79 188.074 222.91H188.134C188.104 224.83 186.554 226.37 184.634 226.41V226.34H184.644Z" fill="url(#paint63_linear_87_331)"/>
<path d="M181.074 222.9C181.104 224.78 182.624 226.3 184.504 226.33V226.39C182.584 226.36 181.044 224.81 181.004 222.89H181.074V222.9Z" fill="#005D6C"/>
<path d="M184.704 219.27V222.71H188.144V222.78H184.704H184.644V222.71V219.27H184.704Z" fill="url(#paint64_linear_87_331)"/>
<path d="M184.714 226.37V222.98H188.114V222.91H184.714H184.644V222.98V226.37H184.714Z" fill="url(#paint65_linear_87_331)"/>
<path d="M184.444 226.37V222.98H181.044V222.91H184.444H184.504V222.98V226.37H184.444Z" fill="url(#paint66_linear_87_331)"/>
<path d="M184.444 219.3V222.7H181.044V222.76H184.444H184.504V222.7V219.3H184.444Z" fill="url(#paint67_linear_87_331)"/>
<path d="M135.325 202.27C137.105 198.01 139.435 194.04 142.205 190.43C146.975 184.2 153.095 179.06 160.115 175.42C164.135 173.34 168.445 171.75 172.975 170.74C176.715 169.91 180.595 169.45 184.585 169.45C188.625 169.45 192.545 169.91 196.325 170.77C200.845 171.79 205.155 173.38 209.165 175.47C216.165 179.12 222.255 184.26 227.015 190.49C229.775 194.1 232.085 198.07 233.865 202.32C236.505 208.64 237.975 215.57 237.975 222.84C237.975 223.66 237.945 224.48 237.915 225.29C237.705 229.96 236.895 234.47 235.555 238.75C233.175 246.35 229.145 253.21 223.875 258.94C220.785 262.3 217.265 265.26 213.415 267.74C206.935 271.92 199.495 274.72 191.505 275.76C189.245 276.05 186.935 276.22 184.595 276.22C182.305 276.22 180.045 276.06 177.825 275.78C169.825 274.76 162.375 271.97 155.875 267.8C152.015 265.32 148.485 262.37 145.385 259.01C140.095 253.28 136.045 246.4 133.655 238.79C132.305 234.5 131.495 229.97 131.285 225.3C131.245 224.48 131.225 223.67 131.225 222.84C131.195 215.55 132.665 208.61 135.325 202.27ZM141.345 200L156.245 206.44L143.235 196.77C142.565 197.82 141.935 198.9 141.345 200ZM169.685 176.26C168.495 176.64 167.325 177.07 166.175 177.54L173.435 192.02L169.685 176.26ZM199.605 176.3L195.865 192.02L203.095 177.59C201.955 177.11 200.795 176.69 199.605 176.3ZM225.975 196.84L213.055 206.44L227.835 200.05C227.255 198.95 226.635 197.88 225.975 196.84ZM233.025 229.49L216.955 228.54L232.395 233.15C232.645 231.94 232.855 230.72 233.025 229.49ZM214.595 261.42C215.575 260.66 216.525 259.87 217.445 259.04L205.735 247.97L214.595 261.42ZM184.575 271.75C185.225 271.75 185.865 271.73 186.505 271.7L184.645 255.64L182.785 271.7C183.385 271.73 183.975 271.75 184.575 271.75ZM154.655 261.49L163.565 247.97L151.785 259.1C152.715 259.93 153.675 260.72 154.655 261.49ZM136.775 233.18L152.345 228.53L136.135 229.49C136.305 230.74 136.515 231.97 136.775 233.18ZM135.725 225.04L171.325 222.94C172.455 222.88 173.465 223.67 173.655 224.78C173.855 225.9 173.185 226.99 172.095 227.31L137.925 237.51C140.115 244.44 143.805 250.71 148.615 255.94L174.505 231.48C175.335 230.7 176.605 230.66 177.475 231.39C178.345 232.12 178.525 233.39 177.905 234.33L158.315 264.06C164.245 267.85 171.035 270.39 178.325 271.33L182.425 235.97C182.555 234.84 183.515 233.99 184.645 233.99C185.785 233.99 186.735 234.84 186.865 235.97L190.965 271.31C198.245 270.35 205.025 267.8 210.935 264L191.385 234.33C190.765 233.38 190.945 232.12 191.815 231.39C192.685 230.66 193.965 230.7 194.785 231.48L220.605 255.87C225.395 250.65 229.065 244.39 231.245 237.47L197.195 227.31C196.105 226.99 195.435 225.9 195.635 224.78C195.835 223.66 196.835 222.87 197.975 222.94L233.435 225.03C233.465 224.3 233.495 223.58 233.495 222.84C233.495 216.2 232.165 209.87 229.755 204.1L197.145 218.2C196.855 218.32 196.555 218.38 196.255 218.38C195.475 218.38 194.725 217.97 194.315 217.26C193.745 216.28 194.005 215.02 194.915 214.35L223.415 193.17C219.075 187.5 213.525 182.81 207.155 179.48L191.225 211.26C190.835 212.04 190.055 212.49 189.225 212.49C188.975 212.49 188.715 212.45 188.465 212.35C187.395 211.96 186.795 210.84 187.055 209.73L195.285 175.12C191.835 174.35 188.255 173.93 184.575 173.93C180.945 173.93 177.405 174.34 174.005 175.09L182.245 209.73C182.505 210.83 181.905 211.96 180.835 212.35C180.585 212.44 180.325 212.49 180.075 212.49C179.245 212.49 178.465 212.03 178.075 211.26L162.115 179.43C155.725 182.75 150.155 187.44 145.795 193.11L174.385 214.36C175.295 215.04 175.555 216.29 174.985 217.27C174.575 217.98 173.825 218.39 173.045 218.39C172.745 218.39 172.445 218.33 172.155 218.21L139.425 204.06C137.005 209.85 135.665 216.2 135.665 222.85C135.665 223.58 135.695 224.31 135.725 225.04Z" fill="url(#paint68_linear_87_331)"/>
<defs>
<linearGradient id="paint0_linear_87_331" x1="887.355" y1="262.682" x2="934.332" y2="244.977" gradientUnits="userSpaceOnUse">
<stop stop-color="#020202"/>
<stop offset="1" stop-color="#515055"/>
</linearGradient>
<linearGradient id="paint1_linear_87_331" x1="909.253" y1="246.915" x2="877.026" y2="246.915" gradientUnits="userSpaceOnUse">
<stop stop-color="#020202"/>
<stop offset="1" stop-color="#515055"/>
</linearGradient>
<linearGradient id="paint2_linear_87_331" x1="220.453" y1="63.2491" x2="134.132" y2="63.2491" gradientUnits="userSpaceOnUse">
<stop stop-color="#6C6CC1"/>
<stop offset="1" stop-color="#999EDC"/>
</linearGradient>
<linearGradient id="paint3_linear_87_331" x1="910.362" y1="219.584" x2="928.48" y2="219.584" gradientUnits="userSpaceOnUse">
<stop stop-color="#020F6D"/>
<stop offset="1" stop-color="#1B1CBF"/>
</linearGradient>
<linearGradient id="paint4_linear_87_331" x1="770.735" y1="130.236" x2="0.142541" y2="130.236" gradientUnits="userSpaceOnUse">
<stop stop-color="#6C6CC1"/>
<stop offset="1" stop-color="#021B8A"/>
</linearGradient>
<linearGradient id="paint5_linear_87_331" x1="930.996" y1="174.599" x2="909" y2="174.599" gradientUnits="userSpaceOnUse">
<stop stop-color="#4D67C5"/>
<stop offset="1" stop-color="#0121BC"/>
</linearGradient>
<linearGradient id="paint6_linear_87_331" x1="906.569" y1="204.561" x2="851.341" y2="156.191" gradientUnits="userSpaceOnUse">
<stop stop-color="#020F6D"/>
<stop offset="1" stop-color="#1B1CBF"/>
</linearGradient>
<linearGradient id="paint7_linear_87_331" x1="926.775" y1="89.5029" x2="100.624" y2="89.5029" gradientUnits="userSpaceOnUse">
<stop stop-color="#8891DF"/>
<stop offset="0.0754" stop-color="#8088DD"/>
<stop offset="0.1983" stop-color="#6970D6"/>
<stop offset="0.3525" stop-color="#4448CB"/>
<stop offset="0.5008" stop-color="#1B1CBF"/>
<stop offset="0.6486" stop-color="#4448CB"/>
<stop offset="0.8023" stop-color="#6970D6"/>
<stop offset="0.9249" stop-color="#8088DD"/>
<stop offset="1" stop-color="#8891DF"/>
</linearGradient>
<linearGradient id="paint8_linear_87_331" x1="69.0145" y1="112.492" x2="57.7676" y2="112.492" gradientUnits="userSpaceOnUse">
<stop stop-color="#8891DF"/>
<stop offset="0.1348" stop-color="#9198DD"/>
<stop offset="0.3539" stop-color="#A9ABD9"/>
<stop offset="0.5" stop-color="#BDBBD5"/>
<stop offset="0.6461" stop-color="#A9ABD9"/>
<stop offset="0.8652" stop-color="#9198DD"/>
<stop offset="1" stop-color="#8891DF"/>
</linearGradient>
<linearGradient id="paint9_linear_87_331" x1="107.106" y1="79.0321" x2="9.73841" y2="79.0321" gradientUnits="userSpaceOnUse">
<stop stop-color="#8891DF"/>
<stop offset="0.1348" stop-color="#9198DD"/>
<stop offset="0.3539" stop-color="#A9ABD9"/>
<stop offset="0.5" stop-color="#BDBBD5"/>
<stop offset="0.6461" stop-color="#A9ABD9"/>
<stop offset="0.8652" stop-color="#9198DD"/>
<stop offset="1" stop-color="#8891DF"/>
</linearGradient>
<linearGradient id="paint10_linear_87_331" x1="766.195" y1="152.605" x2="0.142737" y2="152.605" gradientUnits="userSpaceOnUse">
<stop stop-color="#020F6D"/>
<stop offset="0.0978" stop-color="#051076"/>
<stop offset="0.2572" stop-color="#0C148E"/>
<stop offset="0.4574" stop-color="#181BB6"/>
<stop offset="0.5" stop-color="#1B1CBF"/>
<stop offset="0.599" stop-color="#181BB6"/>
<stop offset="0.7634" stop-color="#10169C"/>
<stop offset="0.9719" stop-color="#041073"/>
<stop offset="1" stop-color="#020F6D"/>
</linearGradient>
<linearGradient id="paint11_linear_87_331" x1="707.758" y1="199.975" x2="258.033" y2="199.975" gradientUnits="userSpaceOnUse">
<stop stop-color="#4D67C5"/>
<stop offset="1" stop-color="#0121BC"/>
</linearGradient>
<linearGradient id="paint12_linear_87_331" x1="878.837" y1="197.209" x2="2.45828" y2="197.209" gradientUnits="userSpaceOnUse">
<stop stop-color="#5872CA"/>
<stop offset="0.0944" stop-color="#5269C9"/>
<stop offset="0.2483" stop-color="#4051C6"/>
<stop offset="0.4416" stop-color="#2429C1"/>
<stop offset="0.5" stop-color="#1B1CBF"/>
<stop offset="0.5809" stop-color="#3D3EC4"/>
<stop offset="0.7221" stop-color="#7473CB"/>
<stop offset="0.8441" stop-color="#9C9AD0"/>
<stop offset="0.9408" stop-color="#B4B2D4"/>
<stop offset="1" stop-color="#BDBBD5"/>
</linearGradient>
<linearGradient id="paint13_linear_87_331" x1="914.248" y1="148.045" x2="856.336" y2="148.045" gradientUnits="userSpaceOnUse">
<stop stop-color="#020202"/>
<stop offset="1" stop-color="#272B2F"/>
</linearGradient>
<linearGradient id="paint14_linear_87_331" x1="914.248" y1="151.031" x2="872.714" y2="151.031" gradientUnits="userSpaceOnUse">
<stop stop-color="#A3A8AB"/>
<stop offset="0.3105" stop-color="white"/>
<stop offset="0.6214" stop-color="#A3A8AB"/>
<stop offset="1" stop-color="#E6ECF2"/>
</linearGradient>
<linearGradient id="paint15_linear_87_331" x1="929.877" y1="195.617" x2="914.248" y2="195.617" gradientUnits="userSpaceOnUse">
<stop stop-color="#A3A8AB"/>
<stop offset="0.3105" stop-color="white"/>
<stop offset="0.6214" stop-color="#A3A8AB"/>
<stop offset="1" stop-color="#E6ECF2"/>
</linearGradient>
<linearGradient id="paint16_linear_87_331" x1="730.293" y1="138.956" x2="686.009" y2="138.615" gradientUnits="userSpaceOnUse">
<stop stop-color="#A3A8AB"/>
<stop offset="0.3105" stop-color="white"/>
<stop offset="0.6214" stop-color="#A3A8AB"/>
<stop offset="1" stop-color="#E6ECF2"/>
</linearGradient>
<linearGradient id="paint17_linear_87_331" x1="718.374" y1="134.273" x2="670.221" y2="134.273" gradientUnits="userSpaceOnUse">
<stop stop-color="#A3A8AB"/>
<stop offset="0.3105" stop-color="white"/>
<stop offset="0.6214" stop-color="#A3A8AB"/>
<stop offset="1" stop-color="#E6ECF2"/>
</linearGradient>
<linearGradient id="paint18_linear_87_331" x1="478.716" y1="116.463" x2="432.642" y2="116.463" gradientUnits="userSpaceOnUse">
<stop stop-color="#020F6D"/>
<stop offset="0.0978" stop-color="#051076"/>
<stop offset="0.2572" stop-color="#0C148E"/>
<stop offset="0.4574" stop-color="#181BB6"/>
<stop offset="0.5" stop-color="#1B1CBF"/>
<stop offset="0.599" stop-color="#181BB6"/>
<stop offset="0.7634" stop-color="#10169C"/>
<stop offset="0.9719" stop-color="#041073"/>
<stop offset="1" stop-color="#020F6D"/>
</linearGradient>
<linearGradient id="paint19_linear_87_331" x1="477.664" y1="116.463" x2="433.694" y2="116.463" gradientUnits="userSpaceOnUse">
<stop stop-color="#8891DF"/>
<stop offset="0.1348" stop-color="#9198DD"/>
<stop offset="0.3539" stop-color="#A9ABD9"/>
<stop offset="0.5" stop-color="#BDBBD5"/>
<stop offset="0.6461" stop-color="#A9ABD9"/>
<stop offset="0.8652" stop-color="#9198DD"/>
<stop offset="1" stop-color="#8891DF"/>
</linearGradient>
<linearGradient id="paint20_linear_87_331" x1="477.664" y1="117.096" x2="433.694" y2="117.096" gradientUnits="userSpaceOnUse">
<stop stop-color="#020F6D"/>
<stop offset="0.0978" stop-color="#051076"/>
<stop offset="0.2572" stop-color="#0C148E"/>
<stop offset="0.4574" stop-color="#181BB6"/>
<stop offset="0.5" stop-color="#1B1CBF"/>
<stop offset="0.599" stop-color="#181BB6"/>
<stop offset="0.7634" stop-color="#10169C"/>
<stop offset="0.9719" stop-color="#041073"/>
<stop offset="1" stop-color="#020F6D"/>
</linearGradient>
<linearGradient id="paint21_linear_87_331" x1="280.161" y1="106.98" x2="234.087" y2="106.98" gradientUnits="userSpaceOnUse">
<stop stop-color="#020F6D"/>
<stop offset="0.0978" stop-color="#051076"/>
<stop offset="0.2572" stop-color="#0C148E"/>
<stop offset="0.4574" stop-color="#181BB6"/>
<stop offset="0.5" stop-color="#1B1CBF"/>
<stop offset="0.599" stop-color="#181BB6"/>
<stop offset="0.7634" stop-color="#10169C"/>
<stop offset="0.9719" stop-color="#041073"/>
<stop offset="1" stop-color="#020F6D"/>
</linearGradient>
<linearGradient id="paint22_linear_87_331" x1="279.109" y1="106.98" x2="235.139" y2="106.98" gradientUnits="userSpaceOnUse">
<stop stop-color="#8891DF"/>
<stop offset="0.1348" stop-color="#9198DD"/>
<stop offset="0.3539" stop-color="#A9ABD9"/>
<stop offset="0.5" stop-color="#BDBBD5"/>
<stop offset="0.6461" stop-color="#A9ABD9"/>
<stop offset="0.8652" stop-color="#9198DD"/>
<stop offset="1" stop-color="#8891DF"/>
</linearGradient>
<linearGradient id="paint23_linear_87_331" x1="279.109" y1="107.613" x2="235.139" y2="107.613" gradientUnits="userSpaceOnUse">
<stop stop-color="#020F6D"/>
<stop offset="0.0978" stop-color="#051076"/>
<stop offset="0.2572" stop-color="#0C148E"/>
<stop offset="0.4574" stop-color="#181BB6"/>
<stop offset="0.5" stop-color="#1B1CBF"/>
<stop offset="0.599" stop-color="#181BB6"/>
<stop offset="0.7634" stop-color="#10169C"/>
<stop offset="0.9719" stop-color="#041073"/>
<stop offset="1" stop-color="#020F6D"/>
</linearGradient>
<linearGradient id="paint24_linear_87_331" x1="595.369" y1="79.3333" x2="559.983" y2="79.3333" gradientUnits="userSpaceOnUse">
<stop stop-color="#030311"/>
<stop offset="1" stop-color="#515055"/>
</linearGradient>
<linearGradient id="paint25_linear_87_331" x1="581.572" y1="82.0143" x2="567.829" y2="82.0143" gradientUnits="userSpaceOnUse">
<stop stop-color="#B3B1B6"/>
<stop offset="1" stop-color="#515055"/>
</linearGradient>
<linearGradient id="paint26_linear_87_331" x1="594.781" y1="85.7607" x2="581.649" y2="85.7607" gradientUnits="userSpaceOnUse">
<stop stop-color="#1B1CBF"/>
<stop offset="1" stop-color="#B1B2E1"/>
</linearGradient>
<linearGradient id="paint27_linear_87_331" x1="851.749" y1="222.841" x2="723.736" y2="222.841" gradientUnits="userSpaceOnUse">
<stop stop-color="#020202"/>
<stop offset="1" stop-color="#515055"/>
</linearGradient>
<linearGradient id="paint28_linear_87_331" x1="803.349" y1="222.841" x2="772.137" y2="222.841" gradientUnits="userSpaceOnUse">
<stop stop-color="#A3A8AB"/>
<stop offset="0.3105" stop-color="white"/>
<stop offset="0.6214" stop-color="#A3A8AB"/>
<stop offset="1" stop-color="#E6ECF2"/>
</linearGradient>
<linearGradient id="paint29_linear_87_331" x1="788.98" y1="230.54" x2="786.484" y2="215.16" gradientUnits="userSpaceOnUse">
<stop stop-color="#020202"/>
<stop offset="1" stop-color="#515055"/>
</linearGradient>
<linearGradient id="paint30_linear_87_331" x1="794.572" y1="216.242" x2="781.933" y2="228.455" gradientUnits="userSpaceOnUse">
<stop stop-color="#DEEBF2"/>
<stop offset="0.1033" stop-color="#D5E1E8"/>
<stop offset="0.2811" stop-color="#BCC6CC"/>
<stop offset="0.512" stop-color="#939B9F"/>
<stop offset="0.7839" stop-color="#5C5F61"/>
<stop offset="1" stop-color="#2B2B2B"/>
</linearGradient>
<radialGradient id="paint31_radial_87_331" cx="0" cy="0" r="1" gradientUnits="userSpaceOnUse" gradientTransform="translate(793.775 217.277) rotate(180) scale(8.46429 8.46431)">
<stop stop-color="white"/>
<stop offset="0.3064" stop-color="#A8A8A8"/>
<stop offset="0.6461" stop-color="#4F4F4F"/>
<stop offset="0.8853" stop-color="#161616"/>
<stop offset="1"/>
</radialGradient>
<linearGradient id="paint32_linear_87_331" x1="783.393" y1="227.044" x2="791.443" y2="219.265" gradientUnits="userSpaceOnUse">
<stop stop-color="#DEEBF2"/>
<stop offset="0.089" stop-color="#D5E1E8"/>
<stop offset="0.2421" stop-color="#BBC6CC"/>
<stop offset="0.4411" stop-color="#929A9F"/>
<stop offset="0.6781" stop-color="#585D60"/>
<stop offset="0.9446" stop-color="#101111"/>
<stop offset="1"/>
</linearGradient>
<radialGradient id="paint33_radial_87_331" cx="0" cy="0" r="1" gradientUnits="userSpaceOnUse" gradientTransform="translate(795.294 216.415) rotate(180) scale(20.3369 20.3368)">
<stop stop-color="white"/>
<stop offset="0.3102" stop-color="#FDFDFD"/>
<stop offset="0.4505" stop-color="#F6F6F6"/>
<stop offset="0.5567" stop-color="#E9E9E9"/>
<stop offset="0.6456" stop-color="#D7D7D7"/>
<stop offset="0.7238" stop-color="#BFBFBF"/>
<stop offset="0.7944" stop-color="#A2A2A2"/>
<stop offset="0.8593" stop-color="#808080"/>
<stop offset="0.9199" stop-color="#575757"/>
<stop offset="0.9746" stop-color="#2B2B2B"/>
<stop offset="1" stop-color="#141414"/>
</radialGradient>
<radialGradient id="paint34_radial_87_331" cx="0" cy="0" r="1" gradientUnits="userSpaceOnUse" gradientTransform="translate(795.296 216.415) rotate(180) scale(20.3406 20.3406)">
<stop stop-color="white"/>
<stop offset="0.3102" stop-color="#FDFDFD"/>
<stop offset="0.4505" stop-color="#F6F6F6"/>
<stop offset="0.5567" stop-color="#E9E9E9"/>
<stop offset="0.6456" stop-color="#D7D7D7"/>
<stop offset="0.7238" stop-color="#BFBFBF"/>
<stop offset="0.7944" stop-color="#A2A2A2"/>
<stop offset="0.8593" stop-color="#808080"/>
<stop offset="0.9199" stop-color="#575757"/>
<stop offset="0.9746" stop-color="#2B2B2B"/>
<stop offset="1" stop-color="#141414"/>
</radialGradient>
<radialGradient id="paint35_radial_87_331" cx="0" cy="0" r="1" gradientUnits="userSpaceOnUse" gradientTransform="translate(795.296 216.415) rotate(180) scale(20.3417 20.3417)">
<stop stop-color="white"/>
<stop offset="0.3102" stop-color="#FDFDFD"/>
<stop offset="0.4505" stop-color="#F6F6F6"/>
<stop offset="0.5567" stop-color="#E9E9E9"/>
<stop offset="0.6456" stop-color="#D7D7D7"/>
<stop offset="0.7238" stop-color="#BFBFBF"/>
<stop offset="0.7944" stop-color="#A2A2A2"/>
<stop offset="0.8593" stop-color="#808080"/>
<stop offset="0.9199" stop-color="#575757"/>
<stop offset="0.9746" stop-color="#2B2B2B"/>
<stop offset="1" stop-color="#141414"/>
</radialGradient>
<radialGradient id="paint36_radial_87_331" cx="0" cy="0" r="1" gradientUnits="userSpaceOnUse" gradientTransform="translate(791.652 219.235) rotate(180) scale(5.486 5.48602)">
<stop stop-color="#E6E6E6"/>
<stop offset="0.1045" stop-color="#D6D6D6"/>
<stop offset="0.3074" stop-color="#ADADAD"/>
<stop offset="0.5884" stop-color="#6C6C6C"/>
<stop offset="0.9335" stop-color="#121212"/>
<stop offset="1"/>
</radialGradient>
<radialGradient id="paint37_radial_87_331" cx="0" cy="0" r="1" gradientUnits="userSpaceOnUse" gradientTransform="translate(790.152 219.973) rotate(180) scale(7.97821 7.97819)">
<stop stop-color="white"/>
<stop offset="0.3435" stop-color="#FDFDFD"/>
<stop offset="0.4814" stop-color="#F6F6F6"/>
<stop offset="0.5824" stop-color="#EAEAEA"/>
<stop offset="0.6654" stop-color="#D8D8D8"/>
<stop offset="0.7373" stop-color="#C2C2C2"/>
<stop offset="0.8016" stop-color="#A6A6A6"/>
<stop offset="0.8602" stop-color="#848484"/>
<stop offset="0.9126" stop-color="#5F5F5F"/>
<stop offset="0.9494" stop-color="#404040"/>
<stop offset="0.9566" stop-color="#404040"/>
<stop offset="1"/>
</radialGradient>
<radialGradient id="paint38_radial_87_331" cx="0" cy="0" r="1" gradientUnits="userSpaceOnUse" gradientTransform="translate(792.494 216.949) rotate(180) scale(14.1291 14.1291)">
<stop offset="0.1685" stop-color="white"/>
<stop offset="0.1884" stop-color="#E2F5FB"/>
<stop offset="0.2282" stop-color="#AEE2F4"/>
<stop offset="0.2697" stop-color="#7FD1EE"/>
<stop offset="0.312" stop-color="#58C3E9"/>
<stop offset="0.3554" stop-color="#38B7E5"/>
<stop offset="0.4002" stop-color="#1FAEE2"/>
<stop offset="0.447" stop-color="#0EA8E0"/>
<stop offset="0.4971" stop-color="#03A4DE"/>
<stop offset="0.5562" stop-color="#00A3DE"/>
<stop offset="0.6034" stop-color="#01A0DA"/>
<stop offset="0.6503" stop-color="#0498CE"/>
<stop offset="0.697" stop-color="#088BBA"/>
<stop offset="0.7437" stop-color="#0E789E"/>
<stop offset="0.7903" stop-color="#17607A"/>
<stop offset="0.8363" stop-color="#20424F"/>
<stop offset="0.8708" stop-color="#292929"/>
</radialGradient>
<radialGradient id="paint39_radial_87_331" cx="0" cy="0" r="1" gradientUnits="userSpaceOnUse" gradientTransform="translate(792.495 216.948) rotate(180) scale(14.1292 14.129)">
<stop offset="0.1685" stop-color="white"/>
<stop offset="0.1884" stop-color="#E2F5FB"/>
<stop offset="0.2282" stop-color="#AEE2F4"/>
<stop offset="0.2697" stop-color="#7FD1EE"/>
<stop offset="0.312" stop-color="#58C3E9"/>
<stop offset="0.3554" stop-color="#38B7E5"/>
<stop offset="0.4002" stop-color="#1FAEE2"/>
<stop offset="0.447" stop-color="#0EA8E0"/>
<stop offset="0.4971" stop-color="#03A4DE"/>
<stop offset="0.5562" stop-color="#00A3DE"/>
<stop offset="0.6034" stop-color="#01A0DA"/>
<stop offset="0.6503" stop-color="#0498CE"/>
<stop offset="0.697" stop-color="#088BBA"/>
<stop offset="0.7437" stop-color="#0E789E"/>
<stop offset="0.7903" stop-color="#17607A"/>
<stop offset="0.8363" stop-color="#20424F"/>
<stop offset="0.8708" stop-color="#292929"/>
</radialGradient>
<radialGradient id="paint40_radial_87_331" cx="0" cy="0" r="1" gradientUnits="userSpaceOnUse" gradientTransform="translate(791.578 219.304) rotate(180) scale(5.3809 5.38091)">
<stop stop-color="#E6E6E6"/>
<stop offset="0.1045" stop-color="#D6D6D6"/>
<stop offset="0.3074" stop-color="#ADADAD"/>
<stop offset="0.5884" stop-color="#6C6C6C"/>
<stop offset="0.9335" stop-color="#121212"/>
<stop offset="1"/>
</radialGradient>
<linearGradient id="paint41_linear_87_331" x1="788.448" y1="217.961" x2="783.201" y2="223.031" gradientUnits="userSpaceOnUse">
<stop stop-color="#EEF0F3"/>
<stop offset="0.1126" stop-color="#E9EBED"/>
<stop offset="0.2564" stop-color="#D9DBDE"/>
<stop offset="0.4173" stop-color="#BFC1C3"/>
<stop offset="0.5906" stop-color="#9C9D9F"/>
<stop offset="0.7738" stop-color="#6E6F70"/>
<stop offset="0.9626" stop-color="#373737"/>
<stop offset="1" stop-color="#2B2B2B"/>
</linearGradient>
<linearGradient id="paint42_linear_87_331" x1="792.707" y1="222.242" x2="787.46" y2="227.312" gradientUnits="userSpaceOnUse">
<stop stop-color="#EEF0F3"/>
<stop offset="0.1126" stop-color="#E9EBED"/>
<stop offset="0.2564" stop-color="#D9DBDE"/>
<stop offset="0.4173" stop-color="#BFC1C3"/>
<stop offset="0.5906" stop-color="#9C9D9F"/>
<stop offset="0.7738" stop-color="#6E6F70"/>
<stop offset="0.9626" stop-color="#373737"/>
<stop offset="1" stop-color="#2B2B2B"/>
</linearGradient>
<linearGradient id="paint43_linear_87_331" x1="790.169" y1="220.434" x2="787.448" y2="223.063" gradientUnits="userSpaceOnUse">
<stop stop-color="#BDD5E5"/>
<stop offset="0.1445" stop-color="#B5CEDF"/>
<stop offset="0.3699" stop-color="#9FBCCD"/>
<stop offset="0.6482" stop-color="#7B9EB1"/>
<stop offset="0.9658" stop-color="#49758B"/>
<stop offset="1" stop-color="#437086"/>
</linearGradient>
<linearGradient id="paint44_linear_87_331" x1="791.532" y1="221.078" x2="786.337" y2="226.097" gradientUnits="userSpaceOnUse">
<stop stop-color="#EEF0F3"/>
<stop offset="0.1015" stop-color="#E5E7EA"/>
<stop offset="0.268" stop-color="#CDCFD1"/>
<stop offset="0.4788" stop-color="#A6A7A9"/>
<stop offset="0.7256" stop-color="#707071"/>
<stop offset="1" stop-color="#2B2B2B"/>
</linearGradient>
<linearGradient id="paint45_linear_87_331" x1="787.703" y1="222.94" x2="785.881" y2="224.701" gradientUnits="userSpaceOnUse">
<stop stop-color="#D6DDE8"/>
<stop offset="0.1215" stop-color="#D1DAE5"/>
<stop offset="0.26" stop-color="#C4D1DE"/>
<stop offset="0.4067" stop-color="#ADC2D1"/>
<stop offset="0.5594" stop-color="#8DAEBF"/>
<stop offset="0.7165" stop-color="#6493A8"/>
<stop offset="0.875" stop-color="#32738C"/>
<stop offset="0.9719" stop-color="#105D79"/>
</linearGradient>
<linearGradient id="paint46_linear_87_331" x1="789.567" y1="219.173" x2="784.378" y2="224.187" gradientUnits="userSpaceOnUse">
<stop stop-color="#EEF0F3"/>
<stop offset="0.1126" stop-color="#E9EBED"/>
<stop offset="0.2564" stop-color="#D9DBDE"/>
<stop offset="0.4173" stop-color="#BFC1C3"/>
<stop offset="0.5906" stop-color="#9C9D9F"/>
<stop offset="0.7738" stop-color="#6E6F70"/>
<stop offset="0.9626" stop-color="#373737"/>
<stop offset="1" stop-color="#2B2B2B"/>
</linearGradient>
<linearGradient id="paint47_linear_87_331" x1="841.553" y1="222.841" x2="733.922" y2="222.841" gradientUnits="userSpaceOnUse">
<stop stop-color="#A3A8AB"/>
<stop offset="0.3105" stop-color="white"/>
<stop offset="0.6214" stop-color="#A3A8AB"/>
<stop offset="1" stop-color="#E6ECF2"/>
</linearGradient>
<linearGradient id="paint48_linear_87_331" x1="248.584" y1="222.841" x2="120.571" y2="222.841" gradientUnits="userSpaceOnUse">
<stop stop-color="#020202"/>
<stop offset="1" stop-color="#515055"/>
</linearGradient>
<linearGradient id="paint49_linear_87_331" x1="200.184" y1="222.841" x2="168.972" y2="222.841" gradientUnits="userSpaceOnUse">
<stop stop-color="#A3A8AB"/>
<stop offset="0.3105" stop-color="white"/>
<stop offset="0.6214" stop-color="#A3A8AB"/>
<stop offset="1" stop-color="#E6ECF2"/>
</linearGradient>
<linearGradient id="paint50_linear_87_331" x1="191.748" y1="225.821" x2="177.353" y2="219.858" gradientUnits="userSpaceOnUse">
<stop stop-color="#020202"/>
<stop offset="1" stop-color="#515055"/>
</linearGradient>
<linearGradient id="paint51_linear_87_331" x1="191.406" y1="216.242" x2="178.767" y2="228.455" gradientUnits="userSpaceOnUse">
<stop stop-color="#DEEBF2"/>
<stop offset="0.1033" stop-color="#D5E1E8"/>
<stop offset="0.2811" stop-color="#BCC6CC"/>
<stop offset="0.512" stop-color="#939B9F"/>
<stop offset="0.7839" stop-color="#5C5F61"/>
<stop offset="1" stop-color="#2B2B2B"/>
</linearGradient>
<radialGradient id="paint52_radial_87_331" cx="0" cy="0" r="1" gradientUnits="userSpaceOnUse" gradientTransform="translate(190.609 217.277) rotate(180) scale(8.46431)">
<stop stop-color="white"/>
<stop offset="0.3064" stop-color="#A8A8A8"/>
<stop offset="0.6461" stop-color="#4F4F4F"/>
<stop offset="0.8853" stop-color="#161616"/>
<stop offset="1"/>
</radialGradient>
<linearGradient id="paint53_linear_87_331" x1="180.228" y1="227.043" x2="188.278" y2="219.265" gradientUnits="userSpaceOnUse">
<stop stop-color="#DEEBF2"/>
<stop offset="0.089" stop-color="#D5E1E8"/>
<stop offset="0.2421" stop-color="#BBC6CC"/>
<stop offset="0.4411" stop-color="#929A9F"/>
<stop offset="0.6781" stop-color="#585D60"/>
<stop offset="0.9446" stop-color="#101111"/>
<stop offset="1"/>
</linearGradient>
<radialGradient id="paint54_radial_87_331" cx="0" cy="0" r="1" gradientUnits="userSpaceOnUse" gradientTransform="translate(192.129 216.415) rotate(180) scale(20.3382 20.3378)">
<stop stop-color="white"/>
<stop offset="0.3102" stop-color="#FDFDFD"/>
<stop offset="0.4505" stop-color="#F6F6F6"/>
<stop offset="0.5567" stop-color="#E9E9E9"/>
<stop offset="0.6456" stop-color="#D7D7D7"/>
<stop offset="0.7238" stop-color="#BFBFBF"/>
<stop offset="0.7944" stop-color="#A2A2A2"/>
<stop offset="0.8593" stop-color="#808080"/>
<stop offset="0.9199" stop-color="#575757"/>
<stop offset="0.9746" stop-color="#2B2B2B"/>
<stop offset="1" stop-color="#141414"/>
</radialGradient>
<radialGradient id="paint55_radial_87_331" cx="0" cy="0" r="1" gradientUnits="userSpaceOnUse" gradientTransform="translate(192.13 216.415) rotate(180) scale(20.3404 20.3406)">
<stop stop-color="white"/>
<stop offset="0.3102" stop-color="#FDFDFD"/>
<stop offset="0.4505" stop-color="#F6F6F6"/>
<stop offset="0.5567" stop-color="#E9E9E9"/>
<stop offset="0.6456" stop-color="#D7D7D7"/>
<stop offset="0.7238" stop-color="#BFBFBF"/>
<stop offset="0.7944" stop-color="#A2A2A2"/>
<stop offset="0.8593" stop-color="#808080"/>
<stop offset="0.9199" stop-color="#575757"/>
<stop offset="0.9746" stop-color="#2B2B2B"/>
<stop offset="1" stop-color="#141414"/>
</radialGradient>
<radialGradient id="paint56_radial_87_331" cx="0" cy="0" r="1" gradientUnits="userSpaceOnUse" gradientTransform="translate(192.131 216.415) rotate(180) scale(20.3416 20.3414)">
<stop stop-color="white"/>
<stop offset="0.3102" stop-color="#FDFDFD"/>
<stop offset="0.4505" stop-color="#F6F6F6"/>
<stop offset="0.5567" stop-color="#E9E9E9"/>
<stop offset="0.6456" stop-color="#D7D7D7"/>
<stop offset="0.7238" stop-color="#BFBFBF"/>
<stop offset="0.7944" stop-color="#A2A2A2"/>
<stop offset="0.8593" stop-color="#808080"/>
<stop offset="0.9199" stop-color="#575757"/>
<stop offset="0.9746" stop-color="#2B2B2B"/>
<stop offset="1" stop-color="#141414"/>
</radialGradient>
<radialGradient id="paint57_radial_87_331" cx="0" cy="0" r="1" gradientUnits="userSpaceOnUse" gradientTransform="translate(188.487 219.235) rotate(180) scale(5.48587 5.48592)">
<stop stop-color="#E6E6E6"/>
<stop offset="0.1045" stop-color="#D6D6D6"/>
<stop offset="0.3074" stop-color="#ADADAD"/>
<stop offset="0.5884" stop-color="#6C6C6C"/>
<stop offset="0.9335" stop-color="#121212"/>
<stop offset="1"/>
</radialGradient>
<radialGradient id="paint58_radial_87_331" cx="0" cy="0" r="1" gradientUnits="userSpaceOnUse" gradientTransform="translate(186.986 219.973) rotate(180) scale(7.97819)">
<stop stop-color="white"/>
<stop offset="0.3435" stop-color="#FDFDFD"/>
<stop offset="0.4814" stop-color="#F6F6F6"/>
<stop offset="0.5824" stop-color="#EAEAEA"/>
<stop offset="0.6654" stop-color="#D8D8D8"/>
<stop offset="0.7373" stop-color="#C2C2C2"/>
<stop offset="0.8016" stop-color="#A6A6A6"/>
<stop offset="0.8602" stop-color="#848484"/>
<stop offset="0.9126" stop-color="#5F5F5F"/>
<stop offset="0.9494" stop-color="#404040"/>
<stop offset="0.9566" stop-color="#404040"/>
<stop offset="1"/>
</radialGradient>
<radialGradient id="paint59_radial_87_331" cx="0" cy="0" r="1" gradientUnits="userSpaceOnUse" gradientTransform="translate(189.329 216.949) rotate(180) scale(14.1291)">
<stop offset="0.1685" stop-color="white"/>
<stop offset="0.1884" stop-color="#E2F5FB"/>
<stop offset="0.2282" stop-color="#AEE2F4"/>
<stop offset="0.2697" stop-color="#7FD1EE"/>
<stop offset="0.312" stop-color="#58C3E9"/>
<stop offset="0.3554" stop-color="#38B7E5"/>
<stop offset="0.4002" stop-color="#1FAEE2"/>
<stop offset="0.447" stop-color="#0EA8E0"/>
<stop offset="0.4971" stop-color="#03A4DE"/>
<stop offset="0.5562" stop-color="#00A3DE"/>
<stop offset="0.6034" stop-color="#01A0DA"/>
<stop offset="0.6503" stop-color="#0498CE"/>
<stop offset="0.697" stop-color="#088BBA"/>
<stop offset="0.7437" stop-color="#0E789E"/>
<stop offset="0.7903" stop-color="#17607A"/>
<stop offset="0.8363" stop-color="#20424F"/>
<stop offset="0.8708" stop-color="#292929"/>
</radialGradient>
<radialGradient id="paint60_radial_87_331" cx="0" cy="0" r="1" gradientUnits="userSpaceOnUse" gradientTransform="translate(189.329 216.948) rotate(180) scale(14.1294 14.1292)">
<stop offset="0.1685" stop-color="white"/>
<stop offset="0.1884" stop-color="#E2F5FB"/>
<stop offset="0.2282" stop-color="#AEE2F4"/>
<stop offset="0.2697" stop-color="#7FD1EE"/>
<stop offset="0.312" stop-color="#58C3E9"/>
<stop offset="0.3554" stop-color="#38B7E5"/>
<stop offset="0.4002" stop-color="#1FAEE2"/>
<stop offset="0.447" stop-color="#0EA8E0"/>
<stop offset="0.4971" stop-color="#03A4DE"/>
<stop offset="0.5562" stop-color="#00A3DE"/>
<stop offset="0.6034" stop-color="#01A0DA"/>
<stop offset="0.6503" stop-color="#0498CE"/>
<stop offset="0.697" stop-color="#088BBA"/>
<stop offset="0.7437" stop-color="#0E789E"/>
<stop offset="0.7903" stop-color="#17607A"/>
<stop offset="0.8363" stop-color="#20424F"/>
<stop offset="0.8708" stop-color="#292929"/>
</radialGradient>
<radialGradient id="paint61_radial_87_331" cx="0" cy="0" r="1" gradientUnits="userSpaceOnUse" gradientTransform="translate(188.412 219.304) rotate(180) scale(5.3808 5.38081)">
<stop stop-color="#E6E6E6"/>
<stop offset="0.1045" stop-color="#D6D6D6"/>
<stop offset="0.3074" stop-color="#ADADAD"/>
<stop offset="0.5884" stop-color="#6C6C6C"/>
<stop offset="0.9335" stop-color="#121212"/>
<stop offset="1"/>
</radialGradient>
<linearGradient id="paint62_linear_87_331" x1="185.283" y1="217.961" x2="180.036" y2="223.031" gradientUnits="userSpaceOnUse">
<stop stop-color="#EEF0F3"/>
<stop offset="0.1126" stop-color="#E9EBED"/>
<stop offset="0.2564" stop-color="#D9DBDE"/>
<stop offset="0.4173" stop-color="#BFC1C3"/>
<stop offset="0.5906" stop-color="#9C9D9F"/>
<stop offset="0.7738" stop-color="#6E6F70"/>
<stop offset="0.9626" stop-color="#373737"/>
<stop offset="1" stop-color="#2B2B2B"/>
</linearGradient>
<linearGradient id="paint63_linear_87_331" x1="189.542" y1="222.242" x2="184.295" y2="227.312" gradientUnits="userSpaceOnUse">
<stop stop-color="#EEF0F3"/>
<stop offset="0.1126" stop-color="#E9EBED"/>
<stop offset="0.2564" stop-color="#D9DBDE"/>
<stop offset="0.4173" stop-color="#BFC1C3"/>
<stop offset="0.5906" stop-color="#9C9D9F"/>
<stop offset="0.7738" stop-color="#6E6F70"/>
<stop offset="0.9626" stop-color="#373737"/>
<stop offset="1" stop-color="#2B2B2B"/>
</linearGradient>
<linearGradient id="paint64_linear_87_331" x1="187.003" y1="220.433" x2="184.282" y2="223.063" gradientUnits="userSpaceOnUse">
<stop stop-color="#BDD5E5"/>
<stop offset="0.1445" stop-color="#B5CEDF"/>
<stop offset="0.3699" stop-color="#9FBCCD"/>
<stop offset="0.6482" stop-color="#7B9EB1"/>
<stop offset="0.9658" stop-color="#49758B"/>
<stop offset="1" stop-color="#437086"/>
</linearGradient>
<linearGradient id="paint65_linear_87_331" x1="188.366" y1="221.078" x2="183.172" y2="226.097" gradientUnits="userSpaceOnUse">
<stop stop-color="#EEF0F3"/>
<stop offset="0.1015" stop-color="#E5E7EA"/>
<stop offset="0.268" stop-color="#CDCFD1"/>
<stop offset="0.4788" stop-color="#A6A7A9"/>
<stop offset="0.7256" stop-color="#707071"/>
<stop offset="1" stop-color="#2B2B2B"/>
</linearGradient>
<linearGradient id="paint66_linear_87_331" x1="184.537" y1="222.94" x2="182.715" y2="224.701" gradientUnits="userSpaceOnUse">
<stop stop-color="#D6DDE8"/>
<stop offset="0.1215" stop-color="#D1DAE5"/>
<stop offset="0.26" stop-color="#C4D1DE"/>
<stop offset="0.4067" stop-color="#ADC2D1"/>
<stop offset="0.5594" stop-color="#8DAEBF"/>
<stop offset="0.7165" stop-color="#6493A8"/>
<stop offset="0.875" stop-color="#32738C"/>
<stop offset="0.9719" stop-color="#105D79"/>
</linearGradient>
<linearGradient id="paint67_linear_87_331" x1="186.401" y1="219.173" x2="181.212" y2="224.187" gradientUnits="userSpaceOnUse">
<stop stop-color="#EEF0F3"/>
<stop offset="0.1126" stop-color="#E9EBED"/>
<stop offset="0.2564" stop-color="#D9DBDE"/>
<stop offset="0.4173" stop-color="#BFC1C3"/>
<stop offset="0.5906" stop-color="#9C9D9F"/>
<stop offset="0.7738" stop-color="#6E6F70"/>
<stop offset="0.9626" stop-color="#373737"/>
<stop offset="1" stop-color="#2B2B2B"/>
</linearGradient>
<linearGradient id="paint68_linear_87_331" x1="238.388" y1="222.841" x2="130.758" y2="222.841" gradientUnits="userSpaceOnUse">
<stop stop-color="#A3A8AB"/>
<stop offset="0.3105" stop-color="white"/>
<stop offset="0.6214" stop-color="#A3A8AB"/>
<stop offset="1" stop-color="#E6ECF2"/>
</linearGradient>
</defs>
</svg>
